{
.appVersion = "1230";
DisplayStrings = (
"/uniE262"
);
customParameters = (
{
name = glyphOrder;
value = (
.notdef,
space,
uniE901,
uniE903,
uniE904,
uniE905,
uniE915,
uniE918,
uniF08A,
uniE910,
uniE914,
uniF08B,
uniF090,
uniF091,
uniF092,
uniF093,
uniE95C,
uniF094,
uniE933,
uniE95D,
uniF096,
uniF572,
uniF570,
uniE937,
uniE934,
uniE939,
uniE938,
uniF59B,
uniF5A1,
uniE959,
uniE954,
uniF5A5,
uniF5A6,
uniF963,
uniF962,
uniF5A9,
uniF5AA,
uniF569,
uniF56A,
uniF56D,
uniF56E,
uniE9F2,
uniE9F1,
uniE9F3,
uniE9F4,
uniE9F5,
uniE9F6,
uniE9F7,
uniE9F8,
uniF0A1,
uniE9E0,
uniE9E5,
uniE262,
uniE030,
uniE043,
uniEA02,
uniE1FC,
uniE4C0,
uniE4C1,
uniEA00,
uniE8E4,
uniE8E5,
uniF0A0,
uniF0A6,
uniF0A7,
uniF0A2,
uniF0A8,
uniE1F3,
uniF0A9,
uniF0B0,
uniF0B1,
uniF0A4,
uniF0B3,
uniE1F5,
uniF0B4,
uniF0B2,
uniF0B5,
uniE934_uniE93E,
uniE934_uniE93F,
uniE938_uniE94B,
uniE938_uniE94C,
uniE934_uniE93F,
uniE934_uniE93E,
uniE938_uniE94B,
uniE938_uniE94C,
uniE938_uniE94A,
uniE938_uniE949,
uniE911,
uniE939_uniE93E,
uniE939_uniE93F,
uniE939_uniE949,
uniE939_uniE94A,
uniE939_uniE94B,
uniE939_uniE94C,
uniE9E1,
uniE080,
uniE081,
uniE082,
uniE083,
uniE084,
uniE085,
uniE086,
uniE087,
uniE088,
uniE089
);
}
);
date = "2018-02-06 14:33:21 +0000";
designer = "Daniel Spreadbury et al., Beatriz Pascual Sánchez. David Rizo Valero";
disablesNiceNames = 1;
familyName = BravuraMensuralMuRET;
fontMaster = (
{
alignmentZones = (
"{0, 0}"
);
ascender = 2012;
capHeight = 475;
descender = -2012;
id = "02376AAC-77FF-49DA-9399-294AF7A35492";
weightValue = 400;
widthValue = 5;
xHeight = 275;
}
);
glyphs = (
{
glyphname = uniE901;
lastChange = "2019-03-25 18:24:32 +0000";
layers = (
{
hints = (
{
horizontal = 1;
place = "{-169, 65}";
type = Stem;
},
{
horizontal = 1;
place = "{-35, 64}";
type = Stem;
},
{
horizontal = 1;
place = "{89, 69}";
type = Stem;
},
{
horizontal = 1;
place = "{880, 42}";
type = Stem;
},
{
place = "{0, 31}";
type = Stem;
},
{
place = "{89, 34}";
type = Stem;
},
{
place = "{201, 28}";
type = Stem;
},
{
place = "{271, 31}";
type = Stem;
},
{
place = "{100, 49}";
type = Stem;
},
{
place = "{291, 48}";
type = Stem;
},
{
place = "{262, 35}";
type = Stem;
}
);
layerId = "02376AAC-77FF-49DA-9399-294AF7A35492";
paths = (
{
closed = 1;
nodes = (
"149 65 LINE",
"165 81 OFFCURVE",
"188 89 OFFCURVE",
"210 90 CURVE",
"204 66 OFFCURVE",
"201 42 OFFCURVE",
"201 21 CURVE SMOOTH",
"201 -3 OFFCURVE",
"206 -23 OFFCURVE",
"219 -35 CURVE",
"221 -36 OFFCURVE",
"226 -36 OFFCURVE",
"231 -36 CURVE SMOOTH",
"241 -36 OFFCURVE",
"256 -35 OFFCURVE",
"267 -35 CURVE SMOOTH",
"277 -35 OFFCURVE",
"285 -36 OFFCURVE",
"286 -39 CURVE",
"289 -46 OFFCURVE",
"291 -63 OFFCURVE",
"291 -78 CURVE SMOOTH",
"291 -91 OFFCURVE",
"290 -102 OFFCURVE",
"286 -102 CURVE",
"281 -103 OFFCURVE",
"272 -104 OFFCURVE",
"262 -104 CURVE SMOOTH",
"220 -104 OFFCURVE",
"149 -85 OFFCURVE",
"149 46 CURVE SMOOTH"
);
},
{
closed = 1;
nodes = (
"206 536 LINE",
"189 567 OFFCURVE",
"173 591 OFFCURVE",
"166 603 CURVE SMOOTH",
"151 627 OFFCURVE",
"123 712 OFFCURVE",
"123 782 CURVE SMOOTH",
"123 816 OFFCURVE",
"130 847 OFFCURVE",
"148 865 CURVE SMOOTH",
"158 875 OFFCURVE",
"175 880 OFFCURVE",
"192 880 CURVE SMOOTH",
"213 880 OFFCURVE",
"235 872 OFFCURVE",
"248 855 CURVE SMOOTH",
"265 832 OFFCURVE",
"271 803 OFFCURVE",
"271 774 CURVE SMOOTH",
"271 753 OFFCURVE",
"268 732 OFFCURVE",
"265 712 CURVE SMOOTH",
"256 659 OFFCURVE",
"241 606 OFFCURVE",
"218 557 CURVE"
);
},
{
closed = 1;
nodes = (
"229 89 LINE",
"247 88 OFFCURVE",
"263 83 OFFCURVE",
"275 76 CURVE",
"276 76 OFFCURVE",
"277 75 OFFCURVE",
"278 75 CURVE SMOOTH",
"280 75 OFFCURVE",
"283 76 OFFCURVE",
"285 77 CURVE",
"301 87 OFFCURVE",
"323 124 OFFCURVE",
"323 131 CURVE SMOOTH",
"323 136 OFFCURVE",
"322 137 OFFCURVE",
"321 138 CURVE",
"303 151 OFFCURVE",
"283 158 OFFCURVE",
"261 158 CURVE SMOOTH",
"257 158 OFFCURVE",
"253 157 OFFCURVE",
"249 157 CURVE",
"254 167 LINE SMOOTH",
"273 208 OFFCURVE",
"297 259 OFFCURVE",
"297 309 CURVE SMOOTH",
"297 314 OFFCURVE",
"297 320 OFFCURVE",
"296 325 CURVE",
"291 378 OFFCURVE",
"251 457 OFFCURVE",
"216 519 CURVE",
"240 558 OFFCURVE",
"255 601 OFFCURVE",
"270 646 CURVE SMOOTH",
"279 676 OFFCURVE",
"302 756 OFFCURVE",
"302 822 CURVE SMOOTH",
"302 877 OFFCURVE",
"287 922 OFFCURVE",
"236 922 CURVE SMOOTH",
"231 922 OFFCURVE",
"226 922 OFFCURVE",
"221 921 CURVE",
"128 907 OFFCURVE",
"100 810 OFFCURVE",
"93 773 CURVE SMOOTH",
"90 759 OFFCURVE",
"89 744 OFFCURVE",
"89 730 CURVE SMOOTH",
"89 663 OFFCURVE",
"116 599 OFFCURVE",
"147 541 CURVE",
"176 492 LINE",
"125 430 OFFCURVE",
"57 380 OFFCURVE",
"19 307 CURVE SMOOTH",
"8 284 OFFCURVE",
"0 259 OFFCURVE",
"0 234 CURVE SMOOTH",
"0 229 LINE SMOOTH",
"2 141 OFFCURVE",
"61 124 OFFCURVE",
"61 124 CURVE SMOOTH",
"61 124 OFFCURVE",
"64 121 OFFCURVE",
"68 121 CURVE SMOOTH",
"71 121 OFFCURVE",
"75 123 OFFCURVE",
"79 127 CURVE SMOOTH",
"90 138 OFFCURVE",
"94 150 OFFCURVE",
"96 153 CURVE",
"97 155 OFFCURVE",
"99 159 OFFCURVE",
"99 160 CURVE SMOOTH",
"99 162 OFFCURVE",
"97 165 OFFCURVE",
"93 168 CURVE",
"77 168 OFFCURVE",
"31 207 OFFCURVE",
"31 260 CURVE SMOOTH",
"31 264 OFFCURVE",
"31 268 OFFCURVE",
"32 272 CURVE",
"45 362 OFFCURVE",
"130 413 OFFCURVE",
"185 477 CURVE",
"212 433 OFFCURVE",
"240 387 OFFCURVE",
"253 339 CURVE SMOOTH",
"259 318 OFFCURVE",
"262 298 OFFCURVE",
"262 276 CURVE SMOOTH",
"262 243 OFFCURVE",
"255 210 OFFCURVE",
"239 174 CURVE SMOOTH",
"230 153 LINE",
"199 143 OFFCURVE",
"167 120 OFFCURVE",
"136 80 CURVE SMOOTH",
"110 47 OFFCURVE",
"100 14 OFFCURVE",
"100 -20 CURVE SMOOTH",
"100 -47 OFFCURVE",
"107 -75 OFFCURVE",
"117 -102 CURVE SMOOTH",
"131 -139 OFFCURVE",
"179 -169 OFFCURVE",
"220 -169 CURVE SMOOTH",
"226 -169 LINE",
"277 -165 OFFCURVE",
"339 -108 OFFCURVE",
"339 -21 CURVE SMOOTH",
"339 -6 OFFCURVE",
"337 10 OFFCURVE",
"333 26 CURVE",
"333 26 OFFCURVE",
"301 29 OFFCURVE",
"277 29 CURVE SMOOTH",
"265 29 OFFCURVE",
"254 28 OFFCURVE",
"251 26 CURVE",
"249 26 OFFCURVE",
"247 23 OFFCURVE",
"244 20 CURVE",
"236 40 OFFCURVE",
"229 61 OFFCURVE",
"229 84 CURVE SMOOTH"
);
}
);
width = 339;
}
);
note = uniE901;
unicode = E901;
},
{
glyphname = uniE903;
lastChange = "2019-03-25 18:30:02 +0000";
layers = (
{
hints = (
{
horizontal = 1;
place = "{-172, 50}";
type = Stem;
},
{
place = "{148, 49}";
type = Stem;
},
{
horizontal = 1;
place = "{-147, 73}";
type = Stem;
},
{
horizontal = 1;
place = "{75, 73}";
type = Stem;
},
{
place = "{222, 73}";
type = Stem;
}
);
layerId = "02376AAC-77FF-49DA-9399-294AF7A35492";
paths = (
{
closed = 1;
nodes = (
"21 172 OFFCURVE",
"0 152 OFFCURVE",
"0 138 CURVE SMOOTH",
"0 131 OFFCURVE",
"5 125 OFFCURVE",
"18 123 CURVE SMOOTH",
"59 118 OFFCURVE",
"148 94 OFFCURVE",
"148 -11 CURVE SMOOTH",
"148 -116 OFFCURVE",
"52 -122 OFFCURVE",
"45 -122 CURVE SMOOTH",
"38 -122 LINE SMOOTH",
"35 -122 OFFCURVE",
"31 -123 OFFCURVE",
"24 -127 CURVE SMOOTH",
"9 -135 OFFCURVE",
"1 -148 OFFCURVE",
"1 -158 CURVE SMOOTH",
"1 -166 OFFCURVE",
"6 -172 OFFCURVE",
"18 -172 CURVE",
"124 -164 OFFCURVE",
"197 -81 OFFCURVE",
"197 8 CURVE SMOOTH",
"197 128 OFFCURVE",
"101 167 OFFCURVE",
"42 172 CURVE"
);
},
{
closed = 1;
nodes = (
"236 96 OFFCURVE",
"234 95 OFFCURVE",
"250 80 CURVE",
"254 77 OFFCURVE",
"259 75 OFFCURVE",
"263 75 CURVE SMOOTH",
"279 75 OFFCURVE",
"295 94 OFFCURVE",
"295 110 CURVE SMOOTH",
"295 115 OFFCURVE",
"294 120 OFFCURVE",
"290 123 CURVE",
"283 130 OFFCURVE",
"279 132 OFFCURVE",
"267 144 CURVE SMOOTH",
"264 147 OFFCURVE",
"260 148 OFFCURVE",
"256 148 CURVE SMOOTH",
"241 148 OFFCURVE",
"222 128 OFFCURVE",
"222 114 CURVE SMOOTH",
"222 111 OFFCURVE",
"223 108 OFFCURVE",
"225 106 CURVE"
);
},
{
closed = 1;
nodes = (
"237 -127 OFFCURVE",
"235 -127 OFFCURVE",
"252 -142 CURVE",
"256 -146 OFFCURVE",
"261 -147 OFFCURVE",
"265 -147 CURVE SMOOTH",
"280 -147 OFFCURVE",
"297 -127 OFFCURVE",
"297 -112 CURVE SMOOTH",
"297 -107 OFFCURVE",
"295 -103 OFFCURVE",
"292 -100 CURVE SMOOTH",
"285 -93 OFFCURVE",
"281 -91 OFFCURVE",
"268 -79 CURVE",
"265 -76 OFFCURVE",
"260 -74 OFFCURVE",
"256 -74 CURVE SMOOTH",
"241 -74 OFFCURVE",
"223 -94 OFFCURVE",
"223 -108 CURVE SMOOTH",
"223 -111 OFFCURVE",
"224 -115 OFFCURVE",
"226 -117 CURVE"
);
}
);
width = 298;
}
);
note = uniE903;
unicode = E903;
},
{
glyphname = uniE904;
lastChange = "2018-06-11 06:56:12 +0000";
layers = (
{
layerId = "02376AAC-77FF-49DA-9399-294AF7A35492";
paths = (
{
closed = 1;
nodes = (
"216 180 LINE SMOOTH",
"209 180 OFFCURVE",
"205 175 OFFCURVE",
"204 166 CURVE SMOOTH",
"201 140 OFFCURVE",
"191 127 OFFCURVE",
"174 127 CURVE SMOOTH",
"57 127 LINE SMOOTH",
"44 127 OFFCURVE",
"36 138 OFFCURVE",
"33 160 CURVE",
"33 170 LINE SMOOTH",
"33 177 OFFCURVE",
"29 180 OFFCURVE",
"21 180 CURVE SMOOTH",
"12 180 LINE SMOOTH",
"4 180 OFFCURVE",
"0 177 OFFCURVE",
"0 170 CURVE SMOOTH",
"0 -176 LINE SMOOTH",
"0 -183 OFFCURVE",
"4 -186 OFFCURVE",
"12 -186 CURVE SMOOTH",
"21 -186 LINE SMOOTH",
"29 -186 OFFCURVE",
"33 -183 OFFCURVE",
"33 -176 CURVE SMOOTH",
"33 -158 LINE",
"34 -151 OFFCURVE",
"37 -145 OFFCURVE",
"40 -142 CURVE",
"43 -138 OFFCURVE",
"46 -136 OFFCURVE",
"48 -136 CURVE",
"50 -135 OFFCURVE",
"53 -135 OFFCURVE",
"56 -135 CURVE SMOOTH",
"177 -135 LINE SMOOTH",
"190 -135 OFFCURVE",
"199 -143 OFFCURVE",
"204 -158 CURVE",
"204 -944 LINE SMOOTH",
"204 -950 OFFCURVE",
"205 -954 OFFCURVE",
"206 -957 CURVE SMOOTH",
"207 -960 OFFCURVE",
"209 -961 OFFCURVE",
"210 -962 CURVE",
"216 -962 LINE",
"224 -962 LINE SMOOTH",
"228 -962 OFFCURVE",
"231 -961 OFFCURVE",
"233 -959 CURVE SMOOTH",
"235 -957 OFFCURVE",
"236 -952 OFFCURVE",
"236 -944 CURVE SMOOTH",
"236 161 LINE SMOOTH",
"236 174 OFFCURVE",
"232 180 OFFCURVE",
"224 180 CURVE SMOOTH"
);
},
{
closed = 1;
nodes = (
"57 -53 LINE SMOOTH",
"44 -53 OFFCURVE",
"36 -42 OFFCURVE",
"33 -20 CURVE",
"33 22 LINE",
"34 29 OFFCURVE",
"37 35 OFFCURVE",
"40 39 CURVE",
"43 42 OFFCURVE",
"46 44 OFFCURVE",
"48 45 CURVE",
"56 45 LINE",
"177 45 LINE SMOOTH",
"190 45 OFFCURVE",
"199 37 OFFCURVE",
"204 22 CURVE",
"204 -16 LINE",
"201 -41 OFFCURVE",
"191 -53 OFFCURVE",
"174 -53 CURVE SMOOTH"
);
},
{
closed = 1;
nodes = (
"427 10 OFFCURVE",
"426 14 OFFCURVE",
"426 16 CURVE SMOOTH",
"426 19 OFFCURVE",
"427 22 OFFCURVE",
"429 26 CURVE",
"485 121 LINE",
"487 125 OFFCURVE",
"488 129 OFFCURVE",
"488 132 CURVE SMOOTH",
"488 137 OFFCURVE",
"486 144 OFFCURVE",
"482 152 CURVE",
"479 159 OFFCURVE",
"468 178 OFFCURVE",
"450 209 CURVE SMOOTH",
"432 240 OFFCURVE",
"421 259 OFFCURVE",
"417 265 CURVE",
"411 273 LINE",
"411 581 LINE SMOOTH",
"411 588 OFFCURVE",
"408 591 OFFCURVE",
"401 591 CURVE SMOOTH",
"388 591 LINE SMOOTH",
"381 591 OFFCURVE",
"378 588 OFFCURVE",
"378 581 CURVE SMOOTH",
"378 284 LINE",
"369 280 OFFCURVE",
"361 270 OFFCURVE",
"354 255 CURVE",
"274 115 LINE",
"274 113 OFFCURVE",
"273 110 OFFCURVE",
"271 107 CURVE SMOOTH",
"269 104 OFFCURVE",
"268 101 OFFCURVE",
"268 99 CURVE SMOOTH",
"268 96 OFFCURVE",
"270 90 OFFCURVE",
"274 83 CURVE SMOOTH",
"277 78 OFFCURVE",
"286 62 OFFCURVE",
"301 35 CURVE SMOOTH",
"316 8 OFFCURVE",
"325 -8 OFFCURVE",
"327 -11 CURVE",
"330 -14 OFFCURVE",
"331 -17 OFFCURVE",
"331 -20 CURVE SMOOTH",
"331 -22 OFFCURVE",
"330 -25 OFFCURVE",
"327 -28 CURVE",
"272 -126 LINE",
"269 -133 OFFCURVE",
"268 -138 OFFCURVE",
"268 -142 CURVE SMOOTH",
"268 -148 OFFCURVE",
"269 -153 OFFCURVE",
"272 -156 CURVE",
"275 -160 OFFCURVE",
"287 -180 OFFCURVE",
"308 -215 CURVE SMOOTH",
"329 -250 OFFCURVE",
"340 -269 OFFCURVE",
"342 -272 CURVE SMOOTH",
"347 -280 LINE",
"347 -1059 LINE SMOOTH",
"347 -1066 OFFCURVE",
"350 -1069 OFFCURVE",
"357 -1069 CURVE SMOOTH",
"370 -1069 LINE SMOOTH",
"377 -1069 OFFCURVE",
"380 -1066 OFFCURVE",
"380 -1059 CURVE SMOOTH",
"380 -285 LINE",
"388 -279 OFFCURVE",
"396 -270 OFFCURVE",
"404 -258 CURVE SMOOTH",
"427 -221 OFFCURVE",
"454 -174 OFFCURVE",
"484 -117 CURVE",
"486 -105 LINE",
"486 -96 OFFCURVE",
"484 -88 OFFCURVE",
"479 -81 CURVE",
"470 -67 OFFCURVE",
"454 -38 OFFCURVE",
"430 5 CURVE SMOOTH"
);
},
{
closed = 1;
nodes = (
"367 201 LINE",
"429 97 LINE",
"389 29 LINE",
"328 135 LINE"
);
},
{
closed = 1;
nodes = (
"328 -100 LINE",
"367 -34 LINE",
"429 -138 LINE",
"389 -206 LINE"
);
}
);
width = 488;
}
);
unicode = E904;
},
{
glyphname = uniE905;
lastChange = "2019-03-28 19:38:17 +0000";
layers = (
{
hints = (
{
horizontal = 1;
place = "{-138, 88}";
type = Stem;
},
{
horizontal = 1;
place = "{50, 88}";
type = Stem;
},
{
place = "{0, 35}";
type = Stem;
},
{
place = "{75, 35}";
type = Stem;
},
{
place = "{540, 35}";
type = Stem;
},
{
place = "{615, 35}";
type = Stem;
}
);
layerId = "02376AAC-77FF-49DA-9399-294AF7A35492";
paths = (
{
closed = 1;
nodes = (
"0 -490 LINE SMOOTH",
"0 -497 OFFCURVE",
"11 -500 OFFCURVE",
"18 -500 CURVE SMOOTH",
"25 -500 OFFCURVE",
"35 -497 OFFCURVE",
"35 -490 CURVE SMOOTH",
"35 490 LINE SMOOTH",
"35 497 OFFCURVE",
"25 500 OFFCURVE",
"18 500 CURVE SMOOTH",
"11 500 OFFCURVE",
"0 497 OFFCURVE",
"0 490 CURVE SMOOTH"
);
},
{
closed = 1;
nodes = (
"254 -30 LINE SMOOTH",
"254 -44 OFFCURVE",
"248 -50 OFFCURVE",
"234 -50 CURVE SMOOTH",
"130 -50 LINE SMOOTH",
"116 -50 OFFCURVE",
"110 -39 OFFCURVE",
"110 -25 CURVE SMOOTH",
"110 30 LINE SMOOTH",
"110 44 OFFCURVE",
"116 50 OFFCURVE",
"130 50 CURVE SMOOTH",
"234 50 LINE SMOOTH",
"248 50 OFFCURVE",
"254 44 OFFCURVE",
"254 30 CURVE SMOOTH"
);
},
{
closed = 1;
nodes = (
"254 165 LINE SMOOTH",
"254 146 OFFCURVE",
"251 138 OFFCURVE",
"234 138 CURVE SMOOTH",
"130 138 LINE SMOOTH",
"113 138 OFFCURVE",
"110 146 OFFCURVE",
"110 165 CURVE SMOOTH",
"110 490 LINE SMOOTH",
"110 497 OFFCURVE",
"100 500 OFFCURVE",
"93 500 CURVE SMOOTH",
"86 500 OFFCURVE",
"75 497 OFFCURVE",
"75 490 CURVE SMOOTH",
"75 -490 LINE SMOOTH",
"75 -497 OFFCURVE",
"86 -500 OFFCURVE",
"93 -500 CURVE SMOOTH",
"100 -500 OFFCURVE",
"110 -497 OFFCURVE",
"110 -490 CURVE SMOOTH",
"110 -165 LINE SMOOTH",
"110 -146 OFFCURVE",
"113 -138 OFFCURVE",
"130 -138 CURVE SMOOTH",
"234 -138 LINE SMOOTH",
"251 -138 OFFCURVE",
"254 -146 OFFCURVE",
"254 -165 CURVE SMOOTH",
"254 -490 LINE SMOOTH",
"254 -497 OFFCURVE",
"265 -500 OFFCURVE",
"272 -500 CURVE SMOOTH",
"279 -500 OFFCURVE",
"289 -497 OFFCURVE",
"289 -490 CURVE SMOOTH",
"289 490 LINE SMOOTH",
"289 497 OFFCURVE",
"279 500 OFFCURVE",
"272 500 CURVE SMOOTH",
"265 500 OFFCURVE",
"254 497 OFFCURVE",
"254 490 CURVE SMOOTH"
);
},
{
closed = 1;
nodes = (
"329 -490 LINE SMOOTH",
"329 -497 OFFCURVE",
"340 -500 OFFCURVE",
"347 -500 CURVE SMOOTH",
"354 -500 OFFCURVE",
"364 -497 OFFCURVE",
"364 -490 CURVE SMOOTH",
"364 490 LINE SMOOTH",
"364 497 OFFCURVE",
"354 500 OFFCURVE",
"347 500 CURVE SMOOTH",
"340 500 OFFCURVE",
"329 497 OFFCURVE",
"329 490 CURVE SMOOTH"
);
}
);
width = 364;
}
);
note = uniE905;
unicode = E905;
},
{
glyphname = uniE915;
lastChange = "2019-03-25 18:59:19 +0000";
layers = (
{
hints = (
{
horizontal = 1;
place = "{-266, 48}";
type = Stem;
},
{
horizontal = 1;
place = "{217, 48}";
type = Stem;
},
{
place = "{0, 48}";
type = Stem;
}
);
layerId = "02376AAC-77FF-49DA-9399-294AF7A35492";
paths = (
{
closed = 1;
nodes = (
"311 -266 OFFCURVE",
"357 -254 OFFCURVE",
"396 -232 CURVE SMOOTH",
"435 -210 OFFCURVE",
"467 -178 OFFCURVE",
"491 -141 CURVE",
"493 -137 OFFCURVE",
"494 -133 OFFCURVE",
"494 -129 CURVE SMOOTH",
"494 -121 OFFCURVE",
"490 -113 OFFCURVE",
"483 -108 CURVE SMOOTH",
"479 -105 OFFCURVE",
"474 -104 OFFCURVE",
"470 -104 CURVE SMOOTH",
"462 -104 OFFCURVE",
"454 -108 OFFCURVE",
"450 -115 CURVE SMOOTH",
"431 -146 OFFCURVE",
"404 -172 OFFCURVE",
"373 -190 CURVE SMOOTH",
"340 -208 OFFCURVE",
"303 -218 OFFCURVE",
"266 -218 CURVE SMOOTH",
"207 -218 OFFCURVE",
"153 -195 OFFCURVE",
"112 -154 CURVE SMOOTH",
"71 -113 OFFCURVE",
"48 -58 OFFCURVE",
"48 0 CURVE SMOOTH",
"48 58 OFFCURVE",
"71 112 OFFCURVE",
"112 153 CURVE SMOOTH",
"153 194 OFFCURVE",
"207 217 OFFCURVE",
"266 217 CURVE SMOOTH",
"339 217 OFFCURVE",
"407 180 OFFCURVE",
"447 119 CURVE",
"452 112 OFFCURVE",
"460 108 OFFCURVE",
"468 108 CURVE SMOOTH",
"473 108 OFFCURVE",
"477 109 OFFCURVE",
"481 112 CURVE",
"488 116 OFFCURVE",
"492 123 OFFCURVE",
"492 131 CURVE SMOOTH",
"492 136 OFFCURVE",
"490 141 OFFCURVE",
"487 145 CURVE",
"438 220 OFFCURVE",
"355 265 OFFCURVE",
"266 265 CURVE SMOOTH",
"195 265 OFFCURVE",
"128 237 OFFCURVE",
"78 187 CURVE SMOOTH",
"28 137 OFFCURVE",
"0 70 OFFCURVE",
"0 0 CURVE SMOOTH",
"0 -71 OFFCURVE",
"28 -138 OFFCURVE",
"78 -188 CURVE SMOOTH",
"128 -238 OFFCURVE",
"195 -266 OFFCURVE",
"266 -266 CURVE SMOOTH"
);
}
);
width = 495;
}
);
note = uniE915;
unicode = E915;
},
{
glyphname = uniE918;
lastChange = "2019-03-25 19:04:31 +0000";
layers = (
{
hints = (
{
horizontal = 1;
place = "{-265, 48}";
type = Stem;
},
{
horizontal = 1;
place = "{216, 48}";
type = Stem;
},
{
place = "{1, 48}";
type = Stem;
},
{
place = "{245, 48}";
type = Stem;
}
);
layerId = "02376AAC-77FF-49DA-9399-294AF7A35492";
paths = (
{
closed = 1;
nodes = (
"283 -380 OFFCURVE",
"293 -369 OFFCURVE",
"293 -356 CURVE SMOOTH",
"293 -264 LINE",
"330 -261 OFFCURVE",
"365 -249 OFFCURVE",
"397 -231 CURVE SMOOTH",
"436 -210 OFFCURVE",
"468 -178 OFFCURVE",
"492 -141 CURVE",
"494 -137 OFFCURVE",
"495 -133 OFFCURVE",
"495 -129 CURVE SMOOTH",
"495 -121 OFFCURVE",
"491 -113 OFFCURVE",
"484 -108 CURVE SMOOTH",
"480 -105 OFFCURVE",
"475 -104 OFFCURVE",
"471 -104 CURVE SMOOTH",
"463 -104 OFFCURVE",
"455 -108 OFFCURVE",
"451 -115 CURVE SMOOTH",
"432 -146 OFFCURVE",
"405 -172 OFFCURVE",
"374 -190 CURVE SMOOTH",
"349 -204 OFFCURVE",
"322 -213 OFFCURVE",
"293 -216 CURVE",
"293 215 LINE",
"356 208 OFFCURVE",
"413 173 OFFCURVE",
"448 119 CURVE",
"453 112 OFFCURVE",
"461 108 OFFCURVE",
"469 108 CURVE SMOOTH",
"474 108 OFFCURVE",
"478 109 OFFCURVE",
"482 112 CURVE",
"489 116 OFFCURVE",
"493 123 OFFCURVE",
"493 131 CURVE SMOOTH",
"493 136 OFFCURVE",
"491 141 OFFCURVE",
"488 145 CURVE",
"444 213 OFFCURVE",
"373 256 OFFCURVE",
"293 264 CURVE",
"293 339 LINE SMOOTH",
"293 352 OFFCURVE",
"283 363 OFFCURVE",
"269 363 CURVE SMOOTH",
"256 363 OFFCURVE",
"245 352 OFFCURVE",
"245 339 CURVE SMOOTH",
"245 264 LINE",
"182 259 OFFCURVE",
"124 232 OFFCURVE",
"79 187 CURVE SMOOTH",
"29 137 OFFCURVE",
"1 70 OFFCURVE",
"1 0 CURVE SMOOTH",
"1 -71 OFFCURVE",
"29 -138 OFFCURVE",
"79 -188 CURVE SMOOTH",
"124 -233 OFFCURVE",
"182 -260 OFFCURVE",
"245 -265 CURVE",
"245 -356 LINE SMOOTH",
"245 -369 OFFCURVE",
"256 -380 OFFCURVE",
"269 -380 CURVE SMOOTH"
);
},
{
closed = 1;
nodes = (
"245 -217 LINE",
"195 -212 OFFCURVE",
"149 -190 OFFCURVE",
"113 -154 CURVE SMOOTH",
"72 -113 OFFCURVE",
"49 -58 OFFCURVE",
"49 0 CURVE SMOOTH",
"49 58 OFFCURVE",
"72 112 OFFCURVE",
"113 153 CURVE SMOOTH",
"149 189 OFFCURVE",
"195 211 OFFCURVE",
"245 216 CURVE"
);
}
);
width = 495;
}
);
note = uniE918;
unicode = E918;
},
{
glyphname = uniF08A;
lastChange = "2018-02-21 17:16:56 +0000";
layers = (
{
layerId = "02376AAC-77FF-49DA-9399-294AF7A35492";
paths = (
{
closed = 1;
nodes = (
"789 -402 OFFCURVE",
"762 -402 OFFCURVE",
"713 -403 CURVE SMOOTH",
"664 -405 OFFCURVE",
"638 -405 OFFCURVE",
"635 -405 CURVE SMOOTH",
"633 -405 OFFCURVE",
"640 -396 OFFCURVE",
"654 -380 CURVE",
"705 -312 LINE SMOOTH",
"726 -284 OFFCURVE",
"745 -255 OFFCURVE",
"767 -224 CURVE SMOOTH",
"786 -193 OFFCURVE",
"803 -161 OFFCURVE",
"818 -129 CURVE SMOOTH",
"834 -97 OFFCURVE",
"841 -69 OFFCURVE",
"841 -45 CURVE SMOOTH",
"841 -32 OFFCURVE",
"839 -20 OFFCURVE",
"835 -8 CURVE SMOOTH",
"831 3 OFFCURVE",
"827 13 OFFCURVE",
"820 20 CURVE SMOOTH",
"813 27 OFFCURVE",
"806 32 OFFCURVE",
"799 38 CURVE SMOOTH",
"792 43 OFFCURVE",
"783 48 OFFCURVE",
"774 50 CURVE SMOOTH",
"764 53 OFFCURVE",
"755 56 OFFCURVE",
"747 57 CURVE SMOOTH",
"737 59 OFFCURVE",
"729 60 OFFCURVE",
"720 60 CURVE SMOOTH",
"698 60 LINE",
"681 60 LINE",
"674 59 LINE",
"673 59 OFFCURVE",
"678 69 OFFCURVE",
"691 88 CURVE SMOOTH",
"703 108 OFFCURVE",
"720 133 OFFCURVE",
"741 162 CURVE SMOOTH",
"802 251 LINE SMOOTH",
"821 280 OFFCURVE",
"838 305 OFFCURVE",
"853 328 CURVE",
"867 350 OFFCURVE",
"874 363 OFFCURVE",
"874 367 CURVE SMOOTH",
"874 368 OFFCURVE",
"820 371 OFFCURVE",
"710 374 CURVE SMOOTH",
"601 375 OFFCURVE",
"538 377 OFFCURVE",
"521 377 CURVE SMOOTH",
"520 377 OFFCURVE",
"503 354 OFFCURVE",
"468 311 CURVE SMOOTH",
"433 266 OFFCURVE",
"414 244 OFFCURVE",
"412 244 CURVE",
"404 247 LINE",
"398 248 OFFCURVE",
"391 249 OFFCURVE",
"383 252 CURVE",
"373 254 OFFCURVE",
"363 256 OFFCURVE",
"352 259 CURVE",
"341 261 OFFCURVE",
"328 263 OFFCURVE",
"313 265 CURVE SMOOTH",
"297 266 OFFCURVE",
"283 266 OFFCURVE",
"269 266 CURVE SMOOTH",
"203 266 OFFCURVE",
"142 240 OFFCURVE",
"86 186 CURVE SMOOTH",
"28 132 OFFCURVE",
"0 70 OFFCURVE",
"0 0 CURVE SMOOTH",
"0 -73 OFFCURVE",
"21 -130 OFFCURVE",
"63 -171 CURVE SMOOTH",
"105 -212 OFFCURVE",
"156 -231 OFFCURVE",
"215 -231 CURVE SMOOTH",
"275 -231 OFFCURVE",
"325 -219 OFFCURVE",
"366 -195 CURVE SMOOTH",
"407 -171 OFFCURVE",
"426 -148 OFFCURVE",
"426 -130 CURVE",
"425 -127 OFFCURVE",
"425 -126 OFFCURVE",
"425 -126 CURVE SMOOTH",
"423 -126 OFFCURVE",
"422 -127 OFFCURVE",
"418 -130 CURVE",
"414 -132 OFFCURVE",
"411 -134 OFFCURVE",
"407 -139 CURVE",
"402 -141 OFFCURVE",
"395 -144 OFFCURVE",
"387 -148 CURVE SMOOTH",
"379 -153 OFFCURVE",
"370 -155 OFFCURVE",
"360 -160 CURVE",
"350 -162 OFFCURVE",
"339 -165 OFFCURVE",
"325 -168 CURVE",
"311 -169 OFFCURVE",
"296 -171 OFFCURVE",
"279 -171 CURVE SMOOTH",
"245 -171 OFFCURVE",
"213 -164 OFFCURVE",
"184 -150 CURVE SMOOTH",
"153 -136 OFFCURVE",
"128 -113 OFFCURVE",
"108 -84 CURVE SMOOTH",
"87 -55 OFFCURVE",
"77 -20 OFFCURVE",
"77 21 CURVE SMOOTH",
"77 59 OFFCURVE",
"83 92 OFFCURVE",
"94 120 CURVE SMOOTH",
"105 147 OFFCURVE",
"121 168 OFFCURVE",
"139 182 CURVE",
"157 195 OFFCURVE",
"178 206 OFFCURVE",
"199 213 CURVE SMOOTH",
"220 220 OFFCURVE",
"244 223 OFFCURVE",
"268 223 CURVE",
"292 221 OFFCURVE",
"314 220 OFFCURVE",
"332 219 CURVE SMOOTH",
"350 217 OFFCURVE",
"369 214 OFFCURVE",
"386 212 CURVE SMOOTH",
"401 209 OFFCURVE",
"411 207 OFFCURVE",
"412 207 CURVE SMOOTH",
"414 207 OFFCURVE",
"435 226 OFFCURVE",
"474 261 CURVE SMOOTH",
"512 296 OFFCURVE",
"531 314 OFFCURVE",
"533 314 CURVE",
"534 315 OFFCURVE",
"577 314 OFFCURVE",
"663 312 CURVE SMOOTH",
"748 311 OFFCURVE",
"790 310 OFFCURVE",
"790 308 CURVE SMOOTH",
"790 307 OFFCURVE",
"774 280 OFFCURVE",
"740 230 CURVE SMOOTH",
"705 178 OFFCURVE",
"673 127 OFFCURVE",
"640 77 CURVE SMOOTH",
"608 27 OFFCURVE",
"594 1 OFFCURVE",
"598 1 CURVE",
"607 3 LINE",
"612 4 OFFCURVE",
"619 4 OFFCURVE",
"628 6 CURVE SMOOTH",
"635 7 OFFCURVE",
"645 7 OFFCURVE",
"654 7 CURVE SMOOTH",
"664 7 OFFCURVE",
"675 7 OFFCURVE",
"685 6 CURVE SMOOTH",
"695 4 OFFCURVE",
"706 3 OFFCURVE",
"716 -1 CURVE SMOOTH",
"726 -6 OFFCURVE",
"736 -10 OFFCURVE",
"743 -17 CURVE",
"750 -22 OFFCURVE",
"757 -31 OFFCURVE",
"761 -41 CURVE SMOOTH",
"765 -50 OFFCURVE",
"768 -63 OFFCURVE",
"768 -77 CURVE SMOOTH",
"768 -104 OFFCURVE",
"758 -137 OFFCURVE",
"738 -175 CURVE SMOOTH",
"719 -213 OFFCURVE",
"695 -248 OFFCURVE",
"668 -283 CURVE",
"640 -317 OFFCURVE",
"612 -349 OFFCURVE",
"586 -378 CURVE SMOOTH",
"559 -408 OFFCURVE",
"537 -431 OFFCURVE",
"521 -450 CURVE SMOOTH",
"506 -468 OFFCURVE",
"500 -476 OFFCURVE",
"505 -476 CURVE SMOOTH",
"507 -476 OFFCURVE",
"554 -475 OFFCURVE",
"645 -473 CURVE SMOOTH",
"734 -472 OFFCURVE",
"781 -471 OFFCURVE",
"782 -471 CURVE SMOOTH",
"786 -471 OFFCURVE",
"800 -455 OFFCURVE",
"821 -423 CURVE SMOOTH",
"842 -391 OFFCURVE",
"852 -373 OFFCURVE",
"852 -366 CURVE",
"851 -364 OFFCURVE",
"839 -370 OFFCURVE",
"818 -384 CURVE",
"802 -396 OFFCURVE",
"792 -402 OFFCURVE",
"790 -402 CURVE SMOOTH"
);
}
);
width = 874;
}
);
note = e;
unicode = F08A;
},
{
glyphname = uniE910;
lastChange = "2019-03-25 21:19:49 +0000";
layers = (
{
layerId = "02376AAC-77FF-49DA-9399-294AF7A35492";
paths = (
{
closed = 1;
nodes = (
"337 -266 OFFCURVE",
"404 -238 OFFCURVE",
"454 -188 CURVE SMOOTH",
"504 -138 OFFCURVE",
"532 -71 OFFCURVE",
"532 0 CURVE SMOOTH",
"532 70 OFFCURVE",
"504 137 OFFCURVE",
"454 187 CURVE SMOOTH",
"404 237 OFFCURVE",
"337 265 OFFCURVE",
"266 265 CURVE SMOOTH",
"196 265 OFFCURVE",
"129 237 OFFCURVE",
"79 187 CURVE SMOOTH",
"29 137 OFFCURVE",
"1 70 OFFCURVE",
"1 0 CURVE SMOOTH",
"1 -71 OFFCURVE",
"29 -138 OFFCURVE",
"79 -188 CURVE SMOOTH",
"129 -238 OFFCURVE",
"196 -266 OFFCURVE",
"266 -266 CURVE SMOOTH"
);
},
{
closed = 1;
nodes = (
"324 217 OFFCURVE",
"379 194 OFFCURVE",
"420 153 CURVE SMOOTH",
"461 112 OFFCURVE",
"484 58 OFFCURVE",
"484 0 CURVE SMOOTH",
"484 -58 OFFCURVE",
"461 -113 OFFCURVE",
"420 -154 CURVE SMOOTH",
"379 -195 OFFCURVE",
"324 -218 OFFCURVE",
"266 -218 CURVE SMOOTH",
"208 -218 OFFCURVE",
"154 -195 OFFCURVE",
"113 -154 CURVE SMOOTH",
"72 -113 OFFCURVE",
"49 -58 OFFCURVE",
"49 0 CURVE SMOOTH",
"49 58 OFFCURVE",
"72 112 OFFCURVE",
"113 153 CURVE SMOOTH",
"154 194 OFFCURVE",
"208 217 OFFCURVE",
"266 217 CURVE SMOOTH"
);
},
{
closed = 1;
nodes = (
"232 62 OFFCURVE",
"204 34 OFFCURVE",
"204 0 CURVE SMOOTH",
"204 -35 OFFCURVE",
"232 -63 OFFCURVE",
"266 -63 CURVE SMOOTH",
"301 -63 OFFCURVE",
"329 -35 OFFCURVE",
"329 0 CURVE SMOOTH",
"329 34 OFFCURVE",
"301 62 OFFCURVE",
"266 62 CURVE SMOOTH"
);
}
);
width = 532;
}
);
note = uniE910;
unicode = E910;
},
{
glyphname = uniE914;
lastChange = "2019-03-25 21:20:10 +0000";
layers = (
{
hints = (
{
place = "{0, 48}";
type = Stem;
},
{
place = "{206, 125}";
type = Stem;
}
);
layerId = "02376AAC-77FF-49DA-9399-294AF7A35492";
paths = (
{
closed = 1;
nodes = (
"311 -266 OFFCURVE",
"357 -254 OFFCURVE",
"396 -232 CURVE SMOOTH",
"435 -210 OFFCURVE",
"467 -178 OFFCURVE",
"491 -141 CURVE",
"493 -137 OFFCURVE",
"494 -133 OFFCURVE",
"494 -129 CURVE SMOOTH",
"494 -121 OFFCURVE",
"490 -113 OFFCURVE",
"483 -108 CURVE SMOOTH",
"479 -105 OFFCURVE",
"474 -104 OFFCURVE",
"470 -104 CURVE SMOOTH",
"462 -104 OFFCURVE",
"454 -108 OFFCURVE",
"450 -115 CURVE SMOOTH",
"431 -146 OFFCURVE",
"404 -172 OFFCURVE",
"373 -190 CURVE SMOOTH",
"340 -208 OFFCURVE",
"303 -218 OFFCURVE",
"266 -218 CURVE SMOOTH",
"207 -218 OFFCURVE",
"153 -195 OFFCURVE",
"112 -154 CURVE SMOOTH",
"71 -113 OFFCURVE",
"48 -58 OFFCURVE",
"48 0 CURVE SMOOTH",
"48 58 OFFCURVE",
"71 112 OFFCURVE",
"112 153 CURVE SMOOTH",
"153 194 OFFCURVE",
"207 217 OFFCURVE",
"266 217 CURVE SMOOTH",
"339 217 OFFCURVE",
"407 180 OFFCURVE",
"447 119 CURVE",
"452 112 OFFCURVE",
"460 108 OFFCURVE",
"468 108 CURVE SMOOTH",
"473 108 OFFCURVE",
"477 109 OFFCURVE",
"481 112 CURVE",
"488 116 OFFCURVE",
"492 123 OFFCURVE",
"492 131 CURVE SMOOTH",
"492 136 OFFCURVE",
"490 141 OFFCURVE",
"487 145 CURVE",
"438 220 OFFCURVE",
"355 265 OFFCURVE",
"266 265 CURVE SMOOTH",
"195 265 OFFCURVE",
"128 237 OFFCURVE",
"78 187 CURVE SMOOTH",
"28 137 OFFCURVE",
"0 70 OFFCURVE",
"0 0 CURVE SMOOTH",
"0 -71 OFFCURVE",
"28 -138 OFFCURVE",
"78 -188 CURVE SMOOTH",
"128 -238 OFFCURVE",
"195 -266 OFFCURVE",
"266 -266 CURVE SMOOTH"
);
},
{
closed = 1;
nodes = (
"234 62 OFFCURVE",
"206 34 OFFCURVE",
"206 0 CURVE SMOOTH",
"206 -35 OFFCURVE",
"234 -63 OFFCURVE",
"268 -63 CURVE SMOOTH",
"303 -63 OFFCURVE",
"331 -35 OFFCURVE",
"331 0 CURVE SMOOTH",
"331 34 OFFCURVE",
"303 62 OFFCURVE",
"268 62 CURVE SMOOTH"
);
}
);
width = 495;
}
);
note = uniE914;
unicode = E914;
},
{
glyphname = uniF08B;
lastChange = "2018-02-21 17:17:10 +0000";
layers = (
{
layerId = "02376AAC-77FF-49DA-9399-294AF7A35492";
paths = (
{
closed = 1;
nodes = (
"727 -410 OFFCURVE",
"704 -410 OFFCURVE",
"659 -412 CURVE",
"586 -412 LINE",
"632 -349 LINE SMOOTH",
"663 -306 OFFCURVE",
"693 -254 OFFCURVE",
"727 -194 CURVE SMOOTH",
"759 -133 OFFCURVE",
"776 -84 OFFCURVE",
"776 -47 CURVE SMOOTH",
"776 -34 OFFCURVE",
"774 -22 OFFCURVE",
"770 -11 CURVE",
"767 2 OFFCURVE",
"761 11 OFFCURVE",
"756 20 CURVE",
"750 27 OFFCURVE",
"743 34 OFFCURVE",
"736 39 CURVE SMOOTH",
"729 45 OFFCURVE",
"722 48 OFFCURVE",
"713 50 CURVE SMOOTH",
"704 52 OFFCURVE",
"697 56 OFFCURVE",
"688 57 CURVE SMOOTH",
"679 59 OFFCURVE",
"672 59 OFFCURVE",
"664 61 CURVE",
"643 61 LINE",
"638 59 OFFCURVE",
"632 59 OFFCURVE",
"629 59 CURVE SMOOTH",
"621 59 LINE SMOOTH",
"620 59 OFFCURVE",
"634 84 OFFCURVE",
"664 133 CURVE SMOOTH",
"695 181 OFFCURVE",
"725 233 OFFCURVE",
"758 285 CURVE SMOOTH",
"790 337 OFFCURVE",
"806 366 OFFCURVE",
"806 371 CURVE SMOOTH",
"806 373 OFFCURVE",
"790 373 OFFCURVE",
"756 374 CURVE SMOOTH",
"722 376 OFFCURVE",
"684 376 OFFCURVE",
"643 378 CURVE SMOOTH",
"602 380 OFFCURVE",
"564 380 OFFCURVE",
"532 382 CURVE",
"480 382 LINE",
"432 314 LINE SMOOTH",
"399 269 OFFCURVE",
"381 245 OFFCURVE",
"380 245 CURVE",
"365 251 LINE",
"355 254 OFFCURVE",
"340 258 OFFCURVE",
"322 262 CURVE SMOOTH",
"304 265 OFFCURVE",
"286 267 OFFCURVE",
"269 269 CURVE",
"272 631 OFFCURVE",
"272 812 OFFCURVE",
"267 812 CURVE SMOOTH",
"263 812 OFFCURVE",
"240 776 OFFCURVE",
"197 704 CURVE SMOOTH",
"152 631 OFFCURVE",
"131 593 OFFCURVE",
"131 588 CURVE SMOOTH",
"131 584 OFFCURVE",
"143 593 OFFCURVE",
"168 616 CURVE",
"188 636 OFFCURVE",
"200 645 OFFCURVE",
"202 645 CURVE SMOOTH",
"208 645 OFFCURVE",
"209 518 OFFCURVE",
"208 265 CURVE",
"152 253 OFFCURVE",
"104 220 OFFCURVE",
"62 170 CURVE SMOOTH",
"21 120 OFFCURVE",
"0 63 OFFCURVE",
"0 -2 CURVE SMOOTH",
"0 -75 OFFCURVE",
"19 -134 OFFCURVE",
"59 -176 CURVE SMOOTH",
"97 -217 OFFCURVE",
"143 -237 OFFCURVE",
"199 -237 CURVE SMOOTH",
"202 -237 LINE",
"202 -446 LINE SMOOTH",
"200 -518 OFFCURVE",
"200 -575 OFFCURVE",
"200 -616 CURVE",
"199 -658 OFFCURVE",
"199 -679 OFFCURVE",
"199 -684 CURVE SMOOTH",
"199 -710 OFFCURVE",
"197 -727 OFFCURVE",
"191 -738 CURVE",
"186 -747 OFFCURVE",
"177 -753 OFFCURVE",
"163 -753 CURVE SMOOTH",
"157 -753 OFFCURVE",
"152 -751 OFFCURVE",
"147 -747 CURVE SMOOTH",
"141 -744 OFFCURVE",
"140 -738 OFFCURVE",
"138 -733 CURVE SMOOTH",
"136 -727 OFFCURVE",
"134 -720 OFFCURVE",
"134 -715 CURVE",
"132 -710 OFFCURVE",
"132 -704 OFFCURVE",
"132 -701 CURVE SMOOTH",
"132 -693 LINE",
"131 -693 OFFCURVE",
"123 -702 OFFCURVE",
"111 -720 CURVE SMOOTH",
"98 -738 OFFCURVE",
"93 -749 OFFCURVE",
"93 -751 CURVE SMOOTH",
"93 -753 OFFCURVE",
"95 -760 OFFCURVE",
"98 -769 CURVE",
"100 -778 OFFCURVE",
"105 -787 OFFCURVE",
"114 -796 CURVE SMOOTH",
"123 -804 OFFCURVE",
"132 -810 OFFCURVE",
"141 -810 CURVE SMOOTH",
"165 -810 OFFCURVE",
"190 -796 OFFCURVE",
"218 -767 CURVE",
"245 -736 OFFCURVE",
"260 -704 OFFCURVE",
"260 -668 CURVE SMOOTH",
"260 -613 LINE SMOOTH",
"260 -575 OFFCURVE",
"260 -520 OFFCURVE",
"261 -446 CURVE SMOOTH",
"265 -228 LINE",
"290 -222 OFFCURVE",
"313 -213 OFFCURVE",
"333 -201 CURVE SMOOTH",
"353 -188 OFFCURVE",
"369 -177 OFFCURVE",
"378 -165 CURVE SMOOTH",
"387 -152 OFFCURVE",
"392 -142 OFFCURVE",
"392 -133 CURVE SMOOTH",
"392 -129 OFFCURVE",
"390 -129 OFFCURVE",
"387 -133 CURVE",
"349 -159 OFFCURVE",
"310 -172 OFFCURVE",
"265 -174 CURVE",
"267 -9 OFFCURVE",
"269 124 OFFCURVE",
"269 224 CURVE",
"281 224 OFFCURVE",
"295 224 OFFCURVE",
"308 222 CURVE SMOOTH",
"320 220 OFFCURVE",
"333 219 OFFCURVE",
"342 217 CURVE SMOOTH",
"351 215 OFFCURVE",
"358 213 OFFCURVE",
"367 211 CURVE",
"374 210 OFFCURVE",
"378 210 OFFCURVE",
"380 210 CURVE SMOOTH",
"381 210 OFFCURVE",
"399 228 OFFCURVE",
"430 265 CURVE SMOOTH",
"460 301 OFFCURVE",
"475 319 OFFCURVE",
"476 319 CURVE SMOOTH",
"634 319 OFFCURVE",
"713 317 OFFCURVE",
"713 312 CURVE SMOOTH",
"713 310 OFFCURVE",
"699 285 OFFCURVE",
"670 233 CURVE SMOOTH",
"641 181 OFFCURVE",
"614 129 OFFCURVE",
"587 79 CURVE SMOOTH",
"561 27 OFFCURVE",
"548 2 OFFCURVE",
"552 2 CURVE SMOOTH",
"561 2 LINE",
"566 4 OFFCURVE",
"571 4 OFFCURVE",
"578 5 CURVE SMOOTH",
"586 7 OFFCURVE",
"595 7 OFFCURVE",
"604 7 CURVE SMOOTH",
"613 7 OFFCURVE",
"623 7 OFFCURVE",
"632 5 CURVE SMOOTH",
"641 4 OFFCURVE",
"652 2 OFFCURVE",
"661 -4 CURVE",
"670 -7 OFFCURVE",
"677 -13 OFFCURVE",
"684 -18 CURVE SMOOTH",
"691 -23 OFFCURVE",
"697 -32 OFFCURVE",
"702 -43 CURVE",
"707 -52 OFFCURVE",
"709 -65 OFFCURVE",
"709 -79 CURVE SMOOTH",
"709 -108 OFFCURVE",
"700 -142 OFFCURVE",
"682 -179 CURVE",
"663 -217 OFFCURVE",
"641 -254 OFFCURVE",
"616 -288 CURVE SMOOTH",
"591 -323 OFFCURVE",
"566 -355 OFFCURVE",
"541 -385 CURVE SMOOTH",
"516 -416 OFFCURVE",
"496 -439 OFFCURVE",
"482 -459 CURVE",
"467 -477 OFFCURVE",
"462 -486 OFFCURVE",
"466 -486 CURVE SMOOTH",
"467 -486 OFFCURVE",
"510 -486 OFFCURVE",
"595 -484 CURVE SMOOTH",
"677 -482 OFFCURVE",
"720 -480 OFFCURVE",
"722 -480 CURVE SMOOTH",
"725 -480 OFFCURVE",
"738 -464 OFFCURVE",
"758 -432 CURVE SMOOTH",
"777 -400 OFFCURVE",
"786 -380 OFFCURVE",
"786 -373 CURVE SMOOTH",
"786 -371 OFFCURVE",
"783 -373 OFFCURVE",
"774 -380 CURVE",
"765 -385 OFFCURVE",
"754 -392 OFFCURVE",
"745 -400 CURVE SMOOTH",
"736 -407 OFFCURVE",
"731 -410 OFFCURVE",
"729 -410 CURVE SMOOTH"
);
},
{
closed = 1;
nodes = (
"166 -154 OFFCURVE",
"134 -133 OFFCURVE",
"109 -100 CURVE SMOOTH",
"84 -68 OFFCURVE",
"71 -27 OFFCURVE",
"71 22 CURVE SMOOTH",
"71 136 OFFCURVE",
"116 202 OFFCURVE",
"206 220 CURVE",
"206 219 OFFCURVE",
"206 90 OFFCURVE",
"204 -167 CURVE"
);
}
);
width = 806;
}
);
note = f;
unicode = F08B;
},
{
glyphname = uniE95C;
lastChange = "2019-03-26 11:33:58 +0000";
layers = (
{
hints = (
{
horizontal = 1;
place = "{-136, 61}";
type = Stem;
},
{
horizontal = 1;
place = "{73, 62}";
type = Stem;
},
{
place = "{0, 30}";
type = Stem;
},
{
place = "{595, 30}";
type = Stem;
}
);
layerId = "02376AAC-77FF-49DA-9399-294AF7A35492";
paths = (
{
closed = 1;
nodes = (
"605 171 LINE SMOOTH",
"599 171 OFFCURVE",
"595 166 OFFCURVE",
"595 160 CURVE SMOOTH",
"595 135 LINE",
"30 135 LINE",
"30 160 LINE SMOOTH",
"30 166 OFFCURVE",
"25 171 OFFCURVE",
"19 171 CURVE SMOOTH",
"10 171 LINE SMOOTH",
"5 171 OFFCURVE",
"0 166 OFFCURVE",
"0 160 CURVE SMOOTH",
"0 -161 LINE SMOOTH",
"0 -167 OFFCURVE",
"5 -172 OFFCURVE",
"10 -172 CURVE SMOOTH",
"19 -172 LINE SMOOTH",
"25 -172 OFFCURVE",
"30 -167 OFFCURVE",
"30 -161 CURVE SMOOTH",
"30 -136 LINE",
"595 -136 LINE",
"595 -876 LINE SMOOTH",
"595 -882 OFFCURVE",
"599 -887 OFFCURVE",
"605 -887 CURVE SMOOTH",
"614 -887 LINE SMOOTH",
"620 -887 OFFCURVE",
"625 -882 OFFCURVE",
"625 -876 CURVE SMOOTH",
"625 160 LINE SMOOTH",
"625 166 OFFCURVE",
"620 171 OFFCURVE",
"614 171 CURVE SMOOTH"
);
},
{
closed = 1;
nodes = (
"595 73 LINE",
"595 -75 LINE",
"30 -75 LINE",
"30 73 LINE"
);
}
);
width = 625;
}
);
note = uniE95C;
unicode = E95C;
},
{
glyphname = uniF094;
lastChange = "2019-03-25 21:38:08 +0000";
layers = (
{
layerId = "02376AAC-77FF-49DA-9399-294AF7A35492";
paths = (
{
closed = 1;
nodes = (
"605 171 LINE SMOOTH",
"599 171 OFFCURVE",
"595 166 OFFCURVE",
"595 160 CURVE SMOOTH",
"595 135 LINE",
"30 135 LINE",
"30 160 LINE SMOOTH",
"30 166 OFFCURVE",
"25 171 OFFCURVE",
"19 171 CURVE SMOOTH",
"10 171 LINE SMOOTH",
"5 171 OFFCURVE",
"0 166 OFFCURVE",
"0 160 CURVE SMOOTH",
"0 -161 LINE SMOOTH",
"0 -167 OFFCURVE",
"5 -172 OFFCURVE",
"10 -172 CURVE SMOOTH",
"19 -172 LINE SMOOTH",
"25 -172 OFFCURVE",
"30 -167 OFFCURVE",
"30 -161 CURVE SMOOTH",
"30 -136 LINE",
"595 -136 LINE",
"595 -161 LINE SMOOTH",
"595 -167 OFFCURVE",
"599 -172 OFFCURVE",
"605 -172 CURVE SMOOTH",
"614 -172 LINE SMOOTH",
"620 -172 OFFCURVE",
"625 -167 OFFCURVE",
"625 -161 CURVE SMOOTH",
"625 160 LINE SMOOTH",
"625 166 OFFCURVE",
"620 171 OFFCURVE",
"614 171 CURVE SMOOTH"
);
},
{
closed = 1;
nodes = (
"595 73 LINE",
"595 -75 LINE",
"30 -75 LINE",
"30 73 LINE"
);
},
{
closed = 1;
nodes = (
"619 0 OFFCURVE",
"626 7 OFFCURVE",
"626 16 CURVE SMOOTH",
"626 766 LINE SMOOTH",
"626 774 OFFCURVE",
"619 782 OFFCURVE",
"610 782 CURVE SMOOTH",
"602 782 OFFCURVE",
"594 774 OFFCURVE",
"594 766 CURVE SMOOTH",
"594 16 LINE SMOOTH",
"594 7 OFFCURVE",
"602 0 OFFCURVE",
"610 0 CURVE SMOOTH"
);
}
);
width = 626;
}
);
unicode = F094;
},
{
glyphname = uniE933;
lastChange = "2019-03-25 21:54:38 +0000";
layers = (
{
hints = (
{
horizontal = 1;
place = "{-136, 61}";
type = Stem;
},
{
horizontal = 1;
place = "{73, 62}";
type = Stem;
},
{
place = "{0, 30}";
type = Stem;
},
{
place = "{595, 30}";
type = Stem;
}
);
layerId = "02376AAC-77FF-49DA-9399-294AF7A35492";
paths = (
{
closed = 1;
nodes = (
"605 171 LINE SMOOTH",
"599 171 OFFCURVE",
"595 166 OFFCURVE",
"595 160 CURVE SMOOTH",
"595 135 LINE",
"30 135 LINE",
"30 160 LINE SMOOTH",
"30 166 OFFCURVE",
"25 171 OFFCURVE",
"19 171 CURVE SMOOTH",
"10 171 LINE SMOOTH",
"5 171 OFFCURVE",
"0 166 OFFCURVE",
"0 160 CURVE SMOOTH",
"0 -161 LINE SMOOTH",
"0 -167 OFFCURVE",
"5 -172 OFFCURVE",
"10 -172 CURVE SMOOTH",
"19 -172 LINE SMOOTH",
"25 -172 OFFCURVE",
"30 -167 OFFCURVE",
"30 -161 CURVE SMOOTH",
"30 -136 LINE",
"595 -136 LINE",
"595 -161 LINE SMOOTH",
"595 -167 OFFCURVE",
"599 -172 OFFCURVE",
"605 -172 CURVE SMOOTH",
"614 -172 LINE SMOOTH",
"620 -172 OFFCURVE",
"625 -167 OFFCURVE",
"625 -161 CURVE SMOOTH",
"625 160 LINE SMOOTH",
"625 166 OFFCURVE",
"620 171 OFFCURVE",
"614 171 CURVE SMOOTH"
);
},
{
closed = 1;
nodes = (
"595 73 LINE",
"595 -75 LINE",
"30 -75 LINE",
"30 73 LINE"
);
}
);
width = 625;
}
);
note = uniE933;
unicode = E933;
},
{
glyphname = uniE95D;
lastChange = "2019-03-26 11:33:18 +0000";
layers = (
{
hints = (
{
horizontal = 1;
place = "{-136, 61}";
type = Stem;
},
{
horizontal = 1;
place = "{73, 62}";
type = Stem;
},
{
place = "{0, 30}";
type = Stem;
},
{
place = "{295, 30}";
type = Stem;
}
);
layerId = "02376AAC-77FF-49DA-9399-294AF7A35492";
paths = (
{
closed = 1;
nodes = (
"305 171 LINE SMOOTH",
"299 171 OFFCURVE",
"295 166 OFFCURVE",
"295 160 CURVE SMOOTH",
"295 135 LINE",
"30 135 LINE",
"30 160 LINE SMOOTH",
"30 166 OFFCURVE",
"25 171 OFFCURVE",
"19 171 CURVE SMOOTH",
"10 171 LINE SMOOTH",
"5 171 OFFCURVE",
"0 166 OFFCURVE",
"0 160 CURVE SMOOTH",
"0 -161 LINE SMOOTH",
"0 -167 OFFCURVE",
"5 -172 OFFCURVE",
"10 -172 CURVE SMOOTH",
"19 -172 LINE SMOOTH",
"25 -172 OFFCURVE",
"30 -167 OFFCURVE",
"30 -161 CURVE SMOOTH",
"30 -136 LINE",
"295 -136 LINE",
"295 -876 LINE SMOOTH",
"295 -882 OFFCURVE",
"299 -887 OFFCURVE",
"305 -887 CURVE SMOOTH",
"314 -887 LINE SMOOTH",
"320 -887 OFFCURVE",
"325 -882 OFFCURVE",
"325 -876 CURVE SMOOTH",
"325 160 LINE SMOOTH",
"325 166 OFFCURVE",
"320 171 OFFCURVE",
"314 171 CURVE SMOOTH"
);
},
{
closed = 1;
nodes = (
"295 73 LINE",
"295 -75 LINE",
"30 -75 LINE",
"30 73 LINE"
);
}
);
width = 325;
}
);
note = uniE95D;
unicode = E95D;
},
{
glyphname = uniF096;
lastChange = "2019-03-25 22:09:34 +0000";
layers = (
{
layerId = "02376AAC-77FF-49DA-9399-294AF7A35492";
paths = (
{
closed = 1;
nodes = (
"306 172 LINE SMOOTH",
"300 172 OFFCURVE",
"295 167 OFFCURVE",
"295 161 CURVE SMOOTH",
"295 136 LINE",
"30 136 LINE",
"30 161 LINE SMOOTH",
"30 167 OFFCURVE",
"26 172 OFFCURVE",
"20 172 CURVE SMOOTH",
"11 172 LINE SMOOTH",
"5 172 OFFCURVE",
"0 167 OFFCURVE",
"0 161 CURVE SMOOTH",
"0 -160 LINE SMOOTH",
"0 -166 OFFCURVE",
"5 -171 OFFCURVE",
"11 -171 CURVE SMOOTH",
"20 -171 LINE SMOOTH",
"26 -171 OFFCURVE",
"30 -166 OFFCURVE",
"30 -160 CURVE SMOOTH",
"30 -135 LINE",
"295 -135 LINE",
"295 -160 LINE SMOOTH",
"295 -166 OFFCURVE",
"300 -171 OFFCURVE",
"306 -171 CURVE SMOOTH",
"315 -171 LINE SMOOTH",
"320 -171 OFFCURVE",
"325 -166 OFFCURVE",
"325 -160 CURVE SMOOTH",
"325 161 LINE SMOOTH",
"325 167 OFFCURVE",
"320 172 OFFCURVE",
"315 172 CURVE SMOOTH"
);
},
{
closed = 1;
nodes = (
"295 74 LINE",
"295 -74 LINE",
"30 -74 LINE",
"30 74 LINE"
);
},
{
closed = 1;
nodes = (
"324 -5 OFFCURVE",
"320 -2 OFFCURVE",
"320 16 CURVE SMOOTH",
"331 761 LINE SMOOTH",
"331 769 OFFCURVE",
"324 777 OFFCURVE",
"315 777 CURVE SMOOTH",
"307 777 OFFCURVE",
"299 769 OFFCURVE",
"299 761 CURVE SMOOTH",
"299 11 LINE SMOOTH",
"299 2 OFFCURVE",
"307 -5 OFFCURVE",
"315 -5 CURVE SMOOTH"
);
}
);
width = 331;
}
);
unicode = F096;
},
{
glyphname = uniE937;
lastChange = "2019-03-26 07:43:02 +0000";
layers = (
{
hints = (
{
horizontal = 1;
place = "{-135, 61}";
type = Stem;
},
{
horizontal = 1;
place = "{74, 62}";
type = Stem;
},
{
place = "{0, 30}";
type = Stem;
},
{
place = "{295, 30}";
type = Stem;
}
);
layerId = "02376AAC-77FF-49DA-9399-294AF7A35492";
paths = (
{
closed = 1;
nodes = (
"306 172 LINE SMOOTH",
"300 172 OFFCURVE",
"295 167 OFFCURVE",
"295 161 CURVE SMOOTH",
"295 136 LINE",
"30 136 LINE",
"30 161 LINE SMOOTH",
"30 167 OFFCURVE",
"26 172 OFFCURVE",
"20 172 CURVE SMOOTH",
"11 172 LINE SMOOTH",
"5 172 OFFCURVE",
"0 167 OFFCURVE",
"0 161 CURVE SMOOTH",
"0 -160 LINE SMOOTH",
"0 -166 OFFCURVE",
"5 -171 OFFCURVE",
"11 -171 CURVE SMOOTH",
"20 -171 LINE SMOOTH",
"26 -171 OFFCURVE",
"30 -166 OFFCURVE",
"30 -160 CURVE SMOOTH",
"30 -135 LINE",
"295 -135 LINE",
"295 -160 LINE SMOOTH",
"295 -166 OFFCURVE",
"300 -171 OFFCURVE",
"306 -171 CURVE SMOOTH",
"315 -171 LINE SMOOTH",
"320 -171 OFFCURVE",
"325 -166 OFFCURVE",
"325 -160 CURVE SMOOTH",
"325 161 LINE SMOOTH",
"325 167 OFFCURVE",
"320 172 OFFCURVE",
"315 172 CURVE SMOOTH"
);
},
{
closed = 1;
nodes = (
"295 74 LINE",
"295 -74 LINE",
"30 -74 LINE",
"30 74 LINE"
);
}
);
width = 325;
}
);
note = uniE937;
unicode = E937;
},
{
glyphname = uniE934;
lastChange = "2019-03-26 07:46:28 +0000";
layers = (
{
hints = (
{
horizontal = 1;
place = "{-141, 282}";
type = Stem;
},
{
place = "{0, 332}";
type = Stem;
}
);
layerId = "02376AAC-77FF-49DA-9399-294AF7A35492";
paths = (
{
closed = 1;
nodes = (
"316 -141 LINE SMOOTH",
"325 -141 OFFCURVE",
"332 -134 OFFCURVE",
"332 -125 CURVE SMOOTH",
"332 125 LINE SMOOTH",
"332 133 OFFCURVE",
"325 141 OFFCURVE",
"316 141 CURVE SMOOTH",
"16 141 LINE SMOOTH",
"8 141 OFFCURVE",
"0 133 OFFCURVE",
"0 125 CURVE SMOOTH",
"0 -125 LINE SMOOTH",
"0 -134 OFFCURVE",
"8 -141 OFFCURVE",
"16 -141 CURVE SMOOTH"
);
}
);
width = 332;
}
);
note = uniE934;
unicode = E934;
},
{
glyphname = uniE939;
lastChange = "2019-03-26 07:54:02 +0000";
layers = (
{
hints = (
{
horizontal = 1;
place = "{0, 21}";
target = up;
type = BottomGhost;
},
{
place = "{1, 282}";
type = Stem;
}
);
layerId = "02376AAC-77FF-49DA-9399-294AF7A35492";
paths = (
{
closed = 1;
nodes = (
"153 136 LINE SMOOTH",
"150 139 OFFCURVE",
"146 141 OFFCURVE",
"142 141 CURVE SMOOTH",
"138 141 OFFCURVE",
"134 139 OFFCURVE",
"131 136 CURVE SMOOTH",
"6 11 LINE",
"2 8 OFFCURVE",
"1 4 OFFCURVE",
"1 0 CURVE SMOOTH",
"1 -4 OFFCURVE",
"2 -9 OFFCURVE",
"6 -12 CURVE",
"131 -137 LINE SMOOTH",
"134 -140 OFFCURVE",
"138 -141 OFFCURVE",
"142 -141 CURVE SMOOTH",
"146 -141 OFFCURVE",
"150 -140 OFFCURVE",
"153 -137 CURVE SMOOTH",
"278 -12 LINE SMOOTH",
"281 -9 OFFCURVE",
"283 -4 OFFCURVE",
"283 0 CURVE SMOOTH",
"283 4 OFFCURVE",
"281 8 OFFCURVE",
"278 11 CURVE SMOOTH"
);
},
{
closed = 1;
nodes = (
"142 -103 LINE",
"40 0 LINE",
"142 102 LINE",
"244 0 LINE"
);
}
);
width = 283;
}
);
note = uniE939;
unicode = E939;
},
{
glyphname = uniE938;
lastChange = "2019-03-26 08:03:05 +0000";
layers = (
{
hints = (
{
horizontal = 1;
place = "{-141, 282}";
type = Stem;
},
{
place = "{0, 282}";
type = Stem;
}
);
layerId = "02376AAC-77FF-49DA-9399-294AF7A35492";
paths = (
{
closed = 1;
nodes = (
"153 136 LINE SMOOTH",
"150 139 OFFCURVE",
"146 141 OFFCURVE",
"142 141 CURVE SMOOTH",
"137 141 OFFCURVE",
"133 139 OFFCURVE",
"130 136 CURVE SMOOTH",
"5 11 LINE SMOOTH",
"2 8 OFFCURVE",
"0 3 OFFCURVE",
"0 -1 CURVE SMOOTH",
"0 -5 OFFCURVE",
"2 -9 OFFCURVE",
"5 -12 CURVE SMOOTH",
"130 -137 LINE SMOOTH",
"133 -140 OFFCURVE",
"137 -141 OFFCURVE",
"142 -141 CURVE SMOOTH",
"146 -141 OFFCURVE",
"150 -140 OFFCURVE",
"153 -137 CURVE SMOOTH",
"278 -12 LINE SMOOTH",
"281 -9 OFFCURVE",
"282 -5 OFFCURVE",
"282 -1 CURVE SMOOTH",
"282 3 OFFCURVE",
"281 8 OFFCURVE",
"278 11 CURVE SMOOTH"
);
}
);
width = 282;
}
);
note = uniE938;
unicode = E938;
},
{
glyphname = uniE959;
lastChange = "2019-03-26 11:39:27 +0000";
layers = (
{
hints = (
{
horizontal = 1;
place = "{-649, 790}";
type = Stem;
},
{
place = "{126, 32}";
type = Stem;
}
);
layerId = "02376AAC-77FF-49DA-9399-294AF7A35492";
paths = (
{
closed = 1;
nodes = (
"278 -11 LINE SMOOTH",
"281 -8 OFFCURVE",
"282 -4 OFFCURVE",
"282 0 CURVE SMOOTH",
"282 4 OFFCURVE",
"281 8 OFFCURVE",
"278 11 CURVE SMOOTH",
"153 136 LINE SMOOTH",
"150 139 OFFCURVE",
"146 141 OFFCURVE",
"141 141 CURVE SMOOTH",
"137 141 OFFCURVE",
"133 139 OFFCURVE",
"130 136 CURVE SMOOTH",
"5 11 LINE SMOOTH",
"2 8 OFFCURVE",
"0 4 OFFCURVE",
"0 0 CURVE SMOOTH",
"0 -4 OFFCURVE",
"2 -8 OFFCURVE",
"5 -11 CURVE SMOOTH",
"126 -132 LINE",
"126 -633 LINE SMOOTH",
"126 -642 OFFCURVE",
"134 -649 OFFCURVE",
"142 -649 CURVE SMOOTH",
"151 -649 OFFCURVE",
"158 -642 OFFCURVE",
"158 -633 CURVE SMOOTH",
"158 -131 LINE"
);
}
);
width = 282;
}
);
note = uniE959;
unicode = E959;
},
{
glyphname = uniE954;
lastChange = "2019-03-26 11:39:41 +0000";
layers = (
{
hints = (
{
horizontal = 1;
place = "{-141, 790}";
type = Stem;
},
{
place = "{126, 32}";
type = Stem;
}
);
layerId = "02376AAC-77FF-49DA-9399-294AF7A35492";
paths = (
{
closed = 1;
nodes = (
"158 131 LINE",
"158 633 LINE SMOOTH",
"158 642 OFFCURVE",
"151 649 OFFCURVE",
"142 649 CURVE SMOOTH",
"134 649 OFFCURVE",
"126 642 OFFCURVE",
"126 633 CURVE SMOOTH",
"126 132 LINE",
"5 11 LINE SMOOTH",
"2 8 OFFCURVE",
"0 4 OFFCURVE",
"0 0 CURVE SMOOTH",
"0 -4 OFFCURVE",
"2 -8 OFFCURVE",
"5 -11 CURVE SMOOTH",
"130 -136 LINE SMOOTH",
"133 -139 OFFCURVE",
"137 -141 OFFCURVE",
"141 -141 CURVE SMOOTH",
"146 -141 OFFCURVE",
"150 -139 OFFCURVE",
"153 -136 CURVE SMOOTH",
"278 -11 LINE SMOOTH",
"281 -8 OFFCURVE",
"282 -4 OFFCURVE",
"282 0 CURVE SMOOTH",
"282 4 OFFCURVE",
"281 8 OFFCURVE",
"278 11 CURVE SMOOTH"
);
}
);
width = 282;
}
);
note = uniE954;
unicode = E954;
},
{
glyphname = uniE9F2;
lastChange = "2019-03-26 13:42:54 +0000";
layers = (
{
hints = (
{
horizontal = 1;
place = "{-250, 500}";
type = Stem;
},
{
place = "{0, 48}";
type = Stem;
}
);
layerId = "02376AAC-77FF-49DA-9399-294AF7A35492";
paths = (
{
closed = 1;
nodes = (
"48 234 LINE SMOOTH",
"48 243 OFFCURVE",
"41 250 OFFCURVE",
"32 250 CURVE SMOOTH",
"16 250 LINE SMOOTH",
"7 250 OFFCURVE",
"0 243 OFFCURVE",
"0 234 CURVE SMOOTH",
"0 -234 LINE SMOOTH",
"0 -243 OFFCURVE",
"7 -250 OFFCURVE",
"16 -250 CURVE SMOOTH",
"32 -250 LINE SMOOTH",
"41 -250 OFFCURVE",
"48 -243 OFFCURVE",
"48 -234 CURVE SMOOTH"
);
}
);
width = 48;
}
);
note = uniE9F2;
unicode = E9F2;
},
{
glyphname = uniE9F1;
lastChange = "2019-03-26 13:44:41 +0000";
layers = (
{
hints = (
{
horizontal = 1;
place = "{-500, 1000}";
type = Stem;
},
{
place = "{0, 48}";
type = Stem;
}
);
layerId = "02376AAC-77FF-49DA-9399-294AF7A35492";
paths = (
{
closed = 1;
nodes = (
"48 484 LINE SMOOTH",
"48 493 OFFCURVE",
"41 500 OFFCURVE",
"32 500 CURVE SMOOTH",
"16 500 LINE SMOOTH",
"7 500 OFFCURVE",
"0 493 OFFCURVE",
"0 484 CURVE SMOOTH",
"0 -484 LINE SMOOTH",
"0 -493 OFFCURVE",
"7 -500 OFFCURVE",
"16 -500 CURVE SMOOTH",
"32 -500 LINE SMOOTH",
"41 -500 OFFCURVE",
"48 -493 OFFCURVE",
"48 -484 CURVE SMOOTH"
);
}
);
width = 48;
}
);
note = uniE9F1;
unicode = E9F1;
},
{
glyphname = uniE9F3;
lastChange = "2019-03-26 13:45:29 +0000";
layers = (
{
hints = (
{
horizontal = 1;
place = "{0, 21}";
target = up;
type = BottomGhost;
},
{
place = "{0, 48}";
type = Stem;
}
);
layerId = "02376AAC-77FF-49DA-9399-294AF7A35492";
paths = (
{
closed = 1;
nodes = (
"48 234 LINE SMOOTH",
"48 243 OFFCURVE",
"41 250 OFFCURVE",
"32 250 CURVE SMOOTH",
"16 250 LINE SMOOTH",
"7 250 OFFCURVE",
"0 243 OFFCURVE",
"0 234 CURVE SMOOTH",
"0 16 LINE SMOOTH",
"0 7 OFFCURVE",
"7 0 OFFCURVE",
"16 0 CURVE SMOOTH",
"32 0 LINE SMOOTH",
"41 0 OFFCURVE",
"48 7 OFFCURVE",
"48 16 CURVE SMOOTH"
);
}
);
width = 48;
}
);
note = uniE9F3;
unicode = E9F3;
},
{
glyphname = uniE9F4;
lastChange = "2019-03-26 13:47:32 +0000";
layers = (
{
hints = (
{
horizontal = 1;
place = "{125, 125}";
type = Stem;
},
{
place = "{0, 48}";
type = Stem;
}
);
layerId = "02376AAC-77FF-49DA-9399-294AF7A35492";
paths = (
{
closed = 1;
nodes = (
"48 234 LINE SMOOTH",
"48 243 OFFCURVE",
"41 250 OFFCURVE",
"32 250 CURVE SMOOTH",
"16 250 LINE SMOOTH",
"7 250 OFFCURVE",
"0 243 OFFCURVE",
"0 234 CURVE SMOOTH",
"0 141 LINE SMOOTH",
"0 132 OFFCURVE",
"7 125 OFFCURVE",
"16 125 CURVE SMOOTH",
"32 125 LINE SMOOTH",
"41 125 OFFCURVE",
"48 132 OFFCURVE",
"48 141 CURVE SMOOTH"
);
}
);
width = 48;
}
);
note = uniE9F4;
unicode = E9F4;
},
{
glyphname = uniE9F5;
lastChange = "2019-03-26 13:49:52 +0000";
layers = (
{
hints = (
{
horizontal = 1;
place = "{0, 21}";
target = up;
type = BottomGhost;
},
{
place = "{0, 48}";
type = Stem;
}
);
layerId = "02376AAC-77FF-49DA-9399-294AF7A35492";
paths = (
{
closed = 1;
nodes = (
"48 109 LINE SMOOTH",
"48 118 OFFCURVE",
"41 125 OFFCURVE",
"32 125 CURVE SMOOTH",
"16 125 LINE SMOOTH",
"7 125 OFFCURVE",
"0 118 OFFCURVE",
"0 109 CURVE SMOOTH",
"0 16 LINE SMOOTH",
"0 7 OFFCURVE",
"7 0 OFFCURVE",
"16 0 CURVE SMOOTH",
"32 0 LINE SMOOTH",
"41 0 OFFCURVE",
"48 7 OFFCURVE",
"48 16 CURVE SMOOTH"
);
}
);
width = 48;
}
);
note = uniE9F5;
unicode = E9F5;
},
{
glyphname = uniE9F6;
lastChange = "2019-03-26 13:51:09 +0000";
layers = (
{
hints = (
{
horizontal = 1;
place = "{0, 21}";
target = up;
type = BottomGhost;
},
{
place = "{0, 48}";
type = Stem;
}
);
layerId = "02376AAC-77FF-49DA-9399-294AF7A35492";
paths = (
{
closed = 1;
nodes = (
"39 164 LINE",
"38 165 OFFCURVE",
"36 165 OFFCURVE",
"35 165 CURVE SMOOTH",
"16 165 LINE SMOOTH",
"7 165 OFFCURVE",
"0 158 OFFCURVE",
"0 149 CURVE SMOOTH",
"0 16 LINE SMOOTH",
"0 7 OFFCURVE",
"7 0 OFFCURVE",
"16 0 CURVE SMOOTH",
"32 0 LINE SMOOTH",
"41 0 OFFCURVE",
"48 7 OFFCURVE",
"48 16 CURVE SMOOTH",
"48 111 LINE",
"112 89 LINE",
"114 88 OFFCURVE",
"115 88 OFFCURVE",
"117 88 CURVE SMOOTH",
"124 88 OFFCURVE",
"131 93 OFFCURVE",
"133 99 CURVE SMOOTH",
"138 115 LINE",
"138 116 OFFCURVE",
"139 118 OFFCURVE",
"139 119 CURVE SMOOTH",
"139 126 OFFCURVE",
"135 133 OFFCURVE",
"128 135 CURVE"
);
}
);
width = 139;
}
);
note = uniE9F6;
unicode = E9F6;
},
{
glyphname = uniE9F7;
lastChange = "2019-03-26 15:33:50 +0000";
layers = (
{
hints = (
{
horizontal = 1;
place = "{0, 21}";
target = up;
type = BottomGhost;
},
{
place = "{91, 48}";
type = Stem;
},
{
horizontal = 1;
place = "{0, 165}";
type = Stem;
}
);
layerId = "02376AAC-77FF-49DA-9399-294AF7A35492";
paths = (
{
closed = 1;
nodes = (
"4 133 OFFCURVE",
"0 126 OFFCURVE",
"0 119 CURVE SMOOTH",
"0 118 OFFCURVE",
"1 116 OFFCURVE",
"1 115 CURVE",
"6 99 LINE SMOOTH",
"8 93 OFFCURVE",
"15 88 OFFCURVE",
"22 88 CURVE SMOOTH",
"24 88 OFFCURVE",
"25 88 OFFCURVE",
"27 89 CURVE",
"91 111 LINE",
"91 16 LINE SMOOTH",
"91 7 OFFCURVE",
"98 0 OFFCURVE",
"107 0 CURVE SMOOTH",
"123 0 LINE SMOOTH",
"132 0 OFFCURVE",
"139 7 OFFCURVE",
"139 16 CURVE SMOOTH",
"139 149 LINE SMOOTH",
"139 158 OFFCURVE",
"132 165 OFFCURVE",
"123 165 CURVE SMOOTH",
"104 165 LINE SMOOTH",
"103 165 OFFCURVE",
"101 165 OFFCURVE",
"100 164 CURVE",
"11 135 LINE"
);
}
);
width = 139;
}
);
note = uniE9F7;
unicode = E9F7;
},
{
glyphname = uniE9F8;
lastChange = "2019-03-26 15:35:22 +0000";
layers = (
{
hints = (
{
horizontal = 1;
place = "{0, 21}";
target = up;
type = BottomGhost;
},
{
place = "{90, 48}";
type = Stem;
}
);
layerId = "02376AAC-77FF-49DA-9399-294AF7A35492";
paths = (
{
closed = 1;
nodes = (
"106 165 LINE SMOOTH",
"101 165 OFFCURVE",
"100 165 OFFCURVE",
"99 164 CURVE",
"11 135 LINE",
"4 133 OFFCURVE",
"0 126 OFFCURVE",
"0 120 CURVE SMOOTH",
"0 118 OFFCURVE",
"0 117 OFFCURVE",
"1 115 CURVE",
"6 99 LINE SMOOTH",
"8 93 OFFCURVE",
"14 88 OFFCURVE",
"21 88 CURVE SMOOTH",
"23 88 OFFCURVE",
"24 88 OFFCURVE",
"26 89 CURVE",
"90 111 LINE",
"90 85 LINE",
"11 59 LINE",
"4 57 OFFCURVE",
"0 50 OFFCURVE",
"0 44 CURVE SMOOTH",
"0 42 OFFCURVE",
"0 41 OFFCURVE",
"1 39 CURVE",
"6 23 LINE SMOOTH",
"8 17 OFFCURVE",
"14 12 OFFCURVE",
"21 12 CURVE SMOOTH",
"23 12 OFFCURVE",
"24 12 OFFCURVE",
"26 13 CURVE",
"90 35 LINE",
"90 16 LINE SMOOTH",
"90 7 OFFCURVE",
"98 0 OFFCURVE",
"106 0 CURVE SMOOTH",
"122 0 LINE SMOOTH",
"131 0 OFFCURVE",
"138 7 OFFCURVE",
"138 16 CURVE SMOOTH",
"138 149 LINE SMOOTH",
"138 158 OFFCURVE",
"131 165 OFFCURVE",
"122 165 CURVE SMOOTH"
);
}
);
width = 138;
}
);
note = uniE9F8;
unicode = E9F8;
},
{
glyphname = uniF0A1;
lastChange = "2018-05-24 16:31:10 +0000";
layers = (
{
layerId = "02376AAC-77FF-49DA-9399-294AF7A35492";
paths = (
{
closed = 1;
nodes = (
"0 178 LINE",
"0 502 LINE",
"404 502 LINE",
"404 178 LINE"
);
},
{
closed = 1;
nodes = (
"404 -144 LINE",
"404 178 LINE",
"808 178 LINE",
"808 -144 LINE"
);
},
{
closed = 0;
nodes = (
"0 178 LINE",
"0 -616 LINE"
);
},
{
closed = 1;
nodes = (
"156 -306 LINE",
"156 -393 LINE",
"202 -393 LINE",
"202 -408 LINE",
"141 -408 LINE",
"141 -306 LINE"
);
},
{
closed = 1;
nodes = (
"229 -319 OFFCURVE",
"229 -319 OFFCURVE",
"223 -319 CURVE",
"215 -319 OFFCURVE",
"215 -319 OFFCURVE",
"215 -313 CURVE",
"215 -306 OFFCURVE",
"215 -306 OFFCURVE",
"223 -306 CURVE",
"229 -306 OFFCURVE",
"229 -306 OFFCURVE",
"229 -313 CURVE"
);
},
{
closed = 1;
nodes = (
"215 -334 LINE",
"229 -334 LINE",
"229 -408 LINE",
"215 -408 LINE"
);
},
{
closed = 1;
nodes = (
"309 -340 OFFCURVE",
"309 -346 OFFCURVE",
"309 -353 CURVE",
"309 -393 LINE",
"309 -414 OFFCURVE",
"309 -420 OFFCURVE",
"303 -426 CURVE",
"297 -435 OFFCURVE",
"282 -441 OFFCURVE",
"276 -441 CURVE",
"269 -441 OFFCURVE",
"257 -435 OFFCURVE",
"248 -435 CURVE",
"257 -420 LINE",
"257 -426 OFFCURVE",
"269 -426 OFFCURVE",
"276 -426 CURVE",
"290 -426 OFFCURVE",
"297 -420 OFFCURVE",
"297 -401 CURVE",
"297 -393 LINE",
"297 -393 LINE",
"297 -401 OFFCURVE",
"290 -408 OFFCURVE",
"276 -408 CURVE",
"257 -408 OFFCURVE",
"242 -393 OFFCURVE",
"242 -374 CURVE",
"242 -346 OFFCURVE",
"263 -334 OFFCURVE",
"276 -334 CURVE",
"290 -334 OFFCURVE",
"297 -340 OFFCURVE",
"303 -346 CURVE",
"303 -346 LINE",
"303 -334 LINE",
"316 -334 LINE"
);
},
{
closed = 1;
nodes = (
"297 -359 OFFCURVE",
"297 -359 OFFCURVE",
"297 -353 CURVE",
"297 -346 OFFCURVE",
"290 -340 OFFCURVE",
"282 -340 CURVE",
"269 -340 OFFCURVE",
"257 -353 OFFCURVE",
"257 -368 CURVE",
"257 -386 OFFCURVE",
"263 -393 OFFCURVE",
"282 -393 CURVE",
"290 -393 OFFCURVE",
"297 -393 OFFCURVE",
"297 -380 CURVE",
"297 -380 OFFCURVE",
"297 -380 OFFCURVE",
"297 -374 CURVE",
"297 -359 LINE"
);
},
{
closed = 1;
nodes = (
"377 -401 LINE",
"377 -401 LINE",
"370 -401 OFFCURVE",
"364 -408 OFFCURVE",
"349 -408 CURVE",
"337 -408 OFFCURVE",
"330 -401 OFFCURVE",
"330 -386 CURVE",
"330 -368 OFFCURVE",
"343 -359 OFFCURVE",
"370 -359 CURVE",
"370 -359 LINE",
"370 -353 OFFCURVE",
"370 -340 OFFCURVE",
"358 -340 CURVE",
"349 -340 OFFCURVE",
"343 -346 OFFCURVE",
"337 -346 CURVE",
"337 -340 LINE",
"343 -334 OFFCURVE",
"349 -334 OFFCURVE",
"358 -334 CURVE",
"383 -334 OFFCURVE",
"383 -346 OFFCURVE",
"383 -359 CURVE",
"383 -386 LINE",
"383 -393 OFFCURVE",
"383 -401 OFFCURVE",
"389 -408 CURVE",
"377 -408 LINE"
);
},
{
closed = 1;
nodes = (
"358 -368 OFFCURVE",
"343 -374 OFFCURVE",
"343 -386 CURVE",
"343 -393 OFFCURVE",
"349 -401 OFFCURVE",
"358 -401 CURVE",
"364 -401 OFFCURVE",
"370 -393 OFFCURVE",
"370 -386 CURVE",
"370 -386 OFFCURVE",
"377 -380 OFFCURVE",
"377 -380 CURVE",
"377 -368 LINE"
);
},
{
closed = 1;
nodes = (
"423 -334 LINE",
"444 -334 LINE",
"444 -340 LINE",
"423 -340 LINE",
"423 -380 LINE",
"423 -393 OFFCURVE",
"423 -401 OFFCURVE",
"431 -401 CURVE",
"438 -401 OFFCURVE",
"438 -393 OFFCURVE",
"444 -393 CURVE",
"444 -408 LINE",
"438 -408 OFFCURVE",
"438 -408 OFFCURVE",
"431 -408 CURVE",
"423 -408 OFFCURVE",
"417 -408 OFFCURVE",
"417 -401 CURVE",
"410 -401 OFFCURVE",
"410 -393 OFFCURVE",
"410 -380 CURVE",
"410 -340 LINE",
"398 -340 LINE",
"398 -334 LINE",
"410 -334 LINE",
"410 -313 LINE",
"423 -313 LINE"
);
},
{
closed = 1;
nodes = (
"518 -393 OFFCURVE",
"518 -401 OFFCURVE",
"518 -408 CURVE",
"511 -408 LINE",
"505 -393 LINE",
"505 -393 LINE",
"505 -401 OFFCURVE",
"499 -408 OFFCURVE",
"484 -408 CURVE",
"471 -408 OFFCURVE",
"457 -401 OFFCURVE",
"457 -374 CURVE",
"457 -334 LINE",
"471 -334 LINE",
"471 -374 LINE",
"471 -386 OFFCURVE",
"478 -401 OFFCURVE",
"484 -401 CURVE",
"499 -401 OFFCURVE",
"505 -393 OFFCURVE",
"505 -386 CURVE",
"505 -380 OFFCURVE",
"505 -380 OFFCURVE",
"505 -380 CURVE",
"505 -334 LINE",
"518 -334 LINE",
"518 -386 LINE"
);
},
{
closed = 1;
nodes = (
"545 -346 OFFCURVE",
"545 -340 OFFCURVE",
"539 -334 CURVE",
"551 -334 LINE",
"551 -346 LINE",
"551 -346 LINE",
"558 -340 OFFCURVE",
"566 -334 OFFCURVE",
"573 -334 CURVE",
"579 -334 OFFCURVE",
"579 -334 OFFCURVE",
"579 -334 CURVE",
"579 -346 LINE",
"579 -346 OFFCURVE",
"579 -346 OFFCURVE",
"573 -346 CURVE",
"566 -346 OFFCURVE",
"558 -353 OFFCURVE",
"558 -359 CURVE",
"558 -359 OFFCURVE",
"558 -368 OFFCURVE",
"558 -368 CURVE",
"558 -408 LINE",
"545 -408 LINE",
"545 -353 LINE"
);
},
{
closed = 1;
nodes = (
"600 -393 OFFCURVE",
"613 -401 OFFCURVE",
"625 -401 CURVE",
"634 -401 OFFCURVE",
"640 -393 OFFCURVE",
"646 -393 CURVE",
"646 -401 LINE",
"640 -408 OFFCURVE",
"634 -408 OFFCURVE",
"619 -408 CURVE",
"600 -408 OFFCURVE",
"585 -393 OFFCURVE",
"585 -374 CURVE",
"585 -346 OFFCURVE",
"600 -334 OFFCURVE",
"619 -334 CURVE",
"646 -334 OFFCURVE",
"653 -353 OFFCURVE",
"653 -368 CURVE",
"653 -368 OFFCURVE",
"653 -374 OFFCURVE",
"653 -374 CURVE",
"600 -374 LINE"
);
},
{
closed = 1;
nodes = (
"640 -353 OFFCURVE",
"634 -340 OFFCURVE",
"619 -340 CURVE",
"606 -340 OFFCURVE",
"600 -353 OFFCURVE",
"600 -359 CURVE",
"640 -359 LINE"
);
},
{
closed = 1;
nodes = (
"2 -619 LINE",
"33 -619 LINE",
"33 181 LINE",
"2 181 LINE"
);
}
);
width = 808;
}
);
unicode = F0A1;
},
{
glyphname = uniE9E5;
lastChange = "2019-03-26 15:58:09 +0000";
layers = (
{
hints = (
{
horizontal = 1;
place = "{-338, 676}";
type = Stem;
},
{
place = "{0, 37}";
type = Stem;
},
{
place = "{131, 37}";
type = Stem;
}
);
layerId = "02376AAC-77FF-49DA-9399-294AF7A35492";
paths = (
{
closed = 1;
nodes = (
"76 -59 LINE",
"77 -57 OFFCURVE",
"78 -55 OFFCURVE",
"78 -53 CURVE SMOOTH",
"78 -51 OFFCURVE",
"77 -49 OFFCURVE",
"76 -47 CURVE",
"65 -36 LINE",
"63 -35 OFFCURVE",
"61 -34 OFFCURVE",
"59 -34 CURVE SMOOTH",
"57 -34 OFFCURVE",
"55 -35 OFFCURVE",
"54 -36 CURVE SMOOTH",
"37 -52 LINE",
"37 56 LINE SMOOTH",
"37 57 OFFCURVE",
"45 50 OFFCURVE",
"54 42 CURVE",
"54 42 OFFCURVE",
"58 41 OFFCURVE",
"61 41 CURVE SMOOTH",
"63 41 OFFCURVE",
"64 41 OFFCURVE",
"65 42 CURVE SMOOTH",
"76 53 LINE SMOOTH",
"77 54 OFFCURVE",
"78 56 OFFCURVE",
"78 58 CURVE SMOOTH",
"78 60 OFFCURVE",
"77 62 OFFCURVE",
"76 64 CURVE",
"63 78 LINE",
"82 88 OFFCURVE",
"109 96 OFFCURVE",
"122 96 CURVE SMOOTH",
"127 96 LINE",
"95 64 LINE SMOOTH",
"93 62 OFFCURVE",
"93 60 OFFCURVE",
"93 58 CURVE SMOOTH",
"93 56 OFFCURVE",
"93 54 OFFCURVE",
"95 53 CURVE",
"106 42 LINE",
"107 40 OFFCURVE",
"109 40 OFFCURVE",
"111 40 CURVE SMOOTH",
"113 40 OFFCURVE",
"115 40 OFFCURVE",
"117 42 CURVE SMOOTH",
"131 56 LINE",
"131 -50 LINE",
"117 -36 LINE",
"115 -35 OFFCURVE",
"113 -34 OFFCURVE",
"111 -34 CURVE SMOOTH",
"109 -34 OFFCURVE",
"107 -35 OFFCURVE",
"106 -36 CURVE SMOOTH",
"95 -47 LINE SMOOTH",
"93 -49 OFFCURVE",
"93 -51 OFFCURVE",
"93 -53 CURVE SMOOTH",
"93 -55 OFFCURVE",
"93 -57 OFFCURVE",
"95 -59 CURVE SMOOTH",
"110 -74 LINE",
"91 -84 OFFCURVE",
"64 -93 OFFCURVE",
"49 -93 CURVE SMOOTH",
"47 -93 OFFCURVE",
"45 -92 OFFCURVE",
"43 -92 CURVE"
);
},
{
closed = 1;
nodes = (
"141 178 LINE",
"139 178 OFFCURVE",
"138 177 OFFCURVE",
"137 177 CURVE SMOOTH",
"137 177 OFFCURVE",
"73 154 OFFCURVE",
"47 154 CURVE SMOOTH",
"41 154 OFFCURVE",
"37 155 OFFCURVE",
"37 159 CURVE SMOOTH",
"37 326 LINE SMOOTH",
"37 333 OFFCURVE",
"31 338 OFFCURVE",
"25 338 CURVE SMOOTH",
"12 338 LINE SMOOTH",
"5 338 OFFCURVE",
"0 333 OFFCURVE",
"0 326 CURVE SMOOTH",
"0 -189 LINE SMOOTH",
"0 -195 OFFCURVE",
"3 -198 OFFCURVE",
"8 -198 CURVE SMOOTH",
"9 -198 OFFCURVE",
"11 -197 OFFCURVE",
"12 -197 CURVE",
"12 -197 OFFCURVE",
"14 -197 OFFCURVE",
"15 -196 CURVE",
"29 -190 OFFCURVE",
"85 -166 OFFCURVE",
"114 -166 CURVE SMOOTH",
"124 -166 OFFCURVE",
"131 -169 OFFCURVE",
"131 -177 CURVE SMOOTH",
"131 -326 LINE SMOOTH",
"131 -333 OFFCURVE",
"136 -338 OFFCURVE",
"143 -338 CURVE SMOOTH",
"156 -338 LINE SMOOTH",
"162 -338 OFFCURVE",
"168 -333 OFFCURVE",
"168 -326 CURVE SMOOTH",
"168 176 LINE SMOOTH",
"168 181 OFFCURVE",
"164 184 OFFCURVE",
"160 184 CURVE SMOOTH",
"159 184 OFFCURVE",
"157 184 OFFCURVE",
"156 183 CURVE"
);
}
);
width = 168;
}
);
note = uniE9E5;
unicode = E9E5;
},
{
glyphname = uniE262;
lastChange = "2019-10-03 12:15:39 +0000";
layers = (
{
layerId = "02376AAC-77FF-49DA-9399-294AF7A35492";
paths = (
{
closed = 1;
nodes = (
"289 0 LINE",
"424 113 LINE",
"427 116 OFFCURVE",
"430 121 OFFCURVE",
"430 126 CURVE SMOOTH",
"430 129 OFFCURVE",
"429 133 OFFCURVE",
"426 136 CURVE",
"424 140 OFFCURVE",
"419 142 OFFCURVE",
"415 142 CURVE SMOOTH",
"412 142 OFFCURVE",
"409 141 OFFCURVE",
"407 139 CURVE",
"264 20 LINE",
"239 42 LINE",
"324 113 LINE",
"327 116 OFFCURVE",
"330 121 OFFCURVE",
"330 126 CURVE SMOOTH",
"330 129 OFFCURVE",
"329 133 OFFCURVE",
"326 136 CURVE",
"324 140 OFFCURVE",
"319 142 OFFCURVE",
"315 142 CURVE SMOOTH",
"312 142 OFFCURVE",
"309 141 OFFCURVE",
"307 139 CURVE",
"215 62 LINE",
"123 139 LINE",
"120 141 OFFCURVE",
"117 142 OFFCURVE",
"114 142 CURVE SMOOTH",
"110 142 OFFCURVE",
"106 140 OFFCURVE",
"103 136 CURVE",
"101 133 OFFCURVE",
"100 130 OFFCURVE",
"100 127 CURVE SMOOTH",
"100 122 OFFCURVE",
"102 117 OFFCURVE",
"106 113 CURVE",
"191 43 LINE",
"164 20 LINE",
"23 139 LINE",
"20 141 OFFCURVE",
"17 142 OFFCURVE",
"14 142 CURVE SMOOTH",
"10 142 OFFCURVE",
"6 140 OFFCURVE",
"3 136 CURVE",
"1 133 OFFCURVE",
"0 130 OFFCURVE",
"0 127 CURVE SMOOTH",
"0 122 OFFCURVE",
"2 117 OFFCURVE",
"6 113 CURVE",
"141 0 LINE",
"6 -113 LINE",
"2 -117 OFFCURVE",
"0 -122 OFFCURVE",
"0 -127 CURVE SMOOTH",
"0 -130 OFFCURVE",
"1 -133 OFFCURVE",
"3 -136 CURVE",
"6 -140 OFFCURVE",
"11 -142 OFFCURVE",
"15 -142 CURVE SMOOTH",
"18 -142 OFFCURVE",
"21 -141 OFFCURVE",
"23 -139 CURVE",
"164 -20 LINE",
"191 -42 LINE",
"106 -113 LINE",
"102 -117 OFFCURVE",
"100 -122 OFFCURVE",
"100 -127 CURVE SMOOTH",
"100 -130 OFFCURVE",
"101 -133 OFFCURVE",
"103 -136 CURVE",
"106 -140 OFFCURVE",
"111 -142 OFFCURVE",
"115 -142 CURVE SMOOTH",
"118 -142 OFFCURVE",
"121 -141 OFFCURVE",
"123 -139 CURVE",
"215 -61 LINE",
"307 -139 LINE",
"309 -141 OFFCURVE",
"312 -142 OFFCURVE",
"315 -142 CURVE SMOOTH",
"319 -142 OFFCURVE",
"324 -140 OFFCURVE",
"326 -136 CURVE",
"329 -133 OFFCURVE",
"330 -129 OFFCURVE",
"330 -126 CURVE SMOOTH",
"330 -121 OFFCURVE",
"327 -116 OFFCURVE",
"324 -113 CURVE",
"239 -41 LINE",
"264 -20 LINE",
"407 -139 LINE",
"409 -141 OFFCURVE",
"412 -142 OFFCURVE",
"415 -142 CURVE SMOOTH",
"419 -142 OFFCURVE",
"424 -140 OFFCURVE",
"426 -136 CURVE",
"429 -133 OFFCURVE",
"430 -129 OFFCURVE",
"430 -126 CURVE SMOOTH",
"430 -121 OFFCURVE",
"427 -116 OFFCURVE",
"424 -113 CURVE"
);
},
{
closed = 1;
nodes = (
"215 -21 LINE",
"189 0 LINE",
"215 22 LINE",
"241 0 LINE"
);
}
);
width = 430;
}
);
note = uniE262;
unicode = E262;
},
{
glyphname = uniE030;
lastChange = "2018-06-11 07:16:04 +0000";
layers = (
{
layerId = "02376AAC-77FF-49DA-9399-294AF7A35492";
paths = (
{
closed = 1;
nodes = (
"2 986 OFFCURVE",
"1 986 OFFCURVE",
"1 986 CURVE SMOOTH",
"-2 986 OFFCURVE",
"3 -27 OFFCURVE",
"5 -27 CURVE SMOOTH",
"7 -27 OFFCURVE",
"60 20 OFFCURVE",
"60 21 CURVE SMOOTH",
"60 24 OFFCURVE",
"57 1014 OFFCURVE",
"57 1020 CURVE"
);
}
);
width = 60;
}
);
unicode = E030;
},
{
glyphname = uniE043;
lastChange = "2018-05-24 12:09:50 +0000";
layers = (
{
layerId = "02376AAC-77FF-49DA-9399-294AF7A35492";
paths = (
{
closed = 1;
nodes = (
"91 -98 OFFCURVE",
"71 -77 OFFCURVE",
"46 -77 CURVE SMOOTH",
"20 -77 OFFCURVE",
"0 -98 OFFCURVE",
"0 -123 CURVE SMOOTH",
"0 -148 OFFCURVE",
"20 -169 OFFCURVE",
"46 -169 CURVE SMOOTH",
"71 -169 OFFCURVE",
"91 -148 OFFCURVE",
"91 -123 CURVE SMOOTH"
);
},
{
closed = 1;
nodes = (
"91 118 OFFCURVE",
"71 139 OFFCURVE",
"46 139 CURVE SMOOTH",
"20 139 OFFCURVE",
"0 118 OFFCURVE",
"0 93 CURVE SMOOTH",
"0 68 OFFCURVE",
"20 47 OFFCURVE",
"46 47 CURVE SMOOTH",
"71 47 OFFCURVE",
"91 68 OFFCURVE",
"91 93 CURVE SMOOTH"
);
}
);
width = 91;
}
);
unicode = E043;
},
{
glyphname = uniEA02;
lastChange = "2019-03-26 17:29:26 +0000";
layers = (
{
hints = (
{
horizontal = 1;
place = "{1, 21}";
target = up;
type = BottomGhost;
},
{
place = "{1, 613}";
type = Stem;
},
{
horizontal = 1;
place = "{0, 21}";
target = up;
type = BottomGhost;
}
);
layerId = "02376AAC-77FF-49DA-9399-294AF7A35492";
paths = (
{
closed = 1;
nodes = (
"10 75 LINE SMOOTH",
"6 69 OFFCURVE",
"1 59 OFFCURVE",
"1 52 CURVE SMOOTH",
"1 46 OFFCURVE",
"4 42 OFFCURVE",
"15 42 CURVE SMOOTH",
"26 42 OFFCURVE",
"37 56 OFFCURVE",
"45 66 CURVE SMOOTH",
"54 78 OFFCURVE",
"63 90 OFFCURVE",
"73 101 CURVE SMOOTH",
"80 109 OFFCURVE",
"85 114 OFFCURVE",
"89 114 CURVE SMOOTH",
"93 114 OFFCURVE",
"96 110 OFFCURVE",
"100 102 CURVE",
"164 8 LINE",
"167 3 OFFCURVE",
"172 1 OFFCURVE",
"178 1 CURVE SMOOTH",
"183 1 OFFCURVE",
"189 3 OFFCURVE",
"192 6 CURVE",
"197 13 OFFCURVE",
"259 96 OFFCURVE",
"266 104 CURVE",
"270 108 OFFCURVE",
"273 110 OFFCURVE",
"275 110 CURVE SMOOTH",
"278 110 OFFCURVE",
"280 107 OFFCURVE",
"283 102 CURVE",
"288 96 OFFCURVE",
"339 16 OFFCURVE",
"349 6 CURVE SMOOTH",
"354 1 OFFCURVE",
"359 0 OFFCURVE",
"365 0 CURVE SMOOTH",
"372 0 OFFCURVE",
"378 2 OFFCURVE",
"381 6 CURVE",
"388 14 OFFCURVE",
"601 367 OFFCURVE",
"611 382 CURVE SMOOTH",
"613 385 OFFCURVE",
"614 389 OFFCURVE",
"614 392 CURVE SMOOTH",
"614 396 OFFCURVE",
"613 399 OFFCURVE",
"610 402 CURVE SMOOTH",
"606 406 OFFCURVE",
"600 411 OFFCURVE",
"594 411 CURVE SMOOTH",
"593 411 OFFCURVE",
"581 405 OFFCURVE",
"576 400 CURVE",
"568 390 OFFCURVE",
"425 148 OFFCURVE",
"413 133 CURVE",
"410 130 OFFCURVE",
"409 130 OFFCURVE",
"409 129 CURVE",
"404 122 OFFCURVE",
"401 119 OFFCURVE",
"399 119 CURVE SMOOTH",
"398 119 OFFCURVE",
"397 121 OFFCURVE",
"396 123 CURVE",
"390 132 LINE SMOOTH",
"384 141 OFFCURVE",
"342 230 OFFCURVE",
"332 241 CURVE",
"327 246 OFFCURVE",
"323 248 OFFCURVE",
"318 248 CURVE SMOOTH",
"313 248 OFFCURVE",
"308 246 OFFCURVE",
"304 241 CURVE",
"296 232 OFFCURVE",
"246 145 OFFCURVE",
"237 134 CURVE",
"232 127 OFFCURVE",
"227 124 OFFCURVE",
"223 124 CURVE SMOOTH",
"218 124 OFFCURVE",
"214 129 OFFCURVE",
"211 134 CURVE",
"205 142 OFFCURVE",
"154 225 OFFCURVE",
"149 234 CURVE",
"149 244 OFFCURVE",
"135 247 OFFCURVE",
"128 248 CURVE",
"123 248 OFFCURVE",
"120 246 OFFCURVE",
"115 239 CURVE",
"108 232 OFFCURVE",
"103 222 OFFCURVE",
"98 214 CURVE SMOOTH",
"77 182 OFFCURVE",
"57 150 OFFCURVE",
"37 118 CURVE SMOOTH"
);
}
);
width = 615;
}
);
note = uniEA02;
unicode = EA02;
},
{
glyphname = uniE1FC;
lastChange = "2019-03-28 08:51:48 +0000";
layers = (
{
hints = (
{
horizontal = 1;
place = "{-50, 100}";
type = Stem;
},
{
place = "{0, 100}";
type = Stem;
}
);
layerId = "02376AAC-77FF-49DA-9399-294AF7A35492";
paths = (
{
closed = 1;
nodes = (
"100 28 OFFCURVE",
"78 50 OFFCURVE",
"50 50 CURVE SMOOTH",
"22 50 OFFCURVE",
"0 28 OFFCURVE",
"0 0 CURVE SMOOTH",
"0 -28 OFFCURVE",
"22 -50 OFFCURVE",
"50 -50 CURVE SMOOTH",
"78 -50 OFFCURVE",
"100 -28 OFFCURVE",
"100 0 CURVE SMOOTH"
);
}
);
width = 100;
}
);
note = uniE1E7;
unicode = E1FC;
},
{
glyphname = uniE4C0;
lastChange = "2019-03-26 17:56:53 +0000";
layers = (
{
hints = (
{
horizontal = 1;
place = "{-3, 109}";
type = Stem;
},
{
horizontal = 1;
place = "{221, 108}";
type = Stem;
},
{
place = "{249, 109}";
type = Stem;
}
);
layerId = "02376AAC-77FF-49DA-9399-294AF7A35492";
paths = (
{
closed = 1;
nodes = (
"515 221 OFFCURVE",
"558 63 OFFCURVE",
"568 25 CURVE",
"569 22 OFFCURVE",
"569 19 OFFCURVE",
"570 18 CURVE",
"577 4 OFFCURVE",
"581 -3 OFFCURVE",
"591 -3 CURVE SMOOTH",
"600 -3 OFFCURVE",
"605 1 OFFCURVE",
"605 11 CURVE SMOOTH",
"605 14 OFFCURVE",
"605 17 OFFCURVE",
"604 21 CURVE",
"542 327 OFFCURVE",
"333 329 OFFCURVE",
"304 329 CURVE SMOOTH",
"272 329 OFFCURVE",
"65 327 OFFCURVE",
"4 21 CURVE",
"3 17 OFFCURVE",
"3 13 OFFCURVE",
"3 10 CURVE SMOOTH",
"3 0 OFFCURVE",
"8 -3 OFFCURVE",
"16 -3 CURVE SMOOTH",
"25 -3 OFFCURVE",
"30 4 OFFCURVE",
"36 18 CURVE",
"37 19 OFFCURVE",
"38 23 OFFCURVE",
"39 27 CURVE",
"51 68 OFFCURVE",
"96 221 OFFCURVE",
"302 221 CURVE SMOOTH"
);
},
{
closed = 1;
nodes = (
"358 81 OFFCURVE",
"333 106 OFFCURVE",
"303 106 CURVE SMOOTH",
"274 106 OFFCURVE",
"249 81 OFFCURVE",
"249 52 CURVE SMOOTH",
"249 22 OFFCURVE",
"274 -3 OFFCURVE",
"303 -3 CURVE SMOOTH",
"333 -3 OFFCURVE",
"358 22 OFFCURVE",
"358 52 CURVE SMOOTH"
);
}
);
width = 605;
}
);
note = uniE4C0;
unicode = E4C0;
},
{
glyphname = uniE4C1;
lastChange = "2019-03-26 17:56:53 +0000";
layers = (
{
hints = (
{
horizontal = 1;
place = "{-332, 108}";
type = Stem;
},
{
horizontal = 1;
place = "{-109, 109}";
type = Stem;
},
{
place = "{249, 109}";
type = Stem;
}
);
layerId = "02376AAC-77FF-49DA-9399-294AF7A35492";
paths = (
{
closed = 1;
nodes = (
"96 -224 OFFCURVE",
"51 -71 OFFCURVE",
"39 -30 CURVE",
"38 -26 OFFCURVE",
"37 -22 OFFCURVE",
"36 -21 CURVE",
"30 -7 OFFCURVE",
"25 0 OFFCURVE",
"16 0 CURVE SMOOTH",
"8 0 OFFCURVE",
"3 -3 OFFCURVE",
"3 -13 CURVE SMOOTH",
"3 -16 OFFCURVE",
"3 -20 OFFCURVE",
"4 -24 CURVE",
"65 -330 OFFCURVE",
"272 -332 OFFCURVE",
"304 -332 CURVE SMOOTH",
"333 -332 OFFCURVE",
"542 -330 OFFCURVE",
"604 -24 CURVE",
"605 -20 OFFCURVE",
"605 -17 OFFCURVE",
"605 -14 CURVE SMOOTH",
"605 -4 OFFCURVE",
"600 0 OFFCURVE",
"591 0 CURVE SMOOTH",
"581 0 OFFCURVE",
"577 -7 OFFCURVE",
"570 -21 CURVE",
"569 -22 OFFCURVE",
"569 -25 OFFCURVE",
"568 -28 CURVE",
"558 -66 OFFCURVE",
"515 -224 OFFCURVE",
"302 -224 CURVE SMOOTH"
);
},
{
closed = 1;
nodes = (
"358 -25 OFFCURVE",
"333 0 OFFCURVE",
"303 0 CURVE SMOOTH",
"274 0 OFFCURVE",
"249 -25 OFFCURVE",
"249 -55 CURVE SMOOTH",
"249 -84 OFFCURVE",
"274 -109 OFFCURVE",
"303 -109 CURVE SMOOTH",
"333 -109 OFFCURVE",
"358 -84 OFFCURVE",
"358 -55 CURVE SMOOTH"
);
}
);
width = 605;
}
);
note = uniE4C1;
unicode = E4C1;
},
{
glyphname = uniEA00;
lastChange = "2019-03-26 18:03:18 +0000";
layers = (
{
hints = (
{
horizontal = 1;
place = "{0, 83}";
type = Stem;
},
{
horizontal = 1;
place = "{356, 115}";
type = Stem;
},
{
place = "{0, 83}";
type = Stem;
},
{
place = "{203, 82}";
type = Stem;
},
{
place = "{0, 92}";
type = Stem;
},
{
place = "{136, 78}";
type = Stem;
}
);
layerId = "02376AAC-77FF-49DA-9399-294AF7A35492";
paths = (
{
closed = 1;
nodes = (
"134 0 OFFCURVE",
"142 9 OFFCURVE",
"153 21 CURVE SMOOTH",
"176 45 OFFCURVE",
"214 99 OFFCURVE",
"214 166 CURVE SMOOTH",
"214 171 LINE",
"212 240 OFFCURVE",
"153 265 OFFCURVE",
"122 283 CURVE",
"110 283 OFFCURVE",
"92 299 OFFCURVE",
"92 312 CURVE SMOOTH",
"92 319 OFFCURVE",
"95 330 OFFCURVE",
"102 344 CURVE",
"111 364 OFFCURVE",
"121 370 OFFCURVE",
"133 370 CURVE SMOOTH",
"146 370 OFFCURVE",
"162 363 OFFCURVE",
"181 358 CURVE",
"186 357 OFFCURVE",
"190 356 OFFCURVE",
"195 356 CURVE SMOOTH",
"226 356 OFFCURVE",
"250 383 OFFCURVE",
"257 410 CURVE SMOOTH",
"258 414 OFFCURVE",
"258 419 OFFCURVE",
"258 423 CURVE SMOOTH",
"258 448 OFFCURVE",
"240 471 OFFCURVE",
"195 471 CURVE SMOOTH",
"143 471 OFFCURVE",
"103 431 OFFCURVE",
"83 417 CURVE SMOOTH",
"64 404 OFFCURVE",
"6 337 OFFCURVE",
"0 267 CURVE",
"0 260 LINE SMOOTH",
"0 198 OFFCURVE",
"62 195 OFFCURVE",
"109 156 CURVE SMOOTH",
"130 139 OFFCURVE",
"136 126 OFFCURVE",
"136 116 CURVE SMOOTH",
"136 102 OFFCURVE",
"124 92 OFFCURVE",
"116 79 CURVE SMOOTH",
"108 65 OFFCURVE",
"99 40 OFFCURVE",
"99 22 CURVE SMOOTH",
"99 9 OFFCURVE",
"104 0 OFFCURVE",
"116 0 CURVE SMOOTH"
);
},
{
closed = 1;
nodes = (
"19 83 OFFCURVE",
"0 64 OFFCURVE",
"0 41 CURVE SMOOTH",
"0 19 OFFCURVE",
"19 0 OFFCURVE",
"42 0 CURVE SMOOTH",
"64 0 OFFCURVE",
"83 19 OFFCURVE",
"83 41 CURVE SMOOTH",
"83 64 OFFCURVE",
"64 83 OFFCURVE",
"42 83 CURVE SMOOTH"
);
},
{
closed = 1;
nodes = (
"221 83 OFFCURVE",
"203 64 OFFCURVE",
"203 41 CURVE SMOOTH",
"203 19 OFFCURVE",
"221 0 OFFCURVE",
"244 0 CURVE SMOOTH",
"267 0 OFFCURVE",
"285 19 OFFCURVE",
"285 41 CURVE SMOOTH",
"285 64 OFFCURVE",
"267 83 OFFCURVE",
"244 83 CURVE SMOOTH"
);
}
);
width = 285;
}
);
note = uniEA00;
unicode = EA00;
},
{
glyphname = uniE8E4;
lastChange = "2019-03-27 08:26:45 +0000";
layers = (
{
layerId = "02376AAC-77FF-49DA-9399-294AF7A35492";
paths = (
{
closed = 1;
nodes = (
"931 498 OFFCURVE",
"914 501 OFFCURVE",
"920 522 CURVE",
"926 540 OFFCURVE",
"939 552 OFFCURVE",
"950 566 CURVE",
"363 522 OFFCURVE",
"0 5 OFFCURVE",
"0 0 CURVE",
"24 0 LINE",
"49 0 OFFCURVE",
"359 381 OFFCURVE",
"925 409 CURVE",
"925 437 OFFCURVE",
"928 466 OFFCURVE",
"942 489 CURVE"
);
}
);
width = 950;
}
);
unicode = E8E4;
},
{
glyphname = uniE8E5;
lastChange = "2019-03-27 08:26:45 +0000";
layers = (
{
layerId = "02376AAC-77FF-49DA-9399-294AF7A35492";
paths = (
{
closed = 1;
nodes = (
"14 526 OFFCURVE",
"33 528 OFFCURVE",
"26 550 CURVE",
"19 570 OFFCURVE",
"6 583 OFFCURVE",
"-6 597 CURVE",
"625 550 OFFCURVE",
"1014 4 OFFCURVE",
"1014 -1 CURVE",
"989 -1 LINE",
"962 -1 OFFCURVE",
"628 402 OFFCURVE",
"21 429 CURVE",
"21 461 OFFCURVE",
"18 491 OFFCURVE",
"2 516 CURVE"
);
}
);
width = 1020;
}
);
unicode = E8E5;
},
{
glyphname = uniF0A0;
lastChange = "2018-05-24 15:38:52 +0000";
layers = (
{
layerId = "02376AAC-77FF-49DA-9399-294AF7A35492";
paths = (
{
closed = 1;
nodes = (
"-1 233 OFFCURVE",
"-7 -68 OFFCURVE",
"7 -368 CURVE",
"7 -382 OFFCURVE",
"32 -382 OFFCURVE",
"32 -368 CURVE",
"41 -112 OFFCURVE",
"70 149 OFFCURVE",
"120 402 CURVE",
"109 402 OFFCURVE",
"104 405 OFFCURVE",
"95 405 CURVE",
"104 210 OFFCURVE",
"109 12 OFFCURVE",
"104 -184 CURVE",
"104 -193 OFFCURVE",
"113 -196 OFFCURVE",
"125 -193 CURVE",
"172 -170 OFFCURVE",
"186 -107 OFFCURVE",
"202 -63 CURVE",
"216 12 OFFCURVE",
"230 82 OFFCURVE",
"239 158 CURVE",
"265 303 OFFCURVE",
"270 454 OFFCURVE",
"258 603 CURVE",
"258 617 OFFCURVE",
"235 617 OFFCURVE",
"235 603 CURVE",
"211 321 OFFCURVE",
"207 39 OFFCURVE",
"216 -244 CURVE",
"216 -258 OFFCURVE",
"235 -261 OFFCURVE",
"239 -249 CURVE",
"298 -14 OFFCURVE",
"332 225 OFFCURVE",
"342 463 CURVE",
"342 477 OFFCURVE",
"318 477 OFFCURVE",
"318 468 CURVE",
"279 303 OFFCURVE",
"246 123 OFFCURVE",
"342 -28 CURVE",
"346 -37 OFFCURVE",
"356 -37 OFFCURVE",
"365 -28 CURVE",
"463 96 OFFCURVE",
"488 263 OFFCURVE",
"428 405 CURVE",
"425 414 OFFCURVE",
"404 419 OFFCURVE",
"404 405 CURVE",
"372 205 OFFCURVE",
"372 -2 OFFCURVE",
"404 -205 CURVE",
"404 -214 OFFCURVE",
"425 -214 OFFCURVE",
"428 -205 CURVE",
"488 -54 OFFCURVE",
"521 105 OFFCURVE",
"518 263 CURVE",
"518 277 OFFCURVE",
"498 277 OFFCURVE",
"498 268 CURVE",
"458 149 OFFCURVE",
"448 30 OFFCURVE",
"472 -89 CURVE",
"472 -98 OFFCURVE",
"491 -103 OFFCURVE",
"491 -95 CURVE",
"570 61 OFFCURVE",
"593 228 OFFCURVE",
"623 396 CURVE",
"612 396 OFFCURVE",
"604 396 OFFCURVE",
"598 396 CURVE",
"593 205 OFFCURVE",
"593 16 OFFCURVE",
"590 -174 CURVE",
"598 -174 OFFCURVE",
"604 -174 OFFCURVE",
"612 -174 CURVE",
"612 -138 OFFCURVE",
"612 -103 OFFCURVE",
"612 -72 CURVE",
"612 -54 OFFCURVE",
"590 -54 OFFCURVE",
"590 -72 CURVE",
"590 -103 OFFCURVE",
"590 -138 OFFCURVE",
"590 -174 CURVE",
"590 -188 OFFCURVE",
"612 -188 OFFCURVE",
"612 -174 CURVE",
"618 16 OFFCURVE",
"618 205 OFFCURVE",
"623 396 CURVE",
"623 410 OFFCURVE",
"598 414 OFFCURVE",
"598 402 CURVE",
"574 237 OFFCURVE",
"546 70 OFFCURVE",
"472 -81 CURVE",
"483 -86 OFFCURVE",
"488 -86 OFFCURVE",
"498 -86 CURVE",
"472 30 OFFCURVE",
"483 149 OFFCURVE",
"518 260 CURVE",
"511 263 OFFCURVE",
"502 263 OFFCURVE",
"491 263 CURVE",
"498 105 OFFCURVE",
"463 -51 OFFCURVE",
"404 -196 CURVE",
"416 -196 OFFCURVE",
"419 -196 OFFCURVE",
"428 -196 CURVE",
"395 -2 OFFCURVE",
"395 202 OFFCURVE",
"428 402 CURVE",
"419 402 OFFCURVE",
"416 402 OFFCURVE",
"404 402 CURVE",
"458 263 OFFCURVE",
"439 105 OFFCURVE",
"342 -19 CURVE",
"353 -19 OFFCURVE",
"356 -19 OFFCURVE",
"365 -19 CURVE",
"270 128 OFFCURVE",
"302 303 OFFCURVE",
"342 459 CURVE",
"332 463 OFFCURVE",
"321 463 OFFCURVE",
"318 463 CURVE",
"309 225 OFFCURVE",
"274 -10 OFFCURVE",
"216 -238 CURVE",
"221 -244 OFFCURVE",
"230 -244 OFFCURVE",
"239 -244 CURVE",
"230 39 OFFCURVE",
"235 321 OFFCURVE",
"258 603 CURVE",
"255 603 OFFCURVE",
"246 603 OFFCURVE",
"235 603 CURVE",
"246 468 OFFCURVE",
"239 326 OFFCURVE",
"221 188 CURVE",
"211 119 OFFCURVE",
"202 53 OFFCURVE",
"186 -19 CURVE",
"172 -68 OFFCURVE",
"167 -147 OFFCURVE",
"109 -174 CURVE",
"113 -174 OFFCURVE",
"120 -179 OFFCURVE",
"128 -184 CURVE",
"134 12 OFFCURVE",
"128 210 OFFCURVE",
"120 405 CURVE",
"120 414 OFFCURVE",
"100 419 OFFCURVE",
"95 410 CURVE",
"46 149 OFFCURVE",
"18 -107 OFFCURVE",
"7 -368 CURVE",
"18 -368 OFFCURVE",
"27 -368 OFFCURVE",
"32 -368 CURVE",
"18 -68 OFFCURVE",
"21 233 OFFCURVE",
"53 528 CURVE",
"56 542 OFFCURVE",
"32 542 OFFCURVE",
"27 528 CURVE"
);
},
{
closed = 1;
nodes = (
"158 402 OFFCURVE",
"249 277 OFFCURVE",
"353 158 CURVE",
"458 35 OFFCURVE",
"565 -95 OFFCURVE",
"672 -217 CURVE",
"681 -226 OFFCURVE",
"700 -214 OFFCURVE",
"691 -202 CURVE",
"584 -77 OFFCURVE",
"472 47 OFFCURVE",
"365 175 CURVE",
"270 295 OFFCURVE",
"176 414 OFFCURVE",
"109 551 CURVE",
"104 565 OFFCURVE",
"85 556 OFFCURVE",
"90 542 CURVE"
);
},
{
closed = 1;
nodes = (
"518 459 OFFCURVE",
"391 344 OFFCURVE",
"284 210 CURVE",
"176 82 OFFCURVE",
"90 -60 OFFCURVE",
"32 -210 CURVE",
"27 -221 OFFCURVE",
"53 -230 OFFCURVE",
"56 -217 CURVE",
"113 -63 OFFCURVE",
"202 79 OFFCURVE",
"309 205 CURVE",
"416 335 OFFCURVE",
"535 451 OFFCURVE",
"633 586 CURVE",
"644 600 OFFCURVE",
"618 609 OFFCURVE",
"612 595 CURVE"
);
}
);
width = 693;
}
);
unicode = F0A0;
},
{
glyphname = uniF0A6;
lastChange = "2018-05-24 15:49:04 +0000";
layers = (
{
layerId = "02376AAC-77FF-49DA-9399-294AF7A35492";
paths = (
{
closed = 1;
nodes = (
"308 -397 OFFCURVE",
"301 -400 OFFCURVE",
"294 -403 CURVE",
"289 -405 OFFCURVE",
"285 -406 OFFCURVE",
"280 -407 CURVE",
"278 -397 OFFCURVE",
"279 -387 OFFCURVE",
"274 -382 CURVE",
"269 -377 OFFCURVE",
"259 -377 OFFCURVE",
"250 -374 CURVE",
"249 -383 OFFCURVE",
"248 -389 OFFCURVE",
"248 -394 CURVE",
"238 -396 OFFCURVE",
"238 -395 OFFCURVE",
"231 -377 CURVE",
"226 -376 OFFCURVE",
"221 -376 OFFCURVE",
"213 -375 CURVE",
"214 -368 OFFCURVE",
"215 -361 OFFCURVE",
"217 -355 CURVE",
"221 -346 OFFCURVE",
"217 -338 OFFCURVE",
"207 -336 CURVE",
"207 -336 OFFCURVE",
"206 -336 OFFCURVE",
"206 -336 CURVE",
"197 -328 OFFCURVE",
"189 -323 OFFCURVE",
"177 -331 CURVE",
"176 -331 OFFCURVE",
"172 -327 OFFCURVE",
"169 -324 CURVE",
"184 -312 OFFCURVE",
"170 -304 OFFCURVE",
"164 -299 CURVE",
"157 -293 OFFCURVE",
"146 -292 OFFCURVE",
"135 -288 CURVE",
"136 -278 OFFCURVE",
"148 -266 OFFCURVE",
"135 -255 CURVE",
"156 -234 OFFCURVE",
"151 -211 OFFCURVE",
"146 -187 CURVE",
"145 -185 OFFCURVE",
"145 -184 OFFCURVE",
"145 -182 CURVE",
"145 -175 OFFCURVE",
"166 -163 OFFCURVE",
"173 -166 CURVE",
"175 -157 OFFCURVE",
"176 -148 OFFCURVE",
"178 -139 CURVE",
"158 -142 OFFCURVE",
"140 -146 OFFCURVE",
"120 -150 CURVE",
"113 -143 OFFCURVE",
"113 -139 OFFCURVE",
"123 -133 CURVE",
"127 -131 OFFCURVE",
"131 -127 OFFCURVE",
"134 -123 CURVE",
"129 -120 OFFCURVE",
"123 -115 OFFCURVE",
"117 -114 CURVE",
"109 -112 OFFCURVE",
"100 -114 OFFCURVE",
"90 -114 CURVE",
"96 -103 OFFCURVE",
"114 -99 OFFCURVE",
"126 -105 CURVE",
"139 -110 OFFCURVE",
"171 -99 OFFCURVE",
"177 -87 CURVE",
"182 -79 OFFCURVE",
"177 -69 OFFCURVE",
"169 -64 CURVE",
"159 -58 OFFCURVE",
"148 -52 OFFCURVE",
"149 -37 CURVE",
"140 -32 OFFCURVE",
"137 -24 OFFCURVE",
"141 -15 CURVE",
"149 2 OFFCURVE",
"146 10 OFFCURVE",
"129 15 CURVE",
"126 16 OFFCURVE",
"123 20 OFFCURVE",
"120 22 CURVE",
"120 23 OFFCURVE",
"120 24 OFFCURVE",
"120 26 CURVE",
"126 27 OFFCURVE",
"133 31 OFFCURVE",
"138 29 CURVE",
"144 26 OFFCURVE",
"148 23 OFFCURVE",
"151 30 CURVE",
"154 36 OFFCURVE",
"155 44 OFFCURVE",
"153 49 CURVE",
"144 65 OFFCURVE",
"125 66 OFFCURVE",
"110 74 CURVE",
"109 75 OFFCURVE",
"105 72 OFFCURVE",
"102 70 CURVE",
"104 72 OFFCURVE",
"106 75 OFFCURVE",
"108 77 CURVE",
"103 82 OFFCURVE",
"98 88 OFFCURVE",
"93 94 CURVE",
"91 91 OFFCURVE",
"89 89 OFFCURVE",
"87 87 CURVE",
"84 95 OFFCURVE",
"80 102 OFFCURVE",
"77 110 CURVE",
"74 117 OFFCURVE",
"72 123 OFFCURVE",
"70 130 CURVE",
"68 139 OFFCURVE",
"58 144 OFFCURVE",
"49 140 CURVE",
"40 135 OFFCURVE",
"31 129 OFFCURVE",
"22 125 CURVE",
"16 123 OFFCURVE",
"8 124 OFFCURVE",
"0 124 CURVE",
"9 136 OFFCURVE",
"9 136 OFFCURVE",
"52 153 CURVE",
"47 160 OFFCURVE",
"44 170 OFFCURVE",
"38 171 CURVE",
"30 173 OFFCURVE",
"21 168 OFFCURVE",
"12 165 CURVE",
"11 166 OFFCURVE",
"8 168 OFFCURVE",
"3 172 CURVE",
"10 175 OFFCURVE",
"15 176 OFFCURVE",
"19 179 CURVE",
"23 182 OFFCURVE",
"30 187 OFFCURVE",
"30 191 CURVE",
"29 195 OFFCURVE",
"23 199 OFFCURVE",
"18 203 CURVE",
"16 205 OFFCURVE",
"13 206 OFFCURVE",
"11 208 CURVE",
"13 209 OFFCURVE",
"15 212 OFFCURVE",
"17 213 CURVE",
"22 217 OFFCURVE",
"22 225 OFFCURVE",
"16 228 CURVE",
"14 229 OFFCURVE",
"12 230 OFFCURVE",
"10 231 CURVE",
"7 234 OFFCURVE",
"4 237 OFFCURVE",
"1 240 CURVE",
"5 242 OFFCURVE",
"9 243 OFFCURVE",
"15 246 CURVE",
"25 258 OFFCURVE",
"13 268 OFFCURVE",
"7 278 CURVE",
"-1 291 OFFCURVE",
"-1 292 OFFCURVE",
"12 298 CURVE",
"20 302 OFFCURVE",
"20 310 OFFCURVE",
"23 318 CURVE",
"27 331 OFFCURVE",
"19 336 OFFCURVE",
"12 343 CURVE",
"11 345 OFFCURVE",
"11 348 OFFCURVE",
"11 350 CURVE",
"12 351 OFFCURVE",
"13 352 OFFCURVE",
"14 351 CURVE",
"34 346 OFFCURVE",
"38 362 OFFCURVE",
"45 375 CURVE",
"48 382 OFFCURVE",
"48 389 OFFCURVE",
"50 396 CURVE",
"51 399 OFFCURVE",
"53 402 OFFCURVE",
"55 404 CURVE",
"63 413 OFFCURVE",
"75 421 OFFCURVE",
"65 436 CURVE",
"64 438 OFFCURVE",
"66 443 OFFCURVE",
"66 446 CURVE",
"67 446 OFFCURVE",
"68 447 OFFCURVE",
"70 448 CURVE",
"74 441 OFFCURVE",
"78 434 OFFCURVE",
"81 428 CURVE",
"103 450 OFFCURVE",
"125 472 OFFCURVE",
"148 495 CURVE",
"153 491 OFFCURVE",
"159 487 OFFCURVE",
"165 483 CURVE",
"172 479 OFFCURVE",
"183 482 OFFCURVE",
"183 490 CURVE",
"183 497 OFFCURVE",
"180 505 OFFCURVE",
"178 513 CURVE",
"178 517 OFFCURVE",
"177 522 OFFCURVE",
"177 526 CURVE",
"178 528 OFFCURVE",
"183 530 OFFCURVE",
"185 530 CURVE",
"187 530 OFFCURVE",
"190 525 OFFCURVE",
"189 523 CURVE",
"189 510 OFFCURVE",
"202 506 OFFCURVE",
"207 497 CURVE",
"208 496 OFFCURVE",
"220 499 OFFCURVE",
"223 503 CURVE",
"230 511 OFFCURVE",
"235 513 OFFCURVE",
"243 505 CURVE",
"247 501 OFFCURVE",
"256 500 OFFCURVE",
"261 502 CURVE",
"272 506 OFFCURVE",
"282 512 OFFCURVE",
"293 517 CURVE",
"293 525 OFFCURVE",
"293 531 OFFCURVE",
"293 540 CURVE",
"297 539 OFFCURVE",
"302 538 OFFCURVE",
"302 537 CURVE",
"302 532 OFFCURVE",
"303 525 OFFCURVE",
"300 520 CURVE",
"294 506 OFFCURVE",
"295 500 OFFCURVE",
"308 494 CURVE",
"312 492 OFFCURVE",
"317 494 OFFCURVE",
"323 494 CURVE",
"316 501 OFFCURVE",
"312 505 OFFCURVE",
"309 510 CURVE",
"308 511 OFFCURVE",
"311 516 OFFCURVE",
"314 519 CURVE",
"314 520 OFFCURVE",
"317 521 OFFCURVE",
"318 521 CURVE",
"325 517 OFFCURVE",
"331 510 OFFCURVE",
"340 515 CURVE",
"341 510 OFFCURVE",
"342 505 OFFCURVE",
"341 501 CURVE",
"341 498 OFFCURVE",
"337 496 OFFCURVE",
"335 493 CURVE",
"343 477 OFFCURVE",
"346 476 OFFCURVE",
"369 477 CURVE",
"375 484 OFFCURVE",
"375 500 OFFCURVE",
"391 495 CURVE",
"387 484 OFFCURVE",
"384 474 OFFCURVE",
"380 461 CURVE",
"392 462 OFFCURVE",
"399 461 OFFCURVE",
"406 463 CURVE",
"414 465 OFFCURVE",
"416 462 OFFCURVE",
"417 456 CURVE",
"417 452 OFFCURVE",
"417 449 OFFCURVE",
"417 446 CURVE",
"417 428 OFFCURVE",
"425 420 OFFCURVE",
"442 416 CURVE",
"454 413 OFFCURVE",
"465 406 OFFCURVE",
"476 401 CURVE",
"475 398 OFFCURVE",
"475 397 OFFCURVE",
"475 397 CURVE",
"458 381 OFFCURVE",
"458 378 OFFCURVE",
"474 362 CURVE",
"480 356 OFFCURVE",
"483 350 OFFCURVE",
"483 340 CURVE",
"484 334 OFFCURVE",
"494 327 OFFCURVE",
"501 323 CURVE",
"508 319 OFFCURVE",
"507 317 OFFCURVE",
"503 311 CURVE",
"500 307 OFFCURVE",
"498 302 OFFCURVE",
"495 296 CURVE",
"504 292 OFFCURVE",
"514 291 OFFCURVE",
"511 278 CURVE",
"505 278 OFFCURVE",
"499 278 OFFCURVE",
"490 277 CURVE",
"497 265 OFFCURVE",
"506 253 OFFCURVE",
"493 239 CURVE",
"479 240 OFFCURVE",
"480 224 OFFCURVE",
"479 216 CURVE",
"478 208 OFFCURVE",
"485 196 OFFCURVE",
"499 198 CURVE",
"498 193 OFFCURVE",
"497 188 OFFCURVE",
"495 182 CURVE",
"489 184 OFFCURVE",
"484 185 OFFCURVE",
"476 188 CURVE",
"475 183 OFFCURVE",
"474 178 OFFCURVE",
"475 173 CURVE",
"476 168 OFFCURVE",
"480 163 OFFCURVE",
"483 157 CURVE",
"475 153 OFFCURVE",
"469 150 OFFCURVE",
"462 147 CURVE",
"464 138 OFFCURVE",
"466 130 OFFCURVE",
"468 119 CURVE",
"480 128 OFFCURVE",
"491 137 OFFCURVE",
"503 144 CURVE",
"511 149 OFFCURVE",
"521 153 OFFCURVE",
"531 154 CURVE",
"542 157 OFFCURVE",
"558 171 OFFCURVE",
"561 183 CURVE",
"564 191 OFFCURVE",
"571 197 OFFCURVE",
"575 205 CURVE",
"581 216 OFFCURVE",
"577 232 OFFCURVE",
"570 241 CURVE",
"561 252 OFFCURVE",
"554 263 OFFCURVE",
"546 274 CURVE",
"536 287 OFFCURVE",
"544 296 OFFCURVE",
"551 305 CURVE",
"553 307 OFFCURVE",
"555 309 OFFCURVE",
"558 312 CURVE",
"560 311 OFFCURVE",
"562 308 OFFCURVE",
"564 308 CURVE",
"578 309 OFFCURVE",
"584 304 OFFCURVE",
"588 291 CURVE",
"591 280 OFFCURVE",
"592 271 OFFCURVE",
"587 260 CURVE",
"578 239 OFFCURVE",
"581 216 OFFCURVE",
"595 207 CURVE",
"604 201 OFFCURVE",
"614 196 OFFCURVE",
"624 190 CURVE",
"626 189 OFFCURVE",
"629 190 OFFCURVE",
"631 191 CURVE",
"636 192 OFFCURVE",
"642 194 OFFCURVE",
"648 193 CURVE",
"666 190 OFFCURVE",
"678 200 OFFCURVE",
"690 212 CURVE",
"691 214 OFFCURVE",
"693 216 OFFCURVE",
"694 218 CURVE",
"699 241 OFFCURVE",
"715 239 OFFCURVE",
"730 229 CURVE",
"739 222 OFFCURVE",
"745 222 OFFCURVE",
"753 230 CURVE",
"768 244 OFFCURVE",
"785 256 OFFCURVE",
"801 268 CURVE",
"802 269 OFFCURVE",
"805 268 OFFCURVE",
"808 268 CURVE",
"808 267 OFFCURVE",
"809 266 OFFCURVE",
"810 265 CURVE",
"793 250 OFFCURVE",
"777 236 OFFCURVE",
"761 222 CURVE",
"750 213 OFFCURVE",
"739 203 OFFCURVE",
"728 195 CURVE",
"718 187 OFFCURVE",
"706 180 OFFCURVE",
"696 172 CURVE",
"686 163 OFFCURVE",
"678 153 OFFCURVE",
"669 143 CURVE",
"661 134 OFFCURVE",
"653 125 OFFCURVE",
"644 115 CURVE",
"634 103 OFFCURVE",
"623 91 OFFCURVE",
"612 79 CURVE",
"611 77 OFFCURVE",
"610 74 OFFCURVE",
"610 71 CURVE",
"609 69 OFFCURVE",
"610 65 OFFCURVE",
"609 64 CURVE",
"591 51 OFFCURVE",
"611 47 OFFCURVE",
"613 37 CURVE",
"605 22 OFFCURVE",
"610 0 OFFCURVE",
"627 -8 CURVE",
"630 -9 OFFCURVE",
"635 -6 OFFCURVE",
"639 -4 CURVE",
"640 -4 OFFCURVE",
"641 0 OFFCURVE",
"642 0 CURVE",
"660 -1 OFFCURVE",
"661 18 OFFCURVE",
"671 26 CURVE",
"679 32 OFFCURVE",
"681 45 OFFCURVE",
"686 56 CURVE",
"689 51 OFFCURVE",
"692 47 OFFCURVE",
"694 44 CURVE",
"697 36 OFFCURVE",
"694 28 OFFCURVE",
"686 25 CURVE",
"666 18 OFFCURVE",
"660 -8 OFFCURVE",
"666 -24 CURVE",
"668 -28 OFFCURVE",
"663 -37 OFFCURVE",
"661 -37 CURVE",
"650 -36 OFFCURVE",
"649 -43 OFFCURVE",
"650 -50 CURVE",
"653 -61 OFFCURVE",
"664 -68 OFFCURVE",
"672 -62 CURVE",
"681 -56 OFFCURVE",
"684 -60 OFFCURVE",
"690 -66 CURVE",
"684 -71 OFFCURVE",
"679 -76 OFFCURVE",
"684 -85 CURVE",
"685 -86 OFFCURVE",
"682 -92 OFFCURVE",
"679 -94 CURVE",
"667 -103 OFFCURVE",
"666 -106 OFFCURVE",
"677 -118 CURVE",
"690 -131 OFFCURVE",
"693 -146 OFFCURVE",
"687 -164 CURVE",
"685 -171 OFFCURVE",
"685 -180 OFFCURVE",
"685 -188 CURVE",
"683 -219 OFFCURVE",
"681 -250 OFFCURVE",
"680 -280 CURVE",
"679 -284 OFFCURVE",
"679 -287 OFFCURVE",
"679 -291 CURVE",
"668 -291 OFFCURVE",
"657 -292 OFFCURVE",
"654 -305 CURVE",
"653 -305 OFFCURVE",
"645 -314 OFFCURVE",
"637 -308 CURVE",
"631 -303 OFFCURVE",
"619 -310 OFFCURVE",
"615 -320 CURVE",
"613 -325 OFFCURVE",
"606 -331 OFFCURVE",
"613 -338 CURVE",
"614 -339 OFFCURVE",
"610 -346 OFFCURVE",
"607 -350 CURVE",
"606 -350 OFFCURVE",
"601 -349 OFFCURVE",
"599 -347 CURVE",
"587 -342 OFFCURVE",
"569 -352 OFFCURVE",
"566 -365 CURVE",
"565 -369 OFFCURVE",
"562 -372 OFFCURVE",
"562 -373 CURVE",
"549 -373 OFFCURVE",
"536 -369 OFFCURVE",
"527 -374 CURVE",
"519 -378 OFFCURVE",
"516 -391 OFFCURVE",
"511 -399 CURVE",
"504 -394 OFFCURVE",
"495 -385 OFFCURVE",
"491 -387 CURVE",
"483 -392 OFFCURVE",
"470 -389 OFFCURVE",
"465 -403 CURVE",
"462 -411 OFFCURVE",
"447 -415 OFFCURVE",
"437 -421 CURVE",
"435 -422 OFFCURVE",
"432 -424 OFFCURVE",
"432 -426 CURVE",
"433 -436 OFFCURVE",
"425 -439 OFFCURVE",
"418 -442 CURVE",
"406 -447 OFFCURVE",
"395 -442 OFFCURVE",
"392 -431 CURVE",
"389 -424 OFFCURVE",
"386 -412 OFFCURVE",
"382 -412 CURVE",
"370 -410 OFFCURVE",
"357 -411 OFFCURVE",
"344 -414 CURVE",
"340 -415 OFFCURVE",
"339 -425 OFFCURVE",
"335 -434 CURVE",
"344 -434 OFFCURVE",
"350 -434 OFFCURVE",
"357 -434 CURVE",
"357 -431 OFFCURVE",
"357 -427 OFFCURVE",
"358 -425 CURVE",
"360 -421 OFFCURVE",
"363 -416 OFFCURVE",
"367 -415 CURVE",
"369 -415 OFFCURVE",
"375 -418 OFFCURVE",
"376 -421 CURVE",
"377 -424 OFFCURVE",
"375 -428 OFFCURVE",
"373 -432 CURVE",
"370 -439 OFFCURVE",
"366 -445 OFFCURVE",
"364 -453 CURVE",
"360 -464 OFFCURVE",
"352 -469 OFFCURVE",
"342 -472 CURVE",
"340 -472 OFFCURVE",
"334 -470 OFFCURVE",
"334 -469 CURVE",
"333 -455 OFFCURVE",
"317 -446 OFFCURVE",
"322 -430 CURVE",
"324 -426 OFFCURVE",
"326 -423 OFFCURVE",
"326 -419 CURVE",
"326 -415 OFFCURVE",
"324 -410 OFFCURVE",
"322 -406 CURVE",
"320 -403 OFFCURVE",
"318 -400 OFFCURVE",
"314 -394 CURVE"
);
},
{
closed = 1;
nodes = (
"891 124 OFFCURVE",
"885 125 OFFCURVE",
"880 127 CURVE",
"869 132 OFFCURVE",
"869 144 OFFCURVE",
"879 151 CURVE",
"889 158 OFFCURVE",
"899 167 OFFCURVE",
"914 164 CURVE",
"923 162 OFFCURVE",
"927 159 OFFCURVE",
"928 150 CURVE",
"928 136 OFFCURVE",
"914 124 OFFCURVE",
"897 122 CURVE"
);
},
{
closed = 1;
nodes = (
"936 120 OFFCURVE",
"941 121 OFFCURVE",
"944 119 CURVE",
"949 117 OFFCURVE",
"955 113 OFFCURVE",
"957 108 CURVE",
"959 102 OFFCURVE",
"956 97 OFFCURVE",
"948 94 CURVE",
"937 91 OFFCURVE",
"927 82 OFFCURVE",
"914 85 CURVE",
"903 86 OFFCURVE",
"892 102 OFFCURVE",
"899 108 CURVE",
"904 114 OFFCURVE",
"912 117 OFFCURVE",
"920 119 CURVE",
"923 121 OFFCURVE",
"928 120 OFFCURVE",
"932 120 CURVE",
"932 120 OFFCURVE",
"932 120 OFFCURVE",
"932 120 CURVE"
);
},
{
closed = 1;
nodes = (
"784 148 OFFCURVE",
"762 119 OFFCURVE",
"755 119 CURVE",
"750 119 OFFCURVE",
"743 122 OFFCURVE",
"741 126 CURVE",
"738 129 OFFCURVE",
"738 138 OFFCURVE",
"741 141 CURVE",
"750 151 OFFCURVE",
"760 160 OFFCURVE",
"771 168 CURVE",
"776 172 OFFCURVE",
"784 163 OFFCURVE",
"784 156 CURVE"
);
},
{
closed = 1;
nodes = (
"802 -38 OFFCURVE",
"808 -25 OFFCURVE",
"812 -12 CURVE",
"815 -2 OFFCURVE",
"822 -3 OFFCURVE",
"827 -6 CURVE",
"831 -8 OFFCURVE",
"833 -16 OFFCURVE",
"832 -21 CURVE",
"831 -28 OFFCURVE",
"826 -35 OFFCURVE",
"823 -42 CURVE",
"819 -53 OFFCURVE",
"810 -55 OFFCURVE",
"797 -54 CURVE"
);
},
{
closed = 1;
nodes = (
"862 310 OFFCURVE",
"903 347 OFFCURVE",
"923 346 CURVE",
"903 328 OFFCURVE",
"884 310 OFFCURVE",
"864 290 CURVE"
);
},
{
closed = 1;
nodes = (
"572 -399 OFFCURVE",
"580 -388 OFFCURVE",
"590 -373 CURVE",
"592 -382 OFFCURVE",
"597 -389 OFFCURVE",
"595 -393 CURVE",
"590 -401 OFFCURVE",
"583 -409 OFFCURVE",
"575 -415 CURVE",
"573 -417 OFFCURVE",
"566 -414 OFFCURVE",
"563 -413 CURVE"
);
},
{
closed = 1;
nodes = (
"826 330 OFFCURVE",
"827 342 OFFCURVE",
"842 347 CURVE",
"845 348 OFFCURVE",
"852 343 OFFCURVE",
"852 342 CURVE",
"849 333 OFFCURVE",
"846 325 OFFCURVE",
"842 315 CURVE"
);
},
{
closed = 1;
nodes = (
"104 -271 OFFCURVE",
"98 -273 OFFCURVE",
"93 -271 CURVE",
"88 -269 OFFCURVE",
"84 -265 OFFCURVE",
"80 -261 CURVE",
"84 -258 OFFCURVE",
"88 -253 OFFCURVE",
"93 -252 CURVE",
"101 -250 OFFCURVE",
"110 -261 OFFCURVE",
"109 -271 CURVE"
);
},
{
closed = 1;
nodes = (
"681 80 OFFCURVE",
"673 80 OFFCURVE",
"666 80 CURVE",
"664 94 OFFCURVE",
"669 97 OFFCURVE",
"689 94 CURVE",
"689 90 OFFCURVE",
"689 86 OFFCURVE",
"690 80 CURVE"
);
},
{
closed = 1;
nodes = (
"96 -171 OFFCURVE",
"81 -183 OFFCURVE",
"64 -181 CURVE",
"75 -172 OFFCURVE",
"83 -164 OFFCURVE",
"94 -155 CURVE"
);
},
{
closed = 1;
nodes = (
"656 72 OFFCURVE",
"660 70 OFFCURVE",
"664 68 CURVE",
"664 64 OFFCURVE",
"664 60 OFFCURVE",
"664 56 CURVE",
"644 53 OFFCURVE",
"644 54 OFFCURVE",
"651 74 CURVE"
);
},
{
closed = 1;
nodes = (
"145 568 OFFCURVE",
"149 574 OFFCURVE",
"157 566 CURVE",
"163 560 OFFCURVE",
"160 556 OFFCURVE",
"155 552 CURVE",
"150 548 OFFCURVE",
"150 548 OFFCURVE",
"140 563 CURVE"
);
},
{
closed = 1;
nodes = (
"911 465 OFFCURVE",
"922 481 OFFCURVE",
"932 480 CURVE",
"927 470 OFFCURVE",
"922 461 OFFCURVE",
"915 449 CURVE"
);
},
{
closed = 1;
nodes = (
"775 396 OFFCURVE",
"780 394 OFFCURVE",
"784 391 CURVE",
"780 388 OFFCURVE",
"777 385 OFFCURVE",
"773 381 CURVE",
"771 385 OFFCURVE",
"769 389 OFFCURVE",
"766 393 CURVE",
"768 395 OFFCURVE",
"769 397 OFFCURVE",
"771 398 CURVE"
);
},
{
closed = 1;
nodes = (
"987 383 OFFCURVE",
"980 377 OFFCURVE",
"973 370 CURVE",
"971 383 OFFCURVE",
"980 392 OFFCURVE",
"994 389 CURVE"
);
},
{
closed = 1;
nodes = (
"526 220 OFFCURVE",
"526 226 OFFCURVE",
"526 232 CURVE",
"527 233 OFFCURVE",
"528 233 OFFCURVE",
"529 234 CURVE",
"532 231 OFFCURVE",
"537 228 OFFCURVE",
"537 226 CURVE",
"536 221 OFFCURVE",
"540 210 OFFCURVE",
"526 214 CURVE"
);
},
{
closed = 1;
nodes = (
"709 -54 OFFCURVE",
"707 -57 OFFCURVE",
"705 -59 CURVE",
"703 -57 OFFCURVE",
"700 -54 OFFCURVE",
"700 -52 CURVE",
"700 -49 OFFCURVE",
"702 -46 OFFCURVE",
"704 -44 CURVE",
"706 -46 OFFCURVE",
"708 -48 OFFCURVE",
"712 -51 CURVE"
);
}
);
width = 994;
}
);
unicode = F0A6;
},
{
glyphname = uniF0A7;
lastChange = "2018-05-24 15:48:23 +0000";
layers = (
{
layerId = "02376AAC-77FF-49DA-9399-294AF7A35492";
paths = (
{
closed = 1;
nodes = (
"166 -83 OFFCURVE",
"196 -70 OFFCURVE",
"223 -63 CURVE",
"243 -58 OFFCURVE",
"263 -55 OFFCURVE",
"283 -53 CURVE",
"312 -53 OFFCURVE",
"335 -68 OFFCURVE",
"347 -95 CURVE",
"354 -112 OFFCURVE",
"359 -130 OFFCURVE",
"364 -147 CURVE",
"367 -152 OFFCURVE",
"367 -154 OFFCURVE",
"369 -162 CURVE",
"374 -154 OFFCURVE",
"382 -149 OFFCURVE",
"384 -144 CURVE",
"389 -130 OFFCURVE",
"394 -112 OFFCURVE",
"402 -97 CURVE",
"404 -90 OFFCURVE",
"411 -83 OFFCURVE",
"416 -75 CURVE",
"424 -85 OFFCURVE",
"431 -92 OFFCURVE",
"436 -100 CURVE",
"461 -132 OFFCURVE",
"488 -137 OFFCURVE",
"520 -115 CURVE",
"535 -105 OFFCURVE",
"545 -95 OFFCURVE",
"558 -85 CURVE",
"600 -53 OFFCURVE",
"644 -33 OFFCURVE",
"699 -60 CURVE",
"701 -53 OFFCURVE",
"704 -45 OFFCURVE",
"704 -36 CURVE",
"714 -6 OFFCURVE",
"731 19 OFFCURVE",
"753 41 CURVE",
"766 56 OFFCURVE",
"778 69 OFFCURVE",
"790 83 CURVE",
"793 88 OFFCURVE",
"798 93 OFFCURVE",
"800 101 CURVE",
"813 126 OFFCURVE",
"810 128 OFFCURVE",
"790 148 CURVE",
"768 173 OFFCURVE",
"743 195 OFFCURVE",
"721 222 CURVE",
"691 254 OFFCURVE",
"684 291 OFFCURVE",
"691 334 CURVE",
"694 351 OFFCURVE",
"696 366 OFFCURVE",
"701 381 CURVE",
"706 408 OFFCURVE",
"719 433 OFFCURVE",
"738 450 CURVE",
"743 455 OFFCURVE",
"746 460 OFFCURVE",
"748 465 CURVE",
"756 480 OFFCURVE",
"751 487 OFFCURVE",
"736 490 CURVE",
"726 490 OFFCURVE",
"714 490 OFFCURVE",
"704 490 CURVE",
"672 490 OFFCURVE",
"637 490 OFFCURVE",
"605 492 CURVE",
"577 492 OFFCURVE",
"555 502 OFFCURVE",
"540 527 CURVE",
"508 507 OFFCURVE",
"473 500 OFFCURVE",
"439 504 CURVE",
"409 509 OFFCURVE",
"382 517 OFFCURVE",
"352 522 CURVE",
"317 529 OFFCURVE",
"285 537 OFFCURVE",
"250 529 CURVE",
"236 527 OFFCURVE",
"231 519 OFFCURVE",
"238 507 CURVE",
"243 497 OFFCURVE",
"248 487 OFFCURVE",
"253 477 CURVE",
"265 452 OFFCURVE",
"260 438 OFFCURVE",
"233 433 CURVE",
"203 428 OFFCURVE",
"171 428 OFFCURVE",
"139 428 CURVE",
"119 425 OFFCURVE",
"97 428 OFFCURVE",
"80 430 CURVE",
"92 420 OFFCURVE",
"109 410 OFFCURVE",
"122 398 CURVE",
"146 371 OFFCURVE",
"144 336 OFFCURVE",
"134 304 CURVE",
"122 257 OFFCURVE",
"94 215 OFFCURVE",
"65 178 CURVE",
"45 150 OFFCURVE",
"20 126 OFFCURVE",
"0 101 CURVE",
"15 106 OFFCURVE",
"32 113 OFFCURVE",
"52 118 CURVE",
"85 126 OFFCURVE",
"117 126 OFFCURVE",
"146 111 CURVE",
"193 83 OFFCURVE",
"213 24 OFFCURVE",
"186 -28 CURVE",
"176 -53 OFFCURVE",
"159 -73 OFFCURVE",
"134 -92 CURVE"
);
}
);
width = 808;
}
);
unicode = F0A7;
},
{
glyphname = uniF0A2;
lastChange = "2018-06-06 20:06:11 +0000";
layers = (
{
layerId = "02376AAC-77FF-49DA-9399-294AF7A35492";
paths = (
{
closed = 1;
nodes = (
"377 654 OFFCURVE",
"721 772 OFFCURVE",
"722 772 CURVE",
"723 772 OFFCURVE",
"729 885 OFFCURVE",
"729 885 CURVE",
"729 889 OFFCURVE",
"395 762 OFFCURVE",
"370 752 CURVE",
"369 752 LINE",
"363 752 OFFCURVE",
"293 709 OFFCURVE",
"293 700 CURVE",
"293 679 OFFCURVE",
"288 139 OFFCURVE",
"287 139 CURVE",
"151 139 OFFCURVE",
"0 32 OFFCURVE",
"0 -68 CURVE",
"0 -133 OFFCURVE",
"28 -154 OFFCURVE",
"122 -154 CURVE",
"251 -154 OFFCURVE",
"364 -15 OFFCURVE",
"364 89 CURVE",
"374 660 LINE"
);
}
);
width = 729;
}
);
unicode = F0A2;
},
{
glyphname = uniF0A8;
lastChange = "2018-06-06 20:06:44 +0000";
layers = (
{
layerId = "02376AAC-77FF-49DA-9399-294AF7A35492";
paths = (
{
closed = 1;
nodes = (
"553 -650 LINE",
"553 -550 LINE",
"336 -605 LINE",
"336 -127 LINE",
"336 -31 OFFCURVE",
"232 98 OFFCURVE",
"112 98 CURVE",
"26 98 OFFCURVE",
"0 80 OFFCURVE",
"0 19 CURVE",
"0 -74 OFFCURVE",
"139 -173 OFFCURVE",
"265 -173 CURVE",
"266 -672 LINE",
"265 -708 LINE"
);
}
);
width = 553;
}
);
unicode = F0A8;
},
{
glyphname = uniE1F3;
lastChange = "2019-03-27 07:58:15 +0000";
layers = (
{
layerId = "02376AAC-77FF-49DA-9399-294AF7A35492";
paths = (
{
closed = 1;
nodes = (
"220 670 OFFCURVE",
"13 600 OFFCURVE",
"0 595 CURVE",
"0 515 LINE",
"335 606 LINE",
"345 438 LINE",
"344 277 OFFCURVE",
"341 128 OFFCURVE",
"340 128 CURVE",
"209 128 OFFCURVE",
"63 23 OFFCURVE",
"63 -73 CURVE",
"63 -137 OFFCURVE",
"90 -156 OFFCURVE",
"182 -156 CURVE",
"304 -156 OFFCURVE",
"414 -21 OFFCURVE",
"414 79 CURVE",
"425 628 LINE",
"417 734 LINE"
);
}
);
width = 425;
}
);
unicode = E1F3;
},
{
glyphname = uniF0A9;
lastChange = "2018-06-26 09:53:45 +0000";
layers = (
{
layerId = "02376AAC-77FF-49DA-9399-294AF7A35492";
paths = (
{
closed = 1;
nodes = (
"341 -124 LINE",
"341 -33 OFFCURVE",
"243 89 OFFCURVE",
"130 89 CURVE",
"48 89 OFFCURVE",
"23 72 OFFCURVE",
"23 14 CURVE",
"23 -73 OFFCURVE",
"155 -168 OFFCURVE",
"275 -168 CURVE",
"276 -641 LINE",
"171 -666 OFFCURVE",
"-2 -710 OFFCURVE",
"0 -710 CURVE",
"1 -710 OFFCURVE",
"3 -808 OFFCURVE",
"3 -810 CURVE",
"3 -813 OFFCURVE",
"369 -714 OFFCURVE",
"347 -704 CURVE",
"346 -704 LINE",
"341 -704 OFFCURVE",
"356 -650 OFFCURVE",
"353 -628 CURVE"
);
},
{
closed = 1;
nodes = (
"278 -640 OFFCURVE",
"273 -641 OFFCURVE",
"276 -641 CURVE"
);
}
);
width = 353;
}
);
unicode = F0A9;
},
{
glyphname = uniF0B0;
lastChange = "2018-06-06 20:11:16 +0000";
layers = (
{
layerId = "02376AAC-77FF-49DA-9399-294AF7A35492";
paths = (
{
closed = 1;
nodes = (
"403 575 OFFCURVE",
"652 692 OFFCURVE",
"712 692 CURVE",
"714 692 OFFCURVE",
"717 793 OFFCURVE",
"717 794 CURVE",
"717 798 OFFCURVE",
"21 567 OFFCURVE",
"0 560 CURVE",
"0 484 LINE",
"313 570 LINE",
"315 494 LINE",
"315 494 LINE",
"322 412 LINE",
"322 412 LINE",
"321 261 OFFCURVE",
"320 120 OFFCURVE",
"319 120 CURVE",
"196 120 OFFCURVE",
"59 22 OFFCURVE",
"59 -68 CURVE",
"59 -128 OFFCURVE",
"83 -146 OFFCURVE",
"169 -146 CURVE",
"285 -146 OFFCURVE",
"388 -20 OFFCURVE",
"388 74 CURVE",
"394 426 LINE",
"398 591 LINE"
);
}
);
width = 717;
}
);
unicode = F0B0;
},
{
glyphname = uniF0B1;
lastChange = "2018-06-06 20:10:50 +0000";
layers = (
{
layerId = "02376AAC-77FF-49DA-9399-294AF7A35492";
paths = (
{
closed = 1;
nodes = (
"430 -603 OFFCURVE",
"667 -541 OFFCURVE",
"731 -541 CURVE",
"733 -541 OFFCURVE",
"736 -648 OFFCURVE",
"736 -651 CURVE",
"736 -653 OFFCURVE",
"21 -862 OFFCURVE",
"0 -853 CURVE",
"0 -773 LINE",
"332 -637 LINE",
"333 -558 LINE",
"333 -558 LINE",
"341 -470 LINE",
"341 -470 LINE",
"340 -310 OFFCURVE",
"339 -161 OFFCURVE",
"337 -161 CURVE",
"208 -161 OFFCURVE",
"63 -58 OFFCURVE",
"63 37 CURVE",
"63 101 OFFCURVE",
"89 120 OFFCURVE",
"180 120 CURVE",
"302 120 OFFCURVE",
"411 -14 OFFCURVE",
"411 -113 CURVE",
"417 -485 LINE",
"426 -620 LINE"
);
}
);
width = 736;
}
);
unicode = F0B1;
},
{
glyphname = uniF0A4;
lastChange = "2018-06-06 20:05:24 +0000";
layers = (
{
layerId = "02376AAC-77FF-49DA-9399-294AF7A35492";
paths = (
{
closed = 1;
nodes = (
"385 480 OFFCURVE",
"732 599 OFFCURVE",
"734 599 CURVE",
"734 599 OFFCURVE",
"738 711 OFFCURVE",
"738 712 CURVE",
"738 716 OFFCURVE",
"402 589 OFFCURVE",
"379 579 CURVE",
"375 578 LINE",
"377 669 LINE",
"382 651 OFFCURVE",
"660 782 OFFCURVE",
"727 782 CURVE",
"728 782 OFFCURVE",
"733 894 OFFCURVE",
"733 897 CURVE",
"733 899 OFFCURVE",
"396 771 OFFCURVE",
"373 763 CURVE",
"371 762 LINE",
"366 762 OFFCURVE",
"296 718 OFFCURVE",
"296 711 CURVE",
"296 688 OFFCURVE",
"291 146 OFFCURVE",
"289 146 CURVE",
"152 146 OFFCURVE",
"0 37 OFFCURVE",
"0 -63 CURVE",
"0 -130 OFFCURVE",
"28 -150 OFFCURVE",
"123 -150 CURVE",
"252 -150 OFFCURVE",
"366 -10 OFFCURVE",
"366 95 CURVE",
"374 486 LINE",
"383 486 LINE"
);
}
);
width = 738;
}
);
unicode = F0A4;
},
{
glyphname = uniF0B3;
lastChange = "2018-06-26 09:54:33 +0000";
layers = (
{
layerId = "02376AAC-77FF-49DA-9399-294AF7A35492";
paths = (
{
closed = 1;
nodes = (
"364 -499 OFFCURVE",
"691 -612 OFFCURVE",
"693 -612 CURVE",
"694 -612 OFFCURVE",
"698 -717 OFFCURVE",
"698 -718 CURVE",
"698 -723 OFFCURVE",
"380 -602 OFFCURVE",
"358 -593 CURVE",
"353 -592 LINE",
"356 -678 LINE",
"362 -662 OFFCURVE",
"625 -785 OFFCURVE",
"686 -785 CURVE",
"688 -785 OFFCURVE",
"692 -890 OFFCURVE",
"692 -893 CURVE",
"692 -896 OFFCURVE",
"374 -775 OFFCURVE",
"353 -767 CURVE",
"351 -766 LINE",
"345 -766 OFFCURVE",
"279 -724 OFFCURVE",
"279 -717 CURVE",
"279 -697 OFFCURVE",
"275 -183 OFFCURVE",
"272 -183 CURVE",
"143 -183 OFFCURVE",
"0 -81 OFFCURVE",
"0 15 CURVE",
"0 77 OFFCURVE",
"26 96 OFFCURVE",
"117 96 CURVE",
"238 96 OFFCURVE",
"346 -36 OFFCURVE",
"346 -136 CURVE",
"353 -505 LINE",
"363 -505 LINE"
);
}
);
width = 698;
}
);
unicode = F0B3;
},
{
glyphname = uniE1F5;
lastChange = "2019-03-27 07:58:15 +0000";
layers = (
{
layerId = "02376AAC-77FF-49DA-9399-294AF7A35492";
paths = (
{
closed = 1;
nodes = (
"321 666 OFFCURVE",
"326 665 OFFCURVE",
"324 665 CURVE"
);
},
{
closed = 1;
nodes = (
"324 584 LINE",
"323 594 OFFCURVE",
"5 682 OFFCURVE",
"5 678 CURVE",
"5 676 OFFCURVE",
"1 568 OFFCURVE",
"0 568 CURVE",
"-1 568 OFFCURVE",
"194 517 OFFCURVE",
"309 489 CURVE",
"324 489 LINE",
"323 136 LINE",
"189 136 OFFCURVE",
"41 30 OFFCURVE",
"41 -67 CURVE",
"41 -132 OFFCURVE",
"69 -153 OFFCURVE",
"161 -153 CURVE",
"287 -153 OFFCURVE",
"398 -14 OFFCURVE",
"398 87 CURVE",
"411 652 LINE",
"415 674 OFFCURVE",
"398 737 OFFCURVE",
"403 737 CURVE",
"404 738 LINE",
"428 746 OFFCURVE",
"19 858 OFFCURVE",
"19 854 CURVE",
"19 853 OFFCURVE",
"15 744 OFFCURVE",
"14 744 CURVE",
"13 744 OFFCURVE",
"208 693 OFFCURVE",
"324 665 CURVE",
"324 584 LINE"
);
}
);
width = 412;
}
);
unicode = E1F5;
},
{
glyphname = uniF0B4;
lastChange = "2018-06-06 20:10:17 +0000";
layers = (
{
layerId = "02376AAC-77FF-49DA-9399-294AF7A35492";
paths = (
{
closed = 1;
nodes = (
"193 -657 OFFCURVE",
"12 -704 OFFCURVE",
"13 -704 CURVE",
"14 -704 OFFCURVE",
"18 -806 OFFCURVE",
"18 -807 CURVE",
"18 -810 OFFCURVE",
"398 -706 OFFCURVE",
"375 -698 CURVE",
"374 -697 LINE",
"370 -697 OFFCURVE",
"385 -639 OFFCURVE",
"382 -618 CURVE",
"370 -92 LINE",
"370 2 OFFCURVE",
"267 130 OFFCURVE",
"149 130 CURVE",
"63 130 OFFCURVE",
"37 110 OFFCURVE",
"37 51 CURVE",
"37 -39 OFFCURVE",
"175 -139 OFFCURVE",
"300 -139 CURVE",
"301 -466 LINE",
"287 -466 LINE",
"180 -493 OFFCURVE",
"-1 -540 OFFCURVE",
"0 -540 CURVE",
"1 -540 OFFCURVE",
"4 -641 OFFCURVE",
"4 -642 CURVE",
"4 -647 OFFCURVE",
"300 -565 OFFCURVE",
"301 -555 CURVE",
"301 -555 LINE",
"301 -631 LINE"
);
},
{
closed = 1;
nodes = (
"302 -631 OFFCURVE",
"298 -632 OFFCURVE",
"301 -631 CURVE"
);
}
);
width = 382;
}
);
unicode = F0B4;
},
{
glyphname = uniF0B2;
lastChange = "2018-06-06 20:09:02 +0000";
layers = (
{
layerId = "02376AAC-77FF-49DA-9399-294AF7A35492";
paths = (
{
closed = 1;
nodes = (
"338 275 OFFCURVE",
"336 128 OFFCURVE",
"335 128 CURVE",
"206 128 OFFCURVE",
"62 25 OFFCURVE",
"62 -70 CURVE",
"62 -133 OFFCURVE",
"88 -152 OFFCURVE",
"178 -152 CURVE",
"300 -152 OFFCURVE",
"408 -19 OFFCURVE",
"408 79 CURVE",
"415 448 LINE",
"424 448 LINE",
"425 442 OFFCURVE",
"683 531 OFFCURVE",
"684 531 CURVE",
"685 531 OFFCURVE",
"642 618 OFFCURVE",
"642 620 CURVE",
"642 623 OFFCURVE",
"442 545 OFFCURVE",
"420 536 CURVE",
"416 535 LINE",
"418 620 LINE",
"423 604 OFFCURVE",
"685 727 OFFCURVE",
"748 727 CURVE",
"749 727 OFFCURVE",
"754 833 OFFCURVE",
"754 835 CURVE",
"754 838 OFFCURVE",
"22 596 OFFCURVE",
"0 588 CURVE",
"0 509 LINE",
"329 598 LINE",
"331 520 LINE",
"136 469 LINE",
"97 375 LINE",
"340 433 LINE"
);
}
);
width = 754;
}
);
unicode = F0B2;
},
{
glyphname = uniF0B5;
lastChange = "2018-06-06 20:09:51 +0000";
layers = (
{
layerId = "02376AAC-77FF-49DA-9399-294AF7A35492";
paths = (
{
closed = 1;
nodes = (
"352 -335 OFFCURVE",
"347 -159 OFFCURVE",
"346 -159 CURVE",
"212 -159 OFFCURVE",
"64 -52 OFFCURVE",
"64 45 CURVE",
"64 109 OFFCURVE",
"91 129 OFFCURVE",
"185 129 CURVE",
"310 129 OFFCURVE",
"421 -8 OFFCURVE",
"421 -109 CURVE",
"429 -490 LINE",
"437 -490 LINE",
"439 -485 OFFCURVE",
"691 -440 OFFCURVE",
"692 -440 CURVE",
"693 -440 OFFCURVE",
"649 -530 OFFCURVE",
"649 -532 CURVE",
"649 -536 OFFCURVE",
"460 -578 OFFCURVE",
"433 -581 CURVE",
"430 -580 LINE",
"431 -669 LINE",
"437 -651 OFFCURVE",
"694 -642 OFFCURVE",
"758 -642 CURVE",
"760 -642 OFFCURVE",
"764 -752 OFFCURVE",
"764 -755 CURVE",
"764 -758 OFFCURVE",
"23 -825 OFFCURVE",
"0 -817 CURVE",
"0 -735 LINE",
"343 -676 LINE",
"341 -592 LINE",
"103 -639 LINE",
"66 -547 LINE",
"354 -496 LINE"
);
}
);
width = 764;
}
);
unicode = F0B5;
},
{
glyphname = uniE934_uniE93F;
lastChange = "2019-03-26 07:36:44 +0000";
layers = (
{
hints = (
{
horizontal = 1;
place = "{-141, 32}";
type = Stem;
},
{
horizontal = 1;
place = "{109, 32}";
type = Stem;
},
{
place = "{0, 32}";
type = Stem;
},
{
place = "{300, 32}";
type = Stem;
}
);
layerId = "02376AAC-77FF-49DA-9399-294AF7A35492";
paths = (
{
closed = 1;
nodes = (
"16 141 LINE SMOOTH",
"8 141 OFFCURVE",
"0 133 OFFCURVE",
"0 125 CURVE SMOOTH",
"0 -125 LINE SMOOTH",
"0 -134 OFFCURVE",
"8 -141 OFFCURVE",
"16 -141 CURVE SMOOTH",
"300 -141 LINE",
"300 -625 LINE SMOOTH",
"300 -634 OFFCURVE",
"308 -641 OFFCURVE",
"316 -641 CURVE SMOOTH",
"325 -641 OFFCURVE",
"332 -634 OFFCURVE",
"332 -625 CURVE SMOOTH",
"332 125 LINE SMOOTH",
"332 133 OFFCURVE",
"325 141 OFFCURVE",
"316 141 CURVE SMOOTH"
);
}
);
width = 332;
}
);
note = uniE934_uniE93F;
unicode = F570;
},
{
glyphname = uniE934_uniE93E;
lastChange = "2019-03-26 07:36:44 +0000";
layers = (
{
hints = (
{
horizontal = 1;
place = "{-141, 282}";
type = Stem;
},
{
place = "{750, 32}";
type = Stem;
}
);
layerId = "02376AAC-77FF-49DA-9399-294AF7A35492";
paths = (
{
closed = 1;
nodes = (
"308 641 OFFCURVE",
"300 633 OFFCURVE",
"300 625 CURVE SMOOTH",
"300 141 LINE",
"16 141 LINE SMOOTH",
"8 141 OFFCURVE",
"0 133 OFFCURVE",
"0 125 CURVE SMOOTH",
"0 -125 LINE SMOOTH",
"0 -134 OFFCURVE",
"8 -141 OFFCURVE",
"16 -141 CURVE SMOOTH",
"316 -141 LINE SMOOTH",
"325 -141 OFFCURVE",
"332 -134 OFFCURVE",
"332 -125 CURVE SMOOTH",
"332 625 LINE SMOOTH",
"332 633 OFFCURVE",
"325 641 OFFCURVE",
"316 641 CURVE SMOOTH"
);
}
);
width = 332;
}
);
note = uniE934_uniE93E;
unicode = F572;
},
{
glyphname = uniE938_uniE94B;
lastChange = "2019-03-26 12:22:50 +0000";
layers = (
{
hints = (
{
horizontal = 1;
place = "{-141, 32}";
type = Stem;
},
{
horizontal = 1;
place = "{109, 32}";
type = Stem;
},
{
place = "{0, 32}";
type = Stem;
},
{
place = "{301, 32}";
type = Stem;
}
);
layerId = "02376AAC-77FF-49DA-9399-294AF7A35492";
paths = (
{
closed = 1;
nodes = (
"157 460 LINE",
"157 576 LINE",
"314 322 LINE SMOOTH",
"317 317 OFFCURVE",
"323 315 OFFCURVE",
"328 315 CURVE SMOOTH",
"331 315 OFFCURVE",
"333 315 OFFCURVE",
"336 317 CURVE",
"341 320 OFFCURVE",
"344 325 OFFCURVE",
"344 330 CURVE SMOOTH",
"344 333 OFFCURVE",
"343 336 OFFCURVE",
"341 339 CURVE",
"155 641 LINE SMOOTH",
"152 646 OFFCURVE",
"146 649 OFFCURVE",
"141 649 CURVE SMOOTH",
"140 649 OFFCURVE",
"138 648 OFFCURVE",
"137 648 CURVE",
"130 646 OFFCURVE",
"125 640 OFFCURVE",
"125 633 CURVE SMOOTH",
"125 131 LINE",
"5 11 LINE SMOOTH",
"2 8 OFFCURVE",
"0 4 OFFCURVE",
"0 0 CURVE SMOOTH",
"0 -4 OFFCURVE",
"2 -8 OFFCURVE",
"5 -11 CURVE SMOOTH",
"130 -136 LINE SMOOTH",
"133 -139 OFFCURVE",
"137 -141 OFFCURVE",
"141 -141 CURVE SMOOTH",
"146 -141 OFFCURVE",
"150 -139 OFFCURVE",
"153 -136 CURVE SMOOTH",
"278 -11 LINE SMOOTH",
"281 -8 OFFCURVE",
"282 -4 OFFCURVE",
"282 0 CURVE SMOOTH",
"282 4 OFFCURVE",
"281 8 OFFCURVE",
"278 11 CURVE SMOOTH",
"157 132 LINE",
"157 399 LINE",
"314 148 LINE SMOOTH",
"317 143 OFFCURVE",
"322 140 OFFCURVE",
"328 140 CURVE SMOOTH",
"331 140 OFFCURVE",
"334 141 OFFCURVE",
"336 143 CURVE",
"341 146 OFFCURVE",
"344 151 OFFCURVE",
"344 156 CURVE SMOOTH",
"344 159 OFFCURVE",
"343 162 OFFCURVE",
"341 165 CURVE SMOOTH"
);
}
);
width = 344;
}
);
note = uniE938_uniE94B;
unicode = F56A;
},
{
glyphname = uniE938_uniE94C;
lastChange = "2019-03-26 12:22:28 +0000";
layers = (
{
hints = (
{
horizontal = 1;
place = "{-141, 32}";
type = Stem;
},
{
horizontal = 1;
place = "{109, 32}";
type = Stem;
},
{
place = "{0, 32}";
type = Stem;
},
{
place = "{171, 162}";
type = Stem;
},
{
place = "{301, 32}";
type = Stem;
}
);
layerId = "02376AAC-77FF-49DA-9399-294AF7A35492";
paths = (
{
closed = 1;
nodes = (
"343 -162 OFFCURVE",
"344 -159 OFFCURVE",
"344 -156 CURVE SMOOTH",
"344 -151 OFFCURVE",
"341 -146 OFFCURVE",
"336 -143 CURVE",
"334 -141 OFFCURVE",
"331 -140 OFFCURVE",
"328 -140 CURVE SMOOTH",
"322 -140 OFFCURVE",
"317 -143 OFFCURVE",
"314 -148 CURVE SMOOTH",
"157 -399 LINE",
"157 -132 LINE",
"278 -11 LINE SMOOTH",
"281 -8 OFFCURVE",
"282 -4 OFFCURVE",
"282 0 CURVE SMOOTH",
"282 4 OFFCURVE",
"281 8 OFFCURVE",
"278 11 CURVE SMOOTH",
"153 136 LINE SMOOTH",
"150 139 OFFCURVE",
"146 141 OFFCURVE",
"141 141 CURVE SMOOTH",
"137 141 OFFCURVE",
"133 139 OFFCURVE",
"130 136 CURVE SMOOTH",
"5 11 LINE SMOOTH",
"2 8 OFFCURVE",
"0 4 OFFCURVE",
"0 0 CURVE SMOOTH",
"0 -4 OFFCURVE",
"2 -8 OFFCURVE",
"5 -11 CURVE SMOOTH",
"125 -131 LINE",
"125 -633 LINE SMOOTH",
"125 -640 OFFCURVE",
"130 -646 OFFCURVE",
"137 -648 CURVE",
"138 -648 OFFCURVE",
"140 -649 OFFCURVE",
"141 -649 CURVE SMOOTH",
"146 -649 OFFCURVE",
"152 -646 OFFCURVE",
"155 -641 CURVE SMOOTH",
"341 -339 LINE",
"343 -336 OFFCURVE",
"344 -333 OFFCURVE",
"344 -330 CURVE SMOOTH",
"344 -325 OFFCURVE",
"341 -320 OFFCURVE",
"336 -317 CURVE",
"333 -315 OFFCURVE",
"331 -315 OFFCURVE",
"328 -315 CURVE SMOOTH",
"323 -315 OFFCURVE",
"317 -317 OFFCURVE",
"314 -322 CURVE SMOOTH",
"157 -576 LINE",
"157 -460 LINE",
"341 -165 LINE SMOOTH"
);
}
);
width = 344;
}
);
note = uniE938_uniE94C;
unicode = F569;
},
{
glyphname = uniE938_uniE94A;
lastChange = "2019-03-26 11:48:46 +0000";
layers = (
{
hints = (
{
horizontal = 1;
place = "{-650, 790}";
type = Stem;
},
{
place = "{125, 32}";
type = Stem;
}
);
layerId = "02376AAC-77FF-49DA-9399-294AF7A35492";
paths = (
{
closed = 1;
nodes = (
"342 -337 OFFCURVE",
"343 -334 OFFCURVE",
"343 -331 CURVE SMOOTH",
"343 -326 OFFCURVE",
"340 -321 OFFCURVE",
"335 -318 CURVE",
"333 -316 OFFCURVE",
"330 -316 OFFCURVE",
"327 -316 CURVE SMOOTH",
"322 -316 OFFCURVE",
"316 -318 OFFCURVE",
"313 -323 CURVE SMOOTH",
"157 -577 LINE",
"157 -133 LINE",
"278 -12 LINE SMOOTH",
"281 -9 OFFCURVE",
"282 -5 OFFCURVE",
"282 -1 CURVE SMOOTH",
"282 3 OFFCURVE",
"281 7 OFFCURVE",
"278 10 CURVE SMOOTH",
"153 135 LINE SMOOTH",
"150 138 OFFCURVE",
"146 140 OFFCURVE",
"141 140 CURVE SMOOTH",
"137 140 OFFCURVE",
"133 138 OFFCURVE",
"130 135 CURVE SMOOTH",
"5 10 LINE SMOOTH",
"2 7 OFFCURVE",
"0 3 OFFCURVE",
"0 -1 CURVE SMOOTH",
"0 -5 OFFCURVE",
"2 -9 OFFCURVE",
"5 -12 CURVE SMOOTH",
"125 -132 LINE",
"125 -634 LINE SMOOTH",
"125 -641 OFFCURVE",
"129 -647 OFFCURVE",
"136 -649 CURVE",
"137 -649 OFFCURVE",
"139 -650 OFFCURVE",
"140 -650 CURVE SMOOTH",
"145 -650 OFFCURVE",
"151 -647 OFFCURVE",
"154 -642 CURVE SMOOTH",
"340 -340 LINE"
);
}
);
width = 343;
}
);
note = uniE938_uniE94A;
unicode = F5A5;
},
{
glyphname = uniE938_uniE949;
lastChange = "2019-03-26 11:50:11 +0000";
layers = (
{
hints = (
{
horizontal = 1;
place = "{-141, 790}";
type = Stem;
},
{
place = "{125, 32}";
type = Stem;
}
);
layerId = "02376AAC-77FF-49DA-9399-294AF7A35492";
paths = (
{
closed = 1;
nodes = (
"154 641 LINE SMOOTH",
"151 646 OFFCURVE",
"145 649 OFFCURVE",
"140 649 CURVE SMOOTH",
"139 649 OFFCURVE",
"137 648 OFFCURVE",
"136 648 CURVE",
"129 646 OFFCURVE",
"125 640 OFFCURVE",
"125 633 CURVE SMOOTH",
"125 131 LINE",
"5 11 LINE SMOOTH",
"2 8 OFFCURVE",
"0 4 OFFCURVE",
"0 0 CURVE SMOOTH",
"0 -4 OFFCURVE",
"2 -8 OFFCURVE",
"5 -11 CURVE SMOOTH",
"130 -136 LINE SMOOTH",
"133 -139 OFFCURVE",
"137 -141 OFFCURVE",
"141 -141 CURVE SMOOTH",
"146 -141 OFFCURVE",
"150 -139 OFFCURVE",
"153 -136 CURVE SMOOTH",
"278 -11 LINE SMOOTH",
"281 -8 OFFCURVE",
"282 -4 OFFCURVE",
"282 0 CURVE SMOOTH",
"282 4 OFFCURVE",
"281 8 OFFCURVE",
"278 11 CURVE SMOOTH",
"157 132 LINE",
"157 576 LINE",
"313 322 LINE SMOOTH",
"316 317 OFFCURVE",
"322 315 OFFCURVE",
"327 315 CURVE SMOOTH",
"330 315 OFFCURVE",
"333 315 OFFCURVE",
"335 317 CURVE",
"340 320 OFFCURVE",
"343 325 OFFCURVE",
"343 330 CURVE SMOOTH",
"343 333 OFFCURVE",
"342 336 OFFCURVE",
"340 339 CURVE"
);
}
);
width = 343;
}
);
note = uniE938_uniE949;
unicode = F5A6;
},
{
glyphname = uniE911;
lastChange = "2019-03-25 21:17:36 +0000";
layers = (
{
hints = (
{
horizontal = 1;
place = "{-266, 48}";
type = Stem;
},
{
horizontal = 1;
place = "{217, 48}";
type = Stem;
},
{
place = "{1, 48}";
type = Stem;
},
{
place = "{484, 48}";
type = Stem;
}
);
layerId = "02376AAC-77FF-49DA-9399-294AF7A35492";
paths = (
{
closed = 1;
nodes = (
"337 -266 OFFCURVE",
"404 -238 OFFCURVE",
"454 -188 CURVE SMOOTH",
"504 -138 OFFCURVE",
"532 -71 OFFCURVE",
"532 0 CURVE SMOOTH",
"532 70 OFFCURVE",
"504 137 OFFCURVE",
"454 187 CURVE SMOOTH",
"404 237 OFFCURVE",
"337 265 OFFCURVE",
"266 265 CURVE SMOOTH",
"196 265 OFFCURVE",
"129 237 OFFCURVE",
"79 187 CURVE SMOOTH",
"29 137 OFFCURVE",
"1 70 OFFCURVE",
"1 0 CURVE SMOOTH",
"1 -71 OFFCURVE",
"29 -138 OFFCURVE",
"79 -188 CURVE SMOOTH",
"129 -238 OFFCURVE",
"196 -266 OFFCURVE",
"266 -266 CURVE SMOOTH"
);
},
{
closed = 1;
nodes = (
"324 217 OFFCURVE",
"379 194 OFFCURVE",
"420 153 CURVE SMOOTH",
"461 112 OFFCURVE",
"484 58 OFFCURVE",
"484 0 CURVE SMOOTH",
"484 -58 OFFCURVE",
"461 -113 OFFCURVE",
"420 -154 CURVE SMOOTH",
"379 -195 OFFCURVE",
"324 -218 OFFCURVE",
"266 -218 CURVE SMOOTH",
"208 -218 OFFCURVE",
"154 -195 OFFCURVE",
"113 -154 CURVE SMOOTH",
"72 -113 OFFCURVE",
"49 -58 OFFCURVE",
"49 0 CURVE SMOOTH",
"49 58 OFFCURVE",
"72 112 OFFCURVE",
"113 153 CURVE SMOOTH",
"154 194 OFFCURVE",
"208 217 OFFCURVE",
"266 217 CURVE SMOOTH"
);
}
);
width = 532;
}
);
note = uniE911;
unicode = E911;
},
{
glyphname = uniE939_uniE93E;
lastChange = "2019-03-26 08:07:06 +0000";
layers = (
{
hints = (
{
horizontal = 1;
place = "{0, 21}";
target = up;
type = BottomGhost;
},
{
place = "{124, 32}";
type = Stem;
}
);
layerId = "02376AAC-77FF-49DA-9399-294AF7A35492";
paths = (
{
closed = 1;
nodes = (
"156 132 LINE",
"156 646 LINE SMOOTH",
"156 655 OFFCURVE",
"149 662 OFFCURVE",
"140 662 CURVE SMOOTH",
"132 662 OFFCURVE",
"124 655 OFFCURVE",
"124 646 CURVE SMOOTH",
"124 131 LINE",
"5 11 LINE SMOOTH",
"2 8 OFFCURVE",
"0 4 OFFCURVE",
"0 0 CURVE SMOOTH",
"0 -4 OFFCURVE",
"2 -9 OFFCURVE",
"5 -12 CURVE SMOOTH",
"130 -137 LINE SMOOTH",
"133 -140 OFFCURVE",
"137 -141 OFFCURVE",
"141 -141 CURVE SMOOTH",
"146 -141 OFFCURVE",
"150 -140 OFFCURVE",
"153 -137 CURVE SMOOTH",
"278 -12 LINE SMOOTH",
"281 -9 OFFCURVE",
"282 -4 OFFCURVE",
"282 0 CURVE SMOOTH",
"282 4 OFFCURVE",
"281 8 OFFCURVE",
"278 11 CURVE SMOOTH"
);
},
{
closed = 1;
nodes = (
"141 -103 LINE",
"39 0 LINE",
"141 102 LINE",
"244 0 LINE"
);
}
);
width = 282;
}
);
note = uniE939_uniE93E;
unicode = F5A1;
},
{
glyphname = uniE939_uniE93F;
lastChange = "2019-03-26 08:07:06 +0000";
layers = (
{
hints = (
{
horizontal = 1;
place = "{-650, 790}";
type = Stem;
},
{
place = "{125, 32}";
type = Stem;
}
);
layerId = "02376AAC-77FF-49DA-9399-294AF7A35492";
paths = (
{
closed = 1;
nodes = (
"278 -11 LINE SMOOTH",
"281 -8 OFFCURVE",
"282 -4 OFFCURVE",
"282 0 CURVE SMOOTH",
"282 4 OFFCURVE",
"281 9 OFFCURVE",
"278 12 CURVE SMOOTH",
"153 137 LINE SMOOTH",
"150 140 OFFCURVE",
"146 141 OFFCURVE",
"141 141 CURVE SMOOTH",
"137 141 OFFCURVE",
"133 140 OFFCURVE",
"130 137 CURVE SMOOTH",
"5 12 LINE SMOOTH",
"2 9 OFFCURVE",
"0 4 OFFCURVE",
"0 0 CURVE SMOOTH",
"0 -4 OFFCURVE",
"2 -8 OFFCURVE",
"5 -11 CURVE SMOOTH",
"124 -131 LINE",
"124 -646 LINE SMOOTH",
"124 -655 OFFCURVE",
"132 -662 OFFCURVE",
"140 -662 CURVE SMOOTH",
"149 -662 OFFCURVE",
"156 -655 OFFCURVE",
"156 -646 CURVE SMOOTH",
"156 -132 LINE"
);
},
{
closed = 1;
nodes = (
"244 0 LINE",
"141 -102 LINE",
"39 0 LINE",
"141 103 LINE"
);
}
);
width = 282;
}
);
note = uniE939_uniE93F;
unicode = F59B;
},
{
glyphname = uniE939_uniE949;
lastChange = "2019-03-26 12:10:44 +0000";
layers = (
{
hints = (
{
horizontal = 1;
place = "{0, 21}";
target = up;
type = BottomGhost;
},
{
place = "{124, 32}";
type = Stem;
}
);
layerId = "02376AAC-77FF-49DA-9399-294AF7A35492";
paths = (
{
closed = 1;
nodes = (
"153 640 LINE SMOOTH",
"150 645 OFFCURVE",
"144 648 OFFCURVE",
"139 648 CURVE SMOOTH",
"138 648 OFFCURVE",
"136 647 OFFCURVE",
"135 647 CURVE",
"128 645 OFFCURVE",
"124 639 OFFCURVE",
"124 632 CURVE SMOOTH",
"124 130 LINE",
"5 11 LINE SMOOTH",
"2 8 OFFCURVE",
"0 4 OFFCURVE",
"0 0 CURVE SMOOTH",
"0 -4 OFFCURVE",
"2 -9 OFFCURVE",
"5 -12 CURVE SMOOTH",
"130 -137 LINE SMOOTH",
"133 -140 OFFCURVE",
"137 -141 OFFCURVE",
"141 -141 CURVE SMOOTH",
"145 -141 OFFCURVE",
"150 -140 OFFCURVE",
"153 -137 CURVE SMOOTH",
"278 -12 LINE SMOOTH",
"281 -9 OFFCURVE",
"282 -4 OFFCURVE",
"282 0 CURVE SMOOTH",
"282 4 OFFCURVE",
"281 8 OFFCURVE",
"278 11 CURVE SMOOTH",
"156 133 LINE",
"156 575 LINE",
"312 321 LINE SMOOTH",
"315 316 OFFCURVE",
"321 314 OFFCURVE",
"326 314 CURVE SMOOTH",
"329 314 OFFCURVE",
"332 314 OFFCURVE",
"334 316 CURVE",
"339 319 OFFCURVE",
"342 324 OFFCURVE",
"342 329 CURVE SMOOTH",
"342 332 OFFCURVE",
"341 335 OFFCURVE",
"339 338 CURVE"
);
},
{
closed = 1;
nodes = (
"141 -103 LINE",
"39 0 LINE",
"141 102 LINE",
"244 0 LINE"
);
}
);
width = 342;
}
);
note = uniE939_uniE949;
unicode = F5AA;
},
{
glyphname = uniE939_uniE94A;
lastChange = "2019-03-26 12:08:35 +0000";
layers = (
{
hints = (
{
horizontal = 1;
place = "{0, 21}";
target = up;
type = BottomGhost;
},
{
place = "{124, 32}";
type = Stem;
}
);
layerId = "02376AAC-77FF-49DA-9399-294AF7A35492";
paths = (
{
closed = 1;
nodes = (
"339 -338 LINE",
"341 -335 OFFCURVE",
"342 -332 OFFCURVE",
"342 -329 CURVE SMOOTH",
"342 -324 OFFCURVE",
"339 -319 OFFCURVE",
"334 -316 CURVE",
"332 -314 OFFCURVE",
"329 -314 OFFCURVE",
"326 -314 CURVE SMOOTH",
"321 -314 OFFCURVE",
"315 -316 OFFCURVE",
"312 -321 CURVE SMOOTH",
"156 -575 LINE",
"156 -133 LINE",
"278 -11 LINE SMOOTH",
"281 -8 OFFCURVE",
"282 -4 OFFCURVE",
"282 0 CURVE SMOOTH",
"282 4 OFFCURVE",
"281 9 OFFCURVE",
"278 12 CURVE SMOOTH",
"153 137 LINE SMOOTH",
"150 140 OFFCURVE",
"145 141 OFFCURVE",
"141 141 CURVE SMOOTH",
"137 141 OFFCURVE",
"133 140 OFFCURVE",
"130 137 CURVE SMOOTH",
"5 12 LINE SMOOTH",
"2 9 OFFCURVE",
"0 4 OFFCURVE",
"0 0 CURVE SMOOTH",
"0 -4 OFFCURVE",
"2 -8 OFFCURVE",
"5 -11 CURVE SMOOTH",
"124 -130 LINE",
"124 -632 LINE SMOOTH",
"124 -639 OFFCURVE",
"128 -645 OFFCURVE",
"135 -647 CURVE",
"136 -647 OFFCURVE",
"138 -648 OFFCURVE",
"139 -648 CURVE SMOOTH",
"144 -648 OFFCURVE",
"150 -645 OFFCURVE",
"153 -640 CURVE SMOOTH"
);
},
{
closed = 1;
nodes = (
"244 0 LINE",
"141 -102 LINE",
"39 0 LINE",
"141 103 LINE"
);
}
);
width = 342;
}
);
note = uniE939_uniE94A;
unicode = F5A9;
},
{
glyphname = uniE939_uniE94B;
lastChange = "2019-03-26 12:19:59 +0000";
layers = (
{
hints = (
{
horizontal = 1;
place = "{-141, 32}";
type = Stem;
},
{
horizontal = 1;
place = "{109, 32}";
type = Stem;
},
{
place = "{0, 32}";
type = Stem;
},
{
place = "{300, 32}";
type = Stem;
}
);
layerId = "02376AAC-77FF-49DA-9399-294AF7A35492";
paths = (
{
closed = 1;
nodes = (
"156 459 LINE",
"156 575 LINE",
"313 321 LINE SMOOTH",
"316 316 OFFCURVE",
"322 314 OFFCURVE",
"327 314 CURVE SMOOTH",
"330 314 OFFCURVE",
"332 314 OFFCURVE",
"335 316 CURVE",
"340 319 OFFCURVE",
"343 324 OFFCURVE",
"343 329 CURVE SMOOTH",
"343 332 OFFCURVE",
"342 335 OFFCURVE",
"340 338 CURVE",
"154 640 LINE SMOOTH",
"151 645 OFFCURVE",
"145 648 OFFCURVE",
"140 648 CURVE SMOOTH",
"139 648 OFFCURVE",
"137 647 OFFCURVE",
"136 647 CURVE",
"129 645 OFFCURVE",
"124 639 OFFCURVE",
"124 632 CURVE SMOOTH",
"124 130 LINE",
"5 11 LINE SMOOTH",
"2 8 OFFCURVE",
"0 4 OFFCURVE",
"0 0 CURVE SMOOTH",
"0 -4 OFFCURVE",
"2 -9 OFFCURVE",
"5 -12 CURVE SMOOTH",
"130 -137 LINE SMOOTH",
"133 -140 OFFCURVE",
"137 -141 OFFCURVE",
"141 -141 CURVE SMOOTH",
"145 -141 OFFCURVE",
"150 -140 OFFCURVE",
"153 -137 CURVE SMOOTH",
"278 -12 LINE SMOOTH",
"281 -9 OFFCURVE",
"282 -4 OFFCURVE",
"282 0 CURVE SMOOTH",
"282 4 OFFCURVE",
"281 8 OFFCURVE",
"278 11 CURVE SMOOTH",
"156 132 LINE",
"156 398 LINE",
"313 147 LINE SMOOTH",
"316 142 OFFCURVE",
"321 139 OFFCURVE",
"327 139 CURVE SMOOTH",
"330 139 OFFCURVE",
"333 140 OFFCURVE",
"335 142 CURVE",
"340 145 OFFCURVE",
"343 150 OFFCURVE",
"343 155 CURVE SMOOTH",
"343 158 OFFCURVE",
"342 161 OFFCURVE",
"340 164 CURVE SMOOTH"
);
},
{
closed = 1;
nodes = (
"141 -103 LINE",
"39 0 LINE",
"141 102 LINE",
"244 0 LINE"
);
}
);
width = 343;
}
);
note = uniE939_uniE94B;
unicode = F56E;
},
{
glyphname = uniE939_uniE94C;
lastChange = "2019-03-26 12:19:23 +0000";
layers = (
{
hints = (
{
horizontal = 1;
place = "{-141, 32}";
type = Stem;
},
{
horizontal = 1;
place = "{109, 32}";
type = Stem;
},
{
place = "{0, 32}";
type = Stem;
},
{
place = "{300, 32}";
type = Stem;
}
);
layerId = "02376AAC-77FF-49DA-9399-294AF7A35492";
paths = (
{
closed = 1;
nodes = (
"340 -164 LINE SMOOTH",
"342 -161 OFFCURVE",
"343 -158 OFFCURVE",
"343 -155 CURVE SMOOTH",
"343 -150 OFFCURVE",
"340 -145 OFFCURVE",
"335 -142 CURVE",
"333 -140 OFFCURVE",
"330 -139 OFFCURVE",
"327 -139 CURVE SMOOTH",
"321 -139 OFFCURVE",
"316 -142 OFFCURVE",
"313 -147 CURVE SMOOTH",
"156 -398 LINE",
"156 -132 LINE",
"278 -11 LINE SMOOTH",
"281 -8 OFFCURVE",
"282 -4 OFFCURVE",
"282 0 CURVE SMOOTH",
"282 4 OFFCURVE",
"281 9 OFFCURVE",
"278 12 CURVE SMOOTH",
"153 137 LINE SMOOTH",
"150 140 OFFCURVE",
"145 141 OFFCURVE",
"141 141 CURVE SMOOTH",
"137 141 OFFCURVE",
"133 140 OFFCURVE",
"130 137 CURVE SMOOTH",
"5 12 LINE SMOOTH",
"2 9 OFFCURVE",
"0 4 OFFCURVE",
"0 0 CURVE SMOOTH",
"0 -4 OFFCURVE",
"2 -8 OFFCURVE",
"5 -11 CURVE SMOOTH",
"124 -130 LINE",
"124 -632 LINE SMOOTH",
"124 -639 OFFCURVE",
"129 -645 OFFCURVE",
"136 -647 CURVE",
"137 -647 OFFCURVE",
"139 -648 OFFCURVE",
"140 -648 CURVE SMOOTH",
"145 -648 OFFCURVE",
"151 -645 OFFCURVE",
"154 -640 CURVE SMOOTH",
"340 -338 LINE",
"342 -335 OFFCURVE",
"343 -332 OFFCURVE",
"343 -329 CURVE SMOOTH",
"343 -324 OFFCURVE",
"340 -319 OFFCURVE",
"335 -316 CURVE",
"332 -314 OFFCURVE",
"330 -314 OFFCURVE",
"327 -314 CURVE SMOOTH",
"322 -314 OFFCURVE",
"316 -316 OFFCURVE",
"313 -321 CURVE SMOOTH",
"156 -575 LINE",
"156 -459 LINE"
);
},
{
closed = 1;
nodes = (
"244 0 LINE",
"141 -102 LINE",
"39 0 LINE",
"141 103 LINE"
);
}
);
width = 343;
}
);
note = uniE939_uniE94C;
unicode = F56D;
},
{
glyphname = uniE9E1;
lastChange = "2019-03-28 19:41:24 +0000";
layers = (
{
hints = (
{
horizontal = 1;
place = "{-141, 75}";
type = Stem;
},
{
horizontal = 1;
place = "{64, 74}";
type = Stem;
},
{
place = "{0, 36}";
type = Stem;
},
{
place = "{150, 36}";
type = Stem;
}
);
layerId = "02376AAC-77FF-49DA-9399-294AF7A35492";
paths = (
{
closed = 1;
nodes = (
"36 138 LINE",
"36 408 LINE SMOOTH",
"36 415 OFFCURVE",
"32 420 OFFCURVE",
"27 420 CURVE SMOOTH",
"9 420 LINE SMOOTH",
"4 420 OFFCURVE",
"0 415 OFFCURVE",
"0 408 CURVE SMOOTH",
"0 -127 LINE SMOOTH",
"0 -135 OFFCURVE",
"5 -141 OFFCURVE",
"12 -141 CURVE SMOOTH",
"174 -141 LINE SMOOTH",
"181 -141 OFFCURVE",
"186 -135 OFFCURVE",
"186 -129 CURVE SMOOTH",
"186 126 LINE SMOOTH",
"186 133 OFFCURVE",
"182 138 OFFCURVE",
"177 138 CURVE SMOOTH"
);
},
{
closed = 1;
nodes = (
"150 64 LINE",
"150 -66 LINE",
"36 -66 LINE",
"36 64 LINE"
);
}
);
width = 186;
}
);
note = uniE9E1;
unicode = E9E1;
},
{
glyphname = uniE080;
lastChange = "2019-06-18 07:31:11 +0000";
layers = (
{
hints = (
{
horizontal = 1;
place = "{-250, 45}";
type = Stem;
},
{
horizontal = 1;
place = "{220, 31}";
type = Stem;
},
{
place = "{20, 140}";
type = Stem;
},
{
place = "{310, 140}";
type = Stem;
}
);
layerId = "02376AAC-77FF-49DA-9399-294AF7A35492";
paths = (
{
closed = 1;
nodes = (
"450 139 OFFCURVE",
"354 251 OFFCURVE",
"235 251 CURVE SMOOTH",
"116 251 OFFCURVE",
"20 139 OFFCURVE",
"20 0 CURVE SMOOTH",
"20 -138 OFFCURVE",
"116 -250 OFFCURVE",
"235 -250 CURVE SMOOTH",
"354 -250 OFFCURVE",
"450 -138 OFFCURVE",
"450 0 CURVE SMOOTH"
);
},
{
closed = 1;
nodes = (
"276 220 OFFCURVE",
"310 125 OFFCURVE",
"310 7 CURVE SMOOTH",
"310 -110 OFFCURVE",
"276 -205 OFFCURVE",
"235 -205 CURVE SMOOTH",
"193 -205 OFFCURVE",
"160 -110 OFFCURVE",
"160 7 CURVE SMOOTH",
"160 125 OFFCURVE",
"193 220 OFFCURVE",
"235 220 CURVE SMOOTH"
);
}
);
width = 470;
}
);
note = uniE080;
unicode = E080;
},
{
glyphname = uniE081;
lastChange = "2019-06-18 07:31:11 +0000";
layers = (
{
hints = (
{
horizontal = 1;
place = "{-250, 31}";
type = Stem;
},
{
horizontal = 1;
place = "{251, -20}";
target = down;
type = TopGhost;
},
{
place = "{124, 143}";
type = Stem;
},
{
horizontal = 1;
place = "{250, -20}";
target = down;
type = TopGhost;
}
);
layerId = "02376AAC-77FF-49DA-9399-294AF7A35492";
paths = (
{
closed = 1;
nodes = (
"24 13 LINE",
"24 13 OFFCURVE",
"20 7 OFFCURVE",
"20 0 CURVE SMOOTH",
"20 -5 OFFCURVE",
"23 -11 OFFCURVE",
"31 -14 CURVE",
"35 -15 OFFCURVE",
"39 -16 OFFCURVE",
"40 -16 CURVE SMOOTH",
"50 -16 OFFCURVE",
"54 -7 OFFCURVE",
"54 -7 CURVE SMOOTH",
"54 -7 OFFCURVE",
"97 62 OFFCURVE",
"108 81 CURVE SMOOTH",
"112 88 OFFCURVE",
"116 91 OFFCURVE",
"118 91 CURVE SMOOTH",
"122 91 OFFCURVE",
"124 83 OFFCURVE",
"124 77 CURVE SMOOTH",
"124 -181 LINE SMOOTH",
"124 -204 OFFCURVE",
"101 -219 OFFCURVE",
"80 -219 CURVE SMOOTH",
"73 -219 OFFCURVE",
"63 -222 OFFCURVE",
"63 -234 CURVE SMOOTH",
"63 -245 OFFCURVE",
"72 -250 OFFCURVE",
"85 -250 CURVE SMOOTH",
"298 -250 LINE SMOOTH",
"314 -250 OFFCURVE",
"314 -234 OFFCURVE",
"314 -234 CURVE SMOOTH",
"314 -234 OFFCURVE",
"314 -219 OFFCURVE",
"299 -219 CURVE SMOOTH",
"285 -219 OFFCURVE",
"267 -201 OFFCURVE",
"267 -184 CURVE SMOOTH",
"267 228 LINE SMOOTH",
"267 244 OFFCURVE",
"261 250 OFFCURVE",
"247 251 CURVE",
"233 251 OFFCURVE",
"208 247 OFFCURVE",
"195 247 CURVE SMOOTH",
"176 247 OFFCURVE",
"158 248 OFFCURVE",
"143 250 CURVE",
"141 250 OFFCURVE",
"139 251 OFFCURVE",
"138 251 CURVE SMOOTH",
"128 251 OFFCURVE",
"124 241 OFFCURVE",
"120 232 CURVE SMOOTH"
);
}
);
width = 334;
}
);
note = uniE081;
unicode = E081;
},
{
glyphname = uniE082;
lastChange = "2019-06-18 07:31:11 +0000";
layers = (
{
hints = (
{
horizontal = 1;
place = "{-250, 117}";
type = Stem;
},
{
horizontal = 1;
place = "{20, 234}";
type = Stem;
},
{
place = "{20, 161}";
type = Stem;
},
{
place = "{281, 145}";
type = Stem;
},
{
horizontal = 1;
place = "{-257, 21}";
target = up;
type = BottomGhost;
},
{
horizontal = 1;
place = "{-196, 101}";
type = Stem;
},
{
horizontal = 1;
place = "{229, 25}";
type = Stem;
}
);
layerId = "02376AAC-77FF-49DA-9399-294AF7A35492";
paths = (
{
closed = 1;
nodes = (
"421 -79 OFFCURVE",
"416 -77 OFFCURVE",
"409 -77 CURVE SMOOTH",
"401 -77 OFFCURVE",
"398 -81 OFFCURVE",
"396 -87 CURVE",
"396 -88 OFFCURVE",
"395 -89 OFFCURVE",
"395 -90 CURVE",
"385 -114 OFFCURVE",
"377 -133 OFFCURVE",
"356 -133 CURVE SMOOTH",
"351 -133 OFFCURVE",
"346 -132 OFFCURVE",
"339 -130 CURVE",
"326 -125 OFFCURVE",
"319 -124 OFFCURVE",
"309 -119 CURVE",
"289 -111 OFFCURVE",
"242 -95 OFFCURVE",
"201 -95 CURVE SMOOTH",
"188 -95 OFFCURVE",
"175 -97 OFFCURVE",
"164 -101 CURVE",
"186 -65 OFFCURVE",
"271 -35 OFFCURVE",
"293 -29 CURVE SMOOTH",
"308 -25 OFFCURVE",
"350 -17 OFFCURVE",
"383 10 CURVE SMOOTH",
"407 29 OFFCURVE",
"426 58 OFFCURVE",
"426 102 CURVE SMOOTH",
"426 149 OFFCURVE",
"406 183 OFFCURVE",
"380 205 CURVE SMOOTH",
"329 248 OFFCURVE",
"251 254 OFFCURVE",
"229 254 CURVE SMOOTH",
"202 254 OFFCURVE",
"168 253 OFFCURVE",
"142 247 CURVE SMOOTH",
"107 240 OFFCURVE",
"72 219 OFFCURVE",
"48 191 CURVE SMOOTH",
"31 170 OFFCURVE",
"20 145 OFFCURVE",
"20 118 CURVE SMOOTH",
"20 104 OFFCURVE",
"23 90 OFFCURVE",
"29 75 CURVE",
"44 44 OFFCURVE",
"75 20 OFFCURVE",
"111 20 CURVE SMOOTH",
"172 20 OFFCURVE",
"181 83 OFFCURVE",
"181 108 CURVE SMOOTH",
"181 168 OFFCURVE",
"112 171 OFFCURVE",
"112 191 CURVE",
"114 205 OFFCURVE",
"132 229 OFFCURVE",
"191 229 CURVE SMOOTH",
"280 229 OFFCURVE",
"281 162 OFFCURVE",
"281 133 CURVE SMOOTH",
"281 95 OFFCURVE",
"269 60 OFFCURVE",
"247 31 CURVE SMOOTH",
"211 -17 OFFCURVE",
"183 -41 OFFCURVE",
"134 -71 CURVE SMOOTH",
"79 -106 OFFCURVE",
"40 -155 OFFCURVE",
"23 -218 CURVE",
"23 -220 OFFCURVE",
"22 -222 OFFCURVE",
"22 -224 CURVE SMOOTH",
"22 -235 OFFCURVE",
"29 -248 OFFCURVE",
"40 -255 CURVE SMOOTH",
"43 -257 OFFCURVE",
"46 -257 OFFCURVE",
"48 -257 CURVE SMOOTH",
"70 -257 OFFCURVE",
"82 -196 OFFCURVE",
"141 -196 CURVE SMOOTH",
"181 -196 OFFCURVE",
"196 -250 OFFCURVE",
"285 -250 CURVE SMOOTH",
"328 -250 OFFCURVE",
"405 -246 OFFCURVE",
"421 -91 CURVE"
);
}
);
width = 446;
}
);
note = uniE082;
unicode = E082;
},
{
glyphname = uniE083;
lastChange = "2019-06-18 07:31:11 +0000";
layers = (
{
hints = (
{
horizontal = 1;
place = "{-251, 38}";
type = Stem;
},
{
horizontal = 1;
place = "{-4, 29}";
type = Stem;
},
{
horizontal = 1;
place = "{248, -20}";
target = down;
type = TopGhost;
},
{
place = "{26, 152}";
type = Stem;
},
{
place = "{263, 117}";
type = Stem;
},
{
horizontal = 1;
place = "{58, 191}";
type = Stem;
},
{
horizontal = 1;
place = "{215, 34}";
type = Stem;
},
{
place = "{263, 138}";
type = Stem;
}
);
layerId = "02376AAC-77FF-49DA-9399-294AF7A35492";
paths = (
{
closed = 1;
nodes = (
"208 248 OFFCURVE",
"203 249 OFFCURVE",
"198 249 CURVE SMOOTH",
"112 249 OFFCURVE",
"26 192 OFFCURVE",
"26 139 CURVE SMOOTH",
"26 106 OFFCURVE",
"45 62 OFFCURVE",
"107 58 CURVE",
"112 58 LINE SMOOTH",
"156 58 OFFCURVE",
"178 90 OFFCURVE",
"178 123 CURVE SMOOTH",
"178 131 LINE",
"175 168 OFFCURVE",
"150 170 OFFCURVE",
"145 172 CURVE SMOOTH",
"140 174 OFFCURVE",
"125 172 OFFCURVE",
"125 186 CURVE SMOOTH",
"125 190 LINE",
"127 207 OFFCURVE",
"158 215 OFFCURVE",
"167 215 CURVE SMOOTH",
"252 215 OFFCURVE",
"260 162 OFFCURVE",
"260 138 CURVE SMOOTH",
"260 131 LINE SMOOTH",
"260 57 OFFCURVE",
"201 28 OFFCURVE",
"138 25 CURVE",
"128 24 OFFCURVE",
"114 19 OFFCURVE",
"114 8 CURVE SMOOTH",
"114 -4 OFFCURVE",
"131 -4 OFFCURVE",
"139 -4 CURVE SMOOTH",
"254 -4 OFFCURVE",
"263 -82 OFFCURVE",
"263 -95 CURVE SMOOTH",
"263 -201 OFFCURVE",
"209 -213 OFFCURVE",
"187 -213 CURVE SMOOTH",
"183 -213 OFFCURVE",
"179 -212 OFFCURVE",
"178 -212 CURVE",
"170 -211 OFFCURVE",
"151 -211 OFFCURVE",
"150 -196 CURVE",
"150 -191 LINE SMOOTH",
"150 -169 OFFCURVE",
"172 -154 OFFCURVE",
"173 -125 CURVE SMOOTH",
"173 -115 OFFCURVE",
"172 -104 OFFCURVE",
"168 -94 CURVE SMOOTH",
"157 -69 OFFCURVE",
"128 -53 OFFCURVE",
"101 -53 CURVE SMOOTH",
"97 -53 OFFCURVE",
"94 -53 OFFCURVE",
"90 -54 CURVE",
"73 -57 OFFCURVE",
"54 -67 OFFCURVE",
"42 -80 CURVE",
"25 -95 OFFCURVE",
"20 -119 OFFCURVE",
"20 -141 CURVE SMOOTH",
"22 -219 OFFCURVE",
"93 -249 OFFCURVE",
"191 -251 CURVE SMOOTH",
"200 -251 LINE SMOOTH",
"299 -251 OFFCURVE",
"401 -200 OFFCURVE",
"401 -112 CURVE SMOOTH",
"401 -105 LINE",
"400 -91 OFFCURVE",
"398 -77 OFFCURVE",
"392 -64 CURVE",
"388 -54 OFFCURVE",
"381 -44 OFFCURVE",
"373 -35 CURVE",
"367 -27 OFFCURVE",
"359 -20 OFFCURVE",
"349 -14 CURVE SMOOTH",
"328 -2 LINE",
"295 7 LINE",
"290 8 OFFCURVE",
"287 8 OFFCURVE",
"285 12 CURVE SMOOTH",
"284 14 OFFCURVE",
"284 15 OFFCURVE",
"284 17 CURVE SMOOTH",
"284 21 OFFCURVE",
"285 25 OFFCURVE",
"288 26 CURVE",
"299 29 OFFCURVE",
"310 30 OFFCURVE",
"319 35 CURVE",
"334 42 OFFCURVE",
"347 49 OFFCURVE",
"358 62 CURVE SMOOTH",
"374 80 OFFCURVE",
"380 103 OFFCURVE",
"380 126 CURVE SMOOTH",
"380 218 OFFCURVE",
"255 245 OFFCURVE",
"213 248 CURVE"
);
}
);
width = 421;
}
);
note = uniE083;
unicode = E083;
},
{
glyphname = uniE084;
lastChange = "2019-06-18 07:31:11 +0000";
layers = (
{
hints = (
{
horizontal = 1;
place = "{-250, 40}";
type = Stem;
},
{
horizontal = 1;
place = "{-112, 38}";
type = Stem;
},
{
horizontal = 1;
place = "{251, -20}";
target = down;
type = TopGhost;
},
{
place = "{226, 136}";
type = Stem;
},
{
place = "{158, 204}";
type = Stem;
},
{
place = "{226, 189}";
type = Stem;
}
);
layerId = "02376AAC-77FF-49DA-9399-294AF7A35492";
paths = (
{
closed = 1;
nodes = (
"362 -74 LINE",
"362 140 LINE SMOOTH",
"362 148 OFFCURVE",
"361 157 OFFCURVE",
"350 157 CURVE SMOOTH",
"341 157 OFFCURVE",
"336 155 OFFCURVE",
"330 148 CURVE SMOOTH",
"235 33 LINE SMOOTH",
"231 28 OFFCURVE",
"226 22 OFFCURVE",
"226 10 CURVE SMOOTH",
"226 -74 LINE",
"91 -74 LINE",
"171 -6 OFFCURVE",
"331 221 OFFCURVE",
"334 232 CURVE",
"334 234 OFFCURVE",
"335 235 OFFCURVE",
"335 237 CURVE SMOOTH",
"335 245 OFFCURVE",
"328 251 OFFCURVE",
"320 251 CURVE SMOOTH",
"311 251 OFFCURVE",
"270 249 OFFCURVE",
"252 249 CURVE SMOOTH",
"234 249 OFFCURVE",
"189 251 OFFCURVE",
"181 251 CURVE SMOOTH",
"172 251 OFFCURVE",
"158 248 OFFCURVE",
"158 232 CURVE SMOOTH",
"158 108 OFFCURVE",
"60 -31 OFFCURVE",
"30 -73 CURVE SMOOTH",
"24 -81 LINE",
"24 -82 OFFCURVE",
"23 -83 OFFCURVE",
"23 -84 CURVE",
"21 -88 OFFCURVE",
"20 -92 OFFCURVE",
"20 -95 CURVE SMOOTH",
"20 -105 OFFCURVE",
"28 -112 OFFCURVE",
"40 -112 CURVE SMOOTH",
"226 -112 LINE",
"226 -175 LINE SMOOTH",
"226 -202 OFFCURVE",
"204 -210 OFFCURVE",
"186 -210 CURVE SMOOTH",
"170 -210 OFFCURVE",
"163 -219 OFFCURVE",
"163 -229 CURVE SMOOTH",
"163 -239 OFFCURVE",
"167 -250 OFFCURVE",
"182 -250 CURVE SMOOTH",
"395 -250 LINE SMOOTH",
"405 -250 OFFCURVE",
"415 -243 OFFCURVE",
"415 -229 CURVE SMOOTH",
"415 -215 OFFCURVE",
"403 -209 OFFCURVE",
"393 -209 CURVE SMOOTH",
"383 -209 OFFCURVE",
"362 -203 OFFCURVE",
"362 -171 CURVE SMOOTH",
"362 -112 LINE",
"435 -112 LINE SMOOTH",
"445 -112 OFFCURVE",
"450 -105 OFFCURVE",
"450 -93 CURVE SMOOTH",
"450 -81 OFFCURVE",
"446 -74 OFFCURVE",
"435 -74 CURVE SMOOTH"
);
}
);
width = 470;
}
);
note = uniE084;
unicode = E084;
},
{
glyphname = uniE085;
lastChange = "2019-06-18 07:31:11 +0000";
layers = (
{
hints = (
{
horizontal = 1;
place = "{-251, 40}";
type = Stem;
},
{
horizontal = 1;
place = "{43, 35}";
type = Stem;
},
{
horizontal = 1;
place = "{128, 108}";
type = Stem;
},
{
place = "{20, 158}";
type = Stem;
},
{
place = "{248, 135}";
type = Stem;
},
{
horizontal = 1;
place = "{245, -20}";
target = down;
type = TopGhost;
},
{
horizontal = 1;
place = "{246, -20}";
target = down;
type = TopGhost;
},
{
horizontal = 1;
place = "{-251, 216}";
type = Stem;
}
);
layerId = "02376AAC-77FF-49DA-9399-294AF7A35492";
paths = (
{
closed = 1;
nodes = (
"76 59 LINE",
"76 59 OFFCURVE",
"80 115 OFFCURVE",
"81 124 CURVE SMOOTH",
"82 132 OFFCURVE",
"87 137 OFFCURVE",
"96 137 CURVE SMOOTH",
"100 137 LINE",
"110 135 OFFCURVE",
"157 128 OFFCURVE",
"198 128 CURVE SMOOTH",
"337 128 OFFCURVE",
"342 208 OFFCURVE",
"342 224 CURVE SMOOTH",
"342 237 OFFCURVE",
"339 245 OFFCURVE",
"328 245 CURVE SMOOTH",
"315 245 OFFCURVE",
"237 236 OFFCURVE",
"205 236 CURVE SMOOTH",
"173 236 OFFCURVE",
"87 244 OFFCURVE",
"70 246 CURVE",
"52 246 OFFCURVE",
"47 237 OFFCURVE",
"46 229 CURVE",
"35 7 LINE",
"35 5 LINE SMOOTH",
"35 -8 OFFCURVE",
"45 -10 OFFCURVE",
"55 -10 CURVE SMOOTH",
"65 -10 OFFCURVE",
"66 -1 OFFCURVE",
"77 10 CURVE SMOOTH",
"87 20 OFFCURVE",
"111 43 OFFCURVE",
"145 43 CURVE SMOOTH",
"179 43 OFFCURVE",
"248 24 OFFCURVE",
"248 -87 CURVE SMOOTH",
"248 -197 OFFCURVE",
"189 -211 OFFCURVE",
"163 -211 CURVE SMOOTH",
"155 -211 OFFCURVE",
"147 -211 OFFCURVE",
"140 -208 CURVE",
"135 -205 OFFCURVE",
"129 -201 OFFCURVE",
"128 -194 CURVE",
"128 -187 OFFCURVE",
"135 -183 OFFCURVE",
"140 -180 CURVE SMOOTH",
"163 -166 OFFCURVE",
"178 -141 OFFCURVE",
"178 -113 CURVE SMOOTH",
"178 -69 OFFCURVE",
"143 -35 OFFCURVE",
"100 -35 CURVE SMOOTH",
"46 -35 OFFCURVE",
"24 -74 OFFCURVE",
"21 -109 CURVE",
"20 -115 OFFCURVE",
"20 -121 OFFCURVE",
"20 -127 CURVE SMOOTH",
"20 -210 OFFCURVE",
"74 -251 OFFCURVE",
"197 -251 CURVE SMOOTH",
"317 -251 OFFCURVE",
"383 -177 OFFCURVE",
"383 -87 CURVE SMOOTH",
"383 4 OFFCURVE",
"309 78 OFFCURVE",
"218 78 CURVE SMOOTH",
"160 78 OFFCURVE",
"117 68 OFFCURVE",
"85 49 CURVE",
"83 48 OFFCURVE",
"81 48 OFFCURVE",
"80 48 CURVE SMOOTH",
"76 48 OFFCURVE",
"76 52 OFFCURVE",
"76 55 CURVE SMOOTH"
);
}
);
width = 403;
}
);
note = uniE085;
unicode = E085;
},
{
glyphname = uniE086;
lastChange = "2019-06-18 07:31:11 +0000";
layers = (
{
hints = (
{
horizontal = 1;
place = "{-249, 27}";
type = Stem;
},
{
horizontal = 1;
place = "{2, 48}";
type = Stem;
},
{
horizontal = 1;
place = "{227, 24}";
type = Stem;
},
{
place = "{20, 137}";
type = Stem;
},
{
place = "{281, 133}";
type = Stem;
}
);
layerId = "02376AAC-77FF-49DA-9399-294AF7A35492";
paths = (
{
closed = 1;
nodes = (
"272 88 OFFCURVE",
"289 83 OFFCURVE",
"305 83 CURVE SMOOTH",
"313 83 OFFCURVE",
"322 85 OFFCURVE",
"330 87 CURVE SMOOTH",
"361 95 OFFCURVE",
"385 127 OFFCURVE",
"385 159 CURVE SMOOTH",
"385 163 OFFCURVE",
"385 166 OFFCURVE",
"384 170 CURVE",
"379 203 OFFCURVE",
"351 227 OFFCURVE",
"321 238 CURVE",
"297 248 OFFCURVE",
"268 251 OFFCURVE",
"242 251 CURVE SMOOTH",
"166 250 OFFCURVE",
"95 213 OFFCURVE",
"59 145 CURVE SMOOTH",
"37 103 OFFCURVE",
"20 50 OFFCURVE",
"20 3 CURVE SMOOTH",
"20 -1 LINE SMOOTH",
"21 -47 OFFCURVE",
"29 -99 OFFCURVE",
"51 -139 CURVE SMOOTH",
"72 -177 OFFCURVE",
"106 -218 OFFCURVE",
"145 -235 CURVE SMOOTH",
"170 -246 OFFCURVE",
"200 -249 OFFCURVE",
"225 -249 CURVE SMOOTH",
"270 -249 OFFCURVE",
"320 -242 OFFCURVE",
"356 -213 CURVE SMOOTH",
"391 -185 OFFCURVE",
"414 -140 OFFCURVE",
"414 -95 CURVE SMOOTH",
"414 -39 OFFCURVE",
"384 -5 OFFCURVE",
"352 19 CURVE SMOOTH",
"325 39 OFFCURVE",
"294 50 OFFCURVE",
"263 50 CURVE SMOOTH",
"231 50 OFFCURVE",
"198 38 OFFCURVE",
"172 15 CURVE",
"170 13 OFFCURVE",
"168 13 OFFCURVE",
"166 13 CURVE SMOOTH",
"160 13 OFFCURVE",
"157 21 OFFCURVE",
"157 37 CURVE SMOOTH",
"160 222 OFFCURVE",
"219 227 OFFCURVE",
"240 227 CURVE SMOOTH",
"260 227 OFFCURVE",
"273 222 OFFCURVE",
"273 212 CURVE SMOOTH",
"273 198 OFFCURVE",
"254 186 OFFCURVE",
"248 174 CURVE",
"243 165 OFFCURVE",
"241 155 OFFCURVE",
"241 145 CURVE SMOOTH",
"241 130 OFFCURVE",
"246 115 OFFCURVE",
"256 104 CURVE",
"257 102 OFFCURVE",
"259 101 OFFCURVE",
"260 100 CURVE SMOOTH"
);
},
{
closed = 1;
nodes = (
"254 2 OFFCURVE",
"281 -48 OFFCURVE",
"281 -110 CURVE SMOOTH",
"281 -172 OFFCURVE",
"254 -222 OFFCURVE",
"222 -222 CURVE SMOOTH",
"190 -222 OFFCURVE",
"164 -172 OFFCURVE",
"164 -110 CURVE SMOOTH",
"164 -48 OFFCURVE",
"190 2 OFFCURVE",
"222 2 CURVE SMOOTH"
);
}
);
width = 434;
}
);
note = uniE086;
unicode = E086;
},
{
glyphname = uniE087;
lastChange = "2019-06-18 07:31:11 +0000";
layers = (
{
hints = (
{
horizontal = 1;
place = "{-250, 21}";
target = up;
type = BottomGhost;
},
{
horizontal = 1;
place = "{61, 103}";
type = Stem;
},
{
place = "{120, 182}";
type = Stem;
},
{
horizontal = 1;
place = "{136, 113}";
type = Stem;
}
);
layerId = "02376AAC-77FF-49DA-9399-294AF7A35492";
paths = (
{
closed = 1;
nodes = (
"421 204 LINE SMOOTH",
"421 231 OFFCURVE",
"421 244 OFFCURVE",
"404 244 CURVE SMOOTH",
"403 244 OFFCURVE",
"387 240 OFFCURVE",
"383 233 CURVE SMOOTH",
"376 221 OFFCURVE",
"362 164 OFFCURVE",
"337 164 CURVE SMOOTH",
"312 164 OFFCURVE",
"265 249 OFFCURVE",
"182 249 CURVE SMOOTH",
"124 249 OFFCURVE",
"109 226 OFFCURVE",
"95 213 CURVE SMOOTH",
"81 200 OFFCURVE",
"75 196 OFFCURVE",
"68 195 CURVE",
"60 195 OFFCURVE",
"47 209 OFFCURVE",
"42 219 CURVE SMOOTH",
"40 223 OFFCURVE",
"35 226 OFFCURVE",
"30 226 CURVE SMOOTH",
"25 226 OFFCURVE",
"20 223 OFFCURVE",
"20 214 CURVE SMOOTH",
"20 49 LINE",
"20 49 OFFCURVE",
"21 33 OFFCURVE",
"31 33 CURVE SMOOTH",
"39 33 OFFCURVE",
"42 42 OFFCURVE",
"46 53 CURVE SMOOTH",
"56 78 OFFCURVE",
"69 136 OFFCURVE",
"114 136 CURVE SMOOTH",
"154 136 OFFCURVE",
"202 61 OFFCURVE",
"260 61 CURVE SMOOTH",
"288 61 OFFCURVE",
"302 76 OFFCURVE",
"310 82 CURVE",
"313 84 OFFCURVE",
"317 86 OFFCURVE",
"319 86 CURVE SMOOTH",
"323 86 OFFCURVE",
"325 83 OFFCURVE",
"326 77 CURVE",
"326 49 OFFCURVE",
"249 -7 OFFCURVE",
"189 -78 CURVE SMOOTH",
"151 -122 OFFCURVE",
"120 -180 OFFCURVE",
"120 -219 CURVE SMOOTH",
"120 -240 OFFCURVE",
"120 -250 OFFCURVE",
"139 -250 CURVE SMOOTH",
"157 -250 OFFCURVE",
"179 -241 OFFCURVE",
"204 -241 CURVE SMOOTH",
"229 -241 OFFCURVE",
"276 -250 OFFCURVE",
"286 -250 CURVE SMOOTH",
"296 -250 OFFCURVE",
"302 -242 OFFCURVE",
"302 -213 CURVE SMOOTH",
"302 -46 OFFCURVE",
"421 97 OFFCURVE",
"421 200 CURVE SMOOTH"
);
}
);
width = 441;
}
);
note = uniE087;
unicode = E087;
},
{
glyphname = uniE088;
lastChange = "2019-06-18 07:31:11 +0000";
layers = (
{
hints = (
{
horizontal = 1;
place = "{-259, 33}";
type = Stem;
},
{
horizontal = 1;
place = "{230, 29}";
type = Stem;
},
{
place = "{25, 52}";
type = Stem;
},
{
place = "{335, 59}";
type = Stem;
},
{
place = "{303, 113}";
type = Stem;
},
{
place = "{25, 92}";
type = Stem;
}
);
layerId = "02376AAC-77FF-49DA-9399-294AF7A35492";
paths = (
{
closed = 1;
nodes = (
"370 59 OFFCURVE",
"394 92 OFFCURVE",
"394 142 CURVE SMOOTH",
"394 244 OFFCURVE",
"247 259 OFFCURVE",
"220 259 CURVE SMOOTH",
"104 259 OFFCURVE",
"25 206 OFFCURVE",
"25 122 CURVE SMOOTH",
"25 53 OFFCURVE",
"64 16 OFFCURVE",
"112 -11 CURVE",
"60 -36 OFFCURVE",
"20 -69 OFFCURVE",
"20 -132 CURVE SMOOTH",
"20 -219 OFFCURVE",
"110 -259 OFFCURVE",
"209 -259 CURVE SMOOTH",
"309 -259 OFFCURVE",
"416 -216 OFFCURVE",
"416 -81 CURVE SMOOTH",
"416 -21 OFFCURVE",
"381 12 OFFCURVE",
"334 36 CURVE"
);
},
{
closed = 1;
nodes = (
"138 -226 OFFCURVE",
"77 -192 OFFCURVE",
"77 -127 CURVE SMOOTH",
"77 -87 OFFCURVE",
"112 -50 OFFCURVE",
"156 -33 CURVE",
"229 -65 OFFCURVE",
"303 -86 OFFCURVE",
"303 -152 CURVE SMOOTH",
"303 -192 OFFCURVE",
"272 -226 OFFCURVE",
"205 -226 CURVE SMOOTH"
);
},
{
closed = 1;
nodes = (
"202 87 OFFCURVE",
"117 104 OFFCURVE",
"117 167 CURVE SMOOTH",
"117 209 OFFCURVE",
"174 230 OFFCURVE",
"218 230 CURVE SMOOTH",
"250 230 OFFCURVE",
"335 214 OFFCURVE",
"335 144 CURVE SMOOTH",
"335 104 OFFCURVE",
"315 78 OFFCURVE",
"282 59 CURVE"
);
}
);
width = 436;
}
);
note = uniE088;
unicode = E088;
},
